<svg width="960" height="200" xmlns="http://www.w3.org/2000/svg">
<rect x="0" y="0" width="960" height="200" fill="#ffffff" stroke="#dddddd"/>
<text x="480.0" y="25" text-anchor="middle" font-size="16">INSECTS_abrupt_balanced__mean_teacher__seed1 Drift Timeline</text>
<text x="480.0" y="195" text-anchor="middle" font-size="12" fill="#333333">sample_idx</text>
<line x1="50" y1="100.0" x2="910" y2="100.0" stroke="#555555"/>
<line x1="50.00" y1="95.0" x2="50.00" y2="105.0" stroke="#888888"/>
<text x="50.00" y="118.0" text-anchor="middle" font-size="11" fill="#444444">255</text>
<line x1="265.00" y1="95.0" x2="265.00" y2="105.0" stroke="#888888"/>
<text x="265.00" y="118.0" text-anchor="middle" font-size="11" fill="#444444">13k</text>
<line x1="480.00" y1="95.0" x2="480.00" y2="105.0" stroke="#888888"/>
<text x="480.00" y="118.0" text-anchor="middle" font-size="11" fill="#444444">27k</text>
<line x1="695.00" y1="95.0" x2="695.00" y2="105.0" stroke="#888888"/>
<text x="695.00" y="118.0" text-anchor="middle" font-size="11" fill="#444444">40k</text>
<line x1="910.00" y1="95.0" x2="910.00" y2="105.0" stroke="#888888"/>
<text x="910.00" y="118.0" text-anchor="middle" font-size="11" fill="#444444">53k</text>
<rect x="770" y="35" width="140" height="50" fill="#ffffff" stroke="#cccccc"/>
<text x="840" y="50" text-anchor="middle" font-size="12" fill="#333333">legend</text>
<line x1="785" y1="65" x2="800" y2="65" stroke="#999999" stroke-width="2" stroke-dasharray="4,4"/>
<text x="805" y="69" font-size="12" fill="#555555">ground truth</text>
<line x1="785" y1="80" x2="800" y2="80" stroke="#d62728" stroke-width="2"/>
<text x="805" y="84" font-size="12" fill="#d62728">detections</text>
<line x1="280.51" y1="60" x2="280.51" y2="180" stroke="#999999" stroke-width="2" stroke-dasharray="4,4"/>
<line x1="364.69" y1="60" x2="364.69" y2="180" stroke="#999999" stroke-width="2" stroke-dasharray="4,4"/>
<line x1="589.37" y1="60" x2="589.37" y2="180" stroke="#999999" stroke-width="2" stroke-dasharray="4,4"/>
<line x1="678.37" y1="60" x2="678.37" y2="180" stroke="#999999" stroke-width="2" stroke-dasharray="4,4"/>
<line x1="691.91" y1="60" x2="691.91" y2="180" stroke="#999999" stroke-width="2" stroke-dasharray="4,4"/>
<line x1="154.66" y1="60" x2="154.66" y2="180" stroke="#d62728" stroke-width="2"/>
<line x1="259.31" y1="60" x2="259.31" y2="180" stroke="#d62728" stroke-width="2"/>
<line x1="363.97" y1="60" x2="363.97" y2="180" stroke="#d62728" stroke-width="2"/>
<line x1="468.63" y1="60" x2="468.63" y2="180" stroke="#d62728" stroke-width="2"/>
<line x1="573.28" y1="60" x2="573.28" y2="180" stroke="#d62728" stroke-width="2"/>
<line x1="677.94" y1="60" x2="677.94" y2="180" stroke="#d62728" stroke-width="2"/>
<line x1="782.60" y1="60" x2="782.60" y2="180" stroke="#d62728" stroke-width="2"/>
<line x1="887.25" y1="60" x2="887.25" y2="180" stroke="#d62728" stroke-width="2"/>
</svg>