<svg width="960" height="200" xmlns="http://www.w3.org/2000/svg">
<rect x="0" y="0" width="960" height="200" fill="#ffffff" stroke="#dddddd"/>
<text x="480.0" y="25" text-anchor="middle" font-size="16">sea_abrupt4__baseline_student__seed1 Drift Timeline</text>
<text x="480.0" y="195" text-anchor="middle" font-size="12" fill="#333333">sample_idx</text>
<line x1="50" y1="100.0" x2="910" y2="100.0" stroke="#555555"/>
<line x1="50.00" y1="95.0" x2="50.00" y2="105.0" stroke="#888888"/>
<text x="50.00" y="118.0" text-anchor="middle" font-size="11" fill="#444444">63</text>
<line x1="265.00" y1="95.0" x2="265.00" y2="105.0" stroke="#888888"/>
<text x="265.00" y="118.0" text-anchor="middle" font-size="11" fill="#444444">13k</text>
<line x1="480.00" y1="95.0" x2="480.00" y2="105.0" stroke="#888888"/>
<text x="480.00" y="118.0" text-anchor="middle" font-size="11" fill="#444444">25k</text>
<line x1="695.00" y1="95.0" x2="695.00" y2="105.0" stroke="#888888"/>
<text x="695.00" y="118.0" text-anchor="middle" font-size="11" fill="#444444">38k</text>
<line x1="910.00" y1="95.0" x2="910.00" y2="105.0" stroke="#888888"/>
<text x="910.00" y="118.0" text-anchor="middle" font-size="11" fill="#444444">50k</text>
<rect x="770" y="35" width="140" height="50" fill="#ffffff" stroke="#cccccc"/>
<text x="840" y="50" text-anchor="middle" font-size="12" fill="#333333">legend</text>
<line x1="785" y1="65" x2="800" y2="65" stroke="#999999" stroke-width="2" stroke-dasharray="4,4"/>
<text x="805" y="69" font-size="12" fill="#555555">ground truth</text>
<line x1="785" y1="80" x2="800" y2="80" stroke="#d62728" stroke-width="2"/>
<text x="805" y="84" font-size="12" fill="#d62728">detections</text>
<line x1="221.14" y1="60" x2="221.14" y2="180" stroke="#999999" stroke-width="2" stroke-dasharray="4,4"/>
<line x1="393.36" y1="60" x2="393.36" y2="180" stroke="#999999" stroke-width="2" stroke-dasharray="4,4"/>
<line x1="565.58" y1="60" x2="565.58" y2="180" stroke="#999999" stroke-width="2" stroke-dasharray="4,4"/>
<line x1="737.80" y1="60" x2="737.80" y2="180" stroke="#999999" stroke-width="2" stroke-dasharray="4,4"/>
<line x1="76.45" y1="60" x2="76.45" y2="180" stroke="#d62728" stroke-width="2"/>
<line x1="104.01" y1="60" x2="104.01" y2="180" stroke="#d62728" stroke-width="2"/>
<line x1="131.56" y1="60" x2="131.56" y2="180" stroke="#d62728" stroke-width="2"/>
<line x1="160.22" y1="60" x2="160.22" y2="180" stroke="#d62728" stroke-width="2"/>
<line x1="187.78" y1="60" x2="187.78" y2="180" stroke="#d62728" stroke-width="2"/>
<line x1="215.33" y1="60" x2="215.33" y2="180" stroke="#d62728" stroke-width="2"/>
<line x1="242.89" y1="60" x2="242.89" y2="180" stroke="#d62728" stroke-width="2"/>
<line x1="270.44" y1="60" x2="270.44" y2="180" stroke="#d62728" stroke-width="2"/>
<line x1="298.00" y1="60" x2="298.00" y2="180" stroke="#d62728" stroke-width="2"/>
<line x1="325.55" y1="60" x2="325.55" y2="180" stroke="#d62728" stroke-width="2"/>
<line x1="353.11" y1="60" x2="353.11" y2="180" stroke="#d62728" stroke-width="2"/>
<line x1="380.66" y1="60" x2="380.66" y2="180" stroke="#d62728" stroke-width="2"/>
<line x1="408.22" y1="60" x2="408.22" y2="180" stroke="#d62728" stroke-width="2"/>
<line x1="436.88" y1="60" x2="436.88" y2="180" stroke="#d62728" stroke-width="2"/>
<line x1="464.43" y1="60" x2="464.43" y2="180" stroke="#d62728" stroke-width="2"/>
<line x1="491.99" y1="60" x2="491.99" y2="180" stroke="#d62728" stroke-width="2"/>
<line x1="519.54" y1="60" x2="519.54" y2="180" stroke="#d62728" stroke-width="2"/>
<line x1="547.10" y1="60" x2="547.10" y2="180" stroke="#d62728" stroke-width="2"/>
<line x1="574.65" y1="60" x2="574.65" y2="180" stroke="#d62728" stroke-width="2"/>
<line x1="575.75" y1="60" x2="575.75" y2="180" stroke="#d62728" stroke-width="2"/>
<line x1="602.21" y1="60" x2="602.21" y2="180" stroke="#d62728" stroke-width="2"/>
<line x1="629.76" y1="60" x2="629.76" y2="180" stroke="#d62728" stroke-width="2"/>
<line x1="657.32" y1="60" x2="657.32" y2="180" stroke="#d62728" stroke-width="2"/>
<line x1="684.87" y1="60" x2="684.87" y2="180" stroke="#d62728" stroke-width="2"/>
<line x1="712.43" y1="60" x2="712.43" y2="180" stroke="#d62728" stroke-width="2"/>
<line x1="739.98" y1="60" x2="739.98" y2="180" stroke="#d62728" stroke-width="2"/>
<line x1="767.54" y1="60" x2="767.54" y2="180" stroke="#d62728" stroke-width="2"/>
<line x1="796.20" y1="60" x2="796.20" y2="180" stroke="#d62728" stroke-width="2"/>
<line x1="823.75" y1="60" x2="823.75" y2="180" stroke="#d62728" stroke-width="2"/>
<line x1="851.31" y1="60" x2="851.31" y2="180" stroke="#d62728" stroke-width="2"/>
<line x1="878.86" y1="60" x2="878.86" y2="180" stroke="#d62728" stroke-width="2"/>
<line x1="906.42" y1="60" x2="906.42" y2="180" stroke="#d62728" stroke-width="2"/>
</svg>