<svg width="960" height="200" xmlns="http://www.w3.org/2000/svg">
<rect x="0" y="0" width="960" height="200" fill="#ffffff" stroke="#dddddd"/>
<text x="480.0" y="25" text-anchor="middle" font-size="16">sea_abrupt4__baseline_student__seed1 Drift Timeline</text>
<line x1="50" y1="100.0" x2="910" y2="100.0" stroke="#555555"/>
<line x1="221.14" y1="60" x2="221.14" y2="180" stroke="#999999" stroke-width="2" stroke-dasharray="4,4"/>
<line x1="393.36" y1="60" x2="393.36" y2="180" stroke="#999999" stroke-width="2" stroke-dasharray="4,4"/>
<line x1="565.58" y1="60" x2="565.58" y2="180" stroke="#999999" stroke-width="2" stroke-dasharray="4,4"/>
<line x1="737.80" y1="60" x2="737.80" y2="180" stroke="#999999" stroke-width="2" stroke-dasharray="4,4"/>
<line x1="76.45" y1="60" x2="76.45" y2="180" stroke="#d62728" stroke-width="2"/>
<line x1="104.01" y1="60" x2="104.01" y2="180" stroke="#d62728" stroke-width="2"/>
<line x1="131.56" y1="60" x2="131.56" y2="180" stroke="#d62728" stroke-width="2"/>
<line x1="160.22" y1="60" x2="160.22" y2="180" stroke="#d62728" stroke-width="2"/>
<line x1="187.78" y1="60" x2="187.78" y2="180" stroke="#d62728" stroke-width="2"/>
<line x1="215.33" y1="60" x2="215.33" y2="180" stroke="#d62728" stroke-width="2"/>
<line x1="242.89" y1="60" x2="242.89" y2="180" stroke="#d62728" stroke-width="2"/>
<line x1="270.44" y1="60" x2="270.44" y2="180" stroke="#d62728" stroke-width="2"/>
<line x1="298.00" y1="60" x2="298.00" y2="180" stroke="#d62728" stroke-width="2"/>
<line x1="325.55" y1="60" x2="325.55" y2="180" stroke="#d62728" stroke-width="2"/>
<line x1="353.11" y1="60" x2="353.11" y2="180" stroke="#d62728" stroke-width="2"/>
<line x1="380.66" y1="60" x2="380.66" y2="180" stroke="#d62728" stroke-width="2"/>
<line x1="408.22" y1="60" x2="408.22" y2="180" stroke="#d62728" stroke-width="2"/>
<line x1="436.88" y1="60" x2="436.88" y2="180" stroke="#d62728" stroke-width="2"/>
<line x1="464.43" y1="60" x2="464.43" y2="180" stroke="#d62728" stroke-width="2"/>
<line x1="491.99" y1="60" x2="491.99" y2="180" stroke="#d62728" stroke-width="2"/>
<line x1="519.54" y1="60" x2="519.54" y2="180" stroke="#d62728" stroke-width="2"/>
<line x1="547.10" y1="60" x2="547.10" y2="180" stroke="#d62728" stroke-width="2"/>
<line x1="574.65" y1="60" x2="574.65" y2="180" stroke="#d62728" stroke-width="2"/>
<line x1="575.75" y1="60" x2="575.75" y2="180" stroke="#d62728" stroke-width="2"/>
<line x1="602.21" y1="60" x2="602.21" y2="180" stroke="#d62728" stroke-width="2"/>
<line x1="629.76" y1="60" x2="629.76" y2="180" stroke="#d62728" stroke-width="2"/>
<line x1="657.32" y1="60" x2="657.32" y2="180" stroke="#d62728" stroke-width="2"/>
<line x1="684.87" y1="60" x2="684.87" y2="180" stroke="#d62728" stroke-width="2"/>
<line x1="712.43" y1="60" x2="712.43" y2="180" stroke="#d62728" stroke-width="2"/>
<line x1="739.98" y1="60" x2="739.98" y2="180" stroke="#d62728" stroke-width="2"/>
<line x1="767.54" y1="60" x2="767.54" y2="180" stroke="#d62728" stroke-width="2"/>
<line x1="796.20" y1="60" x2="796.20" y2="180" stroke="#d62728" stroke-width="2"/>
<line x1="823.75" y1="60" x2="823.75" y2="180" stroke="#d62728" stroke-width="2"/>
<line x1="851.31" y1="60" x2="851.31" y2="180" stroke="#d62728" stroke-width="2"/>
<line x1="878.86" y1="60" x2="878.86" y2="180" stroke="#d62728" stroke-width="2"/>
<line x1="906.42" y1="60" x2="906.42" y2="180" stroke="#d62728" stroke-width="2"/>
</svg>