<svg width="960" height="200" xmlns="http://www.w3.org/2000/svg">
<rect x="0" y="0" width="960" height="200" fill="#ffffff" stroke="#dddddd"/>
<text x="480.0" y="25" text-anchor="middle" font-size="16">sine_abrupt4__mean_teacher__seed1 Drift Timeline</text>
<text x="480.0" y="195" text-anchor="middle" font-size="12" fill="#333333">sample_idx</text>
<line x1="50" y1="100.0" x2="910" y2="100.0" stroke="#555555"/>
<line x1="50.00" y1="95.0" x2="50.00" y2="105.0" stroke="#888888"/>
<text x="50.00" y="118.0" text-anchor="middle" font-size="11" fill="#444444">63</text>
<line x1="265.00" y1="95.0" x2="265.00" y2="105.0" stroke="#888888"/>
<text x="265.00" y="118.0" text-anchor="middle" font-size="11" fill="#444444">13k</text>
<line x1="480.00" y1="95.0" x2="480.00" y2="105.0" stroke="#888888"/>
<text x="480.00" y="118.0" text-anchor="middle" font-size="11" fill="#444444">25k</text>
<line x1="695.00" y1="95.0" x2="695.00" y2="105.0" stroke="#888888"/>
<text x="695.00" y="118.0" text-anchor="middle" font-size="11" fill="#444444">38k</text>
<line x1="910.00" y1="95.0" x2="910.00" y2="105.0" stroke="#888888"/>
<text x="910.00" y="118.0" text-anchor="middle" font-size="11" fill="#444444">50k</text>
<rect x="770" y="35" width="140" height="50" fill="#ffffff" stroke="#cccccc"/>
<text x="840" y="50" text-anchor="middle" font-size="12" fill="#333333">legend</text>
<line x1="785" y1="65" x2="800" y2="65" stroke="#999999" stroke-width="2" stroke-dasharray="4,4"/>
<text x="805" y="69" font-size="12" fill="#555555">ground truth</text>
<line x1="785" y1="80" x2="800" y2="80" stroke="#d62728" stroke-width="2"/>
<text x="805" y="84" font-size="12" fill="#d62728">detections</text>
<line x1="221.14" y1="60" x2="221.14" y2="180" stroke="#999999" stroke-width="2" stroke-dasharray="4,4"/>
<line x1="393.36" y1="60" x2="393.36" y2="180" stroke="#999999" stroke-width="2" stroke-dasharray="4,4"/>
<line x1="565.58" y1="60" x2="565.58" y2="180" stroke="#999999" stroke-width="2" stroke-dasharray="4,4"/>
<line x1="737.80" y1="60" x2="737.80" y2="180" stroke="#999999" stroke-width="2" stroke-dasharray="4,4"/>
<line x1="76.45" y1="60" x2="76.45" y2="180" stroke="#d62728" stroke-width="2"/>
<line x1="104.01" y1="60" x2="104.01" y2="180" stroke="#d62728" stroke-width="2"/>
<line x1="131.56" y1="60" x2="131.56" y2="180" stroke="#d62728" stroke-width="2"/>
<line x1="159.12" y1="60" x2="159.12" y2="180" stroke="#d62728" stroke-width="2"/>
<line x1="221.94" y1="60" x2="221.94" y2="180" stroke="#d62728" stroke-width="2"/>
<line x1="236.27" y1="60" x2="236.27" y2="180" stroke="#d62728" stroke-width="2"/>
<line x1="249.50" y1="60" x2="249.50" y2="180" stroke="#d62728" stroke-width="2"/>
<line x1="277.06" y1="60" x2="277.06" y2="180" stroke="#d62728" stroke-width="2"/>
<line x1="304.61" y1="60" x2="304.61" y2="180" stroke="#d62728" stroke-width="2"/>
<line x1="332.17" y1="60" x2="332.17" y2="180" stroke="#d62728" stroke-width="2"/>
<line x1="359.72" y1="60" x2="359.72" y2="180" stroke="#d62728" stroke-width="2"/>
<line x1="387.28" y1="60" x2="387.28" y2="180" stroke="#d62728" stroke-width="2"/>
<line x1="414.83" y1="60" x2="414.83" y2="180" stroke="#d62728" stroke-width="2"/>
<line x1="442.39" y1="60" x2="442.39" y2="180" stroke="#d62728" stroke-width="2"/>
<line x1="469.94" y1="60" x2="469.94" y2="180" stroke="#d62728" stroke-width="2"/>
<line x1="497.50" y1="60" x2="497.50" y2="180" stroke="#d62728" stroke-width="2"/>
<line x1="525.05" y1="60" x2="525.05" y2="180" stroke="#d62728" stroke-width="2"/>
<line x1="552.61" y1="60" x2="552.61" y2="180" stroke="#d62728" stroke-width="2"/>
<line x1="580.16" y1="60" x2="580.16" y2="180" stroke="#d62728" stroke-width="2"/>
<line x1="607.72" y1="60" x2="607.72" y2="180" stroke="#d62728" stroke-width="2"/>
<line x1="635.27" y1="60" x2="635.27" y2="180" stroke="#d62728" stroke-width="2"/>
<line x1="662.83" y1="60" x2="662.83" y2="180" stroke="#d62728" stroke-width="2"/>
<line x1="690.38" y1="60" x2="690.38" y2="180" stroke="#d62728" stroke-width="2"/>
<line x1="717.94" y1="60" x2="717.94" y2="180" stroke="#d62728" stroke-width="2"/>
<line x1="745.50" y1="60" x2="745.50" y2="180" stroke="#d62728" stroke-width="2"/>
<line x1="773.05" y1="60" x2="773.05" y2="180" stroke="#d62728" stroke-width="2"/>
<line x1="800.61" y1="60" x2="800.61" y2="180" stroke="#d62728" stroke-width="2"/>
<line x1="828.16" y1="60" x2="828.16" y2="180" stroke="#d62728" stroke-width="2"/>
<line x1="855.72" y1="60" x2="855.72" y2="180" stroke="#d62728" stroke-width="2"/>
<line x1="883.27" y1="60" x2="883.27" y2="180" stroke="#d62728" stroke-width="2"/>
<line x1="910.00" y1="60" x2="910.00" y2="180" stroke="#d62728" stroke-width="2"/>
</svg>