<svg width="960" height="200" xmlns="http://www.w3.org/2000/svg">
<rect x="0" y="0" width="960" height="200" fill="#ffffff" stroke="#dddddd"/>
<text x="480.0" y="25" text-anchor="middle" font-size="16">sine_abrupt4__ts_drift_adapt__seed1 Drift Timeline</text>
<line x1="50" y1="100.0" x2="910" y2="100.0" stroke="#555555"/>
<line x1="221.14" y1="60" x2="221.14" y2="180" stroke="#999999" stroke-width="2" stroke-dasharray="4,4"/>
<line x1="393.36" y1="60" x2="393.36" y2="180" stroke="#999999" stroke-width="2" stroke-dasharray="4,4"/>
<line x1="565.58" y1="60" x2="565.58" y2="180" stroke="#999999" stroke-width="2" stroke-dasharray="4,4"/>
<line x1="737.80" y1="60" x2="737.80" y2="180" stroke="#999999" stroke-width="2" stroke-dasharray="4,4"/>
<line x1="76.45" y1="60" x2="76.45" y2="180" stroke="#d62728" stroke-width="2"/>
<line x1="105.11" y1="60" x2="105.11" y2="180" stroke="#d62728" stroke-width="2"/>
<line x1="133.77" y1="60" x2="133.77" y2="180" stroke="#d62728" stroke-width="2"/>
<line x1="161.32" y1="60" x2="161.32" y2="180" stroke="#d62728" stroke-width="2"/>
<line x1="188.88" y1="60" x2="188.88" y2="180" stroke="#d62728" stroke-width="2"/>
<line x1="216.43" y1="60" x2="216.43" y2="180" stroke="#d62728" stroke-width="2"/>
<line x1="236.27" y1="60" x2="236.27" y2="180" stroke="#d62728" stroke-width="2"/>
<line x1="243.99" y1="60" x2="243.99" y2="180" stroke="#d62728" stroke-width="2"/>
<line x1="271.54" y1="60" x2="271.54" y2="180" stroke="#d62728" stroke-width="2"/>
<line x1="299.10" y1="60" x2="299.10" y2="180" stroke="#d62728" stroke-width="2"/>
<line x1="326.65" y1="60" x2="326.65" y2="180" stroke="#d62728" stroke-width="2"/>
<line x1="354.21" y1="60" x2="354.21" y2="180" stroke="#d62728" stroke-width="2"/>
<line x1="381.77" y1="60" x2="381.77" y2="180" stroke="#d62728" stroke-width="2"/>
<line x1="409.32" y1="60" x2="409.32" y2="180" stroke="#d62728" stroke-width="2"/>
<line x1="436.88" y1="60" x2="436.88" y2="180" stroke="#d62728" stroke-width="2"/>
<line x1="464.43" y1="60" x2="464.43" y2="180" stroke="#d62728" stroke-width="2"/>
<line x1="491.99" y1="60" x2="491.99" y2="180" stroke="#d62728" stroke-width="2"/>
<line x1="519.54" y1="60" x2="519.54" y2="180" stroke="#d62728" stroke-width="2"/>
<line x1="547.10" y1="60" x2="547.10" y2="180" stroke="#d62728" stroke-width="2"/>
<line x1="574.65" y1="60" x2="574.65" y2="180" stroke="#d62728" stroke-width="2"/>
<line x1="602.21" y1="60" x2="602.21" y2="180" stroke="#d62728" stroke-width="2"/>
<line x1="629.76" y1="60" x2="629.76" y2="180" stroke="#d62728" stroke-width="2"/>
<line x1="657.32" y1="60" x2="657.32" y2="180" stroke="#d62728" stroke-width="2"/>
<line x1="684.87" y1="60" x2="684.87" y2="180" stroke="#d62728" stroke-width="2"/>
<line x1="712.43" y1="60" x2="712.43" y2="180" stroke="#d62728" stroke-width="2"/>
<line x1="739.98" y1="60" x2="739.98" y2="180" stroke="#d62728" stroke-width="2"/>
<line x1="767.54" y1="60" x2="767.54" y2="180" stroke="#d62728" stroke-width="2"/>
<line x1="795.09" y1="60" x2="795.09" y2="180" stroke="#d62728" stroke-width="2"/>
<line x1="822.65" y1="60" x2="822.65" y2="180" stroke="#d62728" stroke-width="2"/>
<line x1="850.21" y1="60" x2="850.21" y2="180" stroke="#d62728" stroke-width="2"/>
<line x1="877.76" y1="60" x2="877.76" y2="180" stroke="#d62728" stroke-width="2"/>
<line x1="905.32" y1="60" x2="905.32" y2="180" stroke="#d62728" stroke-width="2"/>
</svg>