<svg width="960" height="200" xmlns="http://www.w3.org/2000/svg">
<rect x="0" y="0" width="960" height="200" fill="#ffffff" stroke="#dddddd"/>
<text x="480.0" y="25" text-anchor="middle" font-size="16">stagger_abrupt3__baseline_student__seed1 Drift Timeline</text>
<text x="480.0" y="195" text-anchor="middle" font-size="12" fill="#333333">sample_idx</text>
<line x1="50" y1="100.0" x2="910" y2="100.0" stroke="#555555"/>
<line x1="50.00" y1="95.0" x2="50.00" y2="105.0" stroke="#888888"/>
<text x="50.00" y="118.0" text-anchor="middle" font-size="11" fill="#444444">63</text>
<line x1="265.00" y1="95.0" x2="265.00" y2="105.0" stroke="#888888"/>
<text x="265.00" y="118.0" text-anchor="middle" font-size="11" fill="#444444">13k</text>
<line x1="480.00" y1="95.0" x2="480.00" y2="105.0" stroke="#888888"/>
<text x="480.00" y="118.0" text-anchor="middle" font-size="11" fill="#444444">26k</text>
<line x1="695.00" y1="95.0" x2="695.00" y2="105.0" stroke="#888888"/>
<text x="695.00" y="118.0" text-anchor="middle" font-size="11" fill="#444444">38k</text>
<line x1="910.00" y1="95.0" x2="910.00" y2="105.0" stroke="#888888"/>
<text x="910.00" y="118.0" text-anchor="middle" font-size="11" fill="#444444">51k</text>
<rect x="770" y="35" width="140" height="50" fill="#ffffff" stroke="#cccccc"/>
<text x="840" y="50" text-anchor="middle" font-size="12" fill="#333333">legend</text>
<line x1="785" y1="65" x2="800" y2="65" stroke="#999999" stroke-width="2" stroke-dasharray="4,4"/>
<text x="805" y="69" font-size="12" fill="#555555">ground truth</text>
<line x1="785" y1="80" x2="800" y2="80" stroke="#d62728" stroke-width="2"/>
<text x="805" y="84" font-size="12" fill="#d62728">detections</text>
<line x1="385.30" y1="60" x2="385.30" y2="180" stroke="#999999" stroke-width="2" stroke-dasharray="4,4"/>
<line x1="721.66" y1="60" x2="721.66" y2="180" stroke="#999999" stroke-width="2" stroke-dasharray="4,4"/>
<line x1="75.83" y1="60" x2="75.83" y2="180" stroke="#d62728" stroke-width="2"/>
<line x1="102.74" y1="60" x2="102.74" y2="180" stroke="#d62728" stroke-width="2"/>
<line x1="385.82" y1="60" x2="385.82" y2="180" stroke="#d62728" stroke-width="2"/>
<line x1="394.43" y1="60" x2="394.43" y2="180" stroke="#d62728" stroke-width="2"/>
<line x1="412.73" y1="60" x2="412.73" y2="180" stroke="#d62728" stroke-width="2"/>
<line x1="439.64" y1="60" x2="439.64" y2="180" stroke="#d62728" stroke-width="2"/>
<line x1="466.55" y1="60" x2="466.55" y2="180" stroke="#d62728" stroke-width="2"/>
<line x1="494.53" y1="60" x2="494.53" y2="180" stroke="#d62728" stroke-width="2"/>
<line x1="521.44" y1="60" x2="521.44" y2="180" stroke="#d62728" stroke-width="2"/>
<line x1="722.72" y1="60" x2="722.72" y2="180" stroke="#d62728" stroke-width="2"/>
<line x1="730.25" y1="60" x2="730.25" y2="180" stroke="#d62728" stroke-width="2"/>
<line x1="749.62" y1="60" x2="749.62" y2="180" stroke="#d62728" stroke-width="2"/>
<line x1="762.54" y1="60" x2="762.54" y2="180" stroke="#d62728" stroke-width="2"/>
<line x1="776.53" y1="60" x2="776.53" y2="180" stroke="#d62728" stroke-width="2"/>
<line x1="803.44" y1="60" x2="803.44" y2="180" stroke="#d62728" stroke-width="2"/>
</svg>