<svg width="960" height="200" xmlns="http://www.w3.org/2000/svg">
<rect x="0" y="0" width="960" height="200" fill="#ffffff" stroke="#dddddd"/>
<text x="480.0" y="25" text-anchor="middle" font-size="16">stagger_abrupt3__mean_teacher__seed1 Drift Timeline</text>
<line x1="50" y1="100.0" x2="910" y2="100.0" stroke="#555555"/>
<line x1="385.30" y1="60" x2="385.30" y2="180" stroke="#999999" stroke-width="2" stroke-dasharray="4,4"/>
<line x1="721.66" y1="60" x2="721.66" y2="180" stroke="#999999" stroke-width="2" stroke-dasharray="4,4"/>
<line x1="75.83" y1="60" x2="75.83" y2="180" stroke="#d62728" stroke-width="2"/>
<line x1="385.82" y1="60" x2="385.82" y2="180" stroke="#d62728" stroke-width="2"/>
<line x1="395.51" y1="60" x2="395.51" y2="180" stroke="#d62728" stroke-width="2"/>
<line x1="412.73" y1="60" x2="412.73" y2="180" stroke="#d62728" stroke-width="2"/>
<line x1="439.64" y1="60" x2="439.64" y2="180" stroke="#d62728" stroke-width="2"/>
<line x1="466.55" y1="60" x2="466.55" y2="180" stroke="#d62728" stroke-width="2"/>
<line x1="493.45" y1="60" x2="493.45" y2="180" stroke="#d62728" stroke-width="2"/>
<line x1="520.36" y1="60" x2="520.36" y2="180" stroke="#d62728" stroke-width="2"/>
<line x1="569.87" y1="60" x2="569.87" y2="180" stroke="#d62728" stroke-width="2"/>
<line x1="722.72" y1="60" x2="722.72" y2="180" stroke="#d62728" stroke-width="2"/>
<line x1="730.25" y1="60" x2="730.25" y2="180" stroke="#d62728" stroke-width="2"/>
<line x1="749.62" y1="60" x2="749.62" y2="180" stroke="#d62728" stroke-width="2"/>
<line x1="762.54" y1="60" x2="762.54" y2="180" stroke="#d62728" stroke-width="2"/>
<line x1="776.53" y1="60" x2="776.53" y2="180" stroke="#d62728" stroke-width="2"/>
<line x1="803.44" y1="60" x2="803.44" y2="180" stroke="#d62728" stroke-width="2"/>
<line x1="830.35" y1="60" x2="830.35" y2="180" stroke="#d62728" stroke-width="2"/>
</svg>