<svg width="960" height="400" xmlns="http://www.w3.org/2000/svg">
<rect x="0" y="0" width="960" height="400" fill="#ffffff" stroke="#dddddd"/>
<line x1="50" y1="50" x2="50" y2="350" stroke="#444444"/>
<line x1="50" y1="350" x2="910" y2="350" stroke="#444444"/>
<text x="480.0" y="30" text-anchor="middle" font-size="18">INSECTS_abrupt_balanced Accuracy</text>
<text x="480.0" y="390" text-anchor="middle" font-size="12" fill="#333333">sample_idx</text>
<text x="20" y="200.0" transform="rotate(-90,20,200.0)" text-anchor="middle" font-size="12" fill="#333333">metric_accuracy</text>
<line x1="50.00" y1="350" x2="50.00" y2="355" stroke="#666666"/>
<text x="50.00" y="368" text-anchor="middle" font-size="11" fill="#444444">255</text>
<line x1="222.00" y1="350" x2="222.00" y2="355" stroke="#666666"/>
<text x="222.00" y="368" text-anchor="middle" font-size="11" fill="#444444">11k</text>
<line x1="394.00" y1="350" x2="394.00" y2="355" stroke="#666666"/>
<text x="394.00" y="368" text-anchor="middle" font-size="11" fill="#444444">21k</text>
<line x1="566.00" y1="350" x2="566.00" y2="355" stroke="#666666"/>
<text x="566.00" y="368" text-anchor="middle" font-size="11" fill="#444444">32k</text>
<line x1="738.00" y1="350" x2="738.00" y2="355" stroke="#666666"/>
<text x="738.00" y="368" text-anchor="middle" font-size="11" fill="#444444">42k</text>
<line x1="910.00" y1="350" x2="910.00" y2="355" stroke="#666666"/>
<text x="910.00" y="368" text-anchor="middle" font-size="11" fill="#444444">53k</text>
<line x1="45" y1="350.00" x2="50" y2="350.00" stroke="#666666"/>
<text x="42" y="354.00" text-anchor="end" font-size="11" fill="#444444">0.00</text>
<line x1="45" y1="290.00" x2="50" y2="290.00" stroke="#666666"/>
<text x="42" y="294.00" text-anchor="end" font-size="11" fill="#444444">0.20</text>
<line x1="45" y1="230.00" x2="50" y2="230.00" stroke="#666666"/>
<text x="42" y="234.00" text-anchor="end" font-size="11" fill="#444444">0.40</text>
<line x1="45" y1="170.00" x2="50" y2="170.00" stroke="#666666"/>
<text x="42" y="174.00" text-anchor="end" font-size="11" fill="#444444">0.60</text>
<line x1="45" y1="110.00" x2="50" y2="110.00" stroke="#666666"/>
<text x="42" y="114.00" text-anchor="end" font-size="11" fill="#444444">0.80</text>
<line x1="45" y1="50.00" x2="50" y2="50.00" stroke="#666666"/>
<text x="42" y="54.00" text-anchor="end" font-size="11" fill="#444444">1.00</text>
<rect x="790" y="10" width="120" height="85" fill="#ffffff" stroke="#cccccc"/>
<text x="850" y="23" text-anchor="middle" font-size="12" fill="#333333">legend</text>
<path d="M50.00,303.12 L54.19,307.81 L58.37,299.61 L62.56,297.56 L66.75,297.03 L70.93,298.05 L75.12,297.27 L79.30,295.51 L83.49,294.53 L87.68,293.87 L91.86,292.79 L96.05,291.50 L100.24,291.14 L104.42,291.24 L108.61,290.86 L112.79,290.01 L116.98,289.89 L121.17,289.13 L125.35,288.69 L129.54,288.89 L133.73,289.01 L137.91,288.80 L142.10,289.16 L146.28,288.92 L150.47,288.64 L154.66,289.02 L158.84,288.59 L163.03,288.35 L167.22,288.09 L171.40,288.16 L175.59,288.34 L179.77,288.40 L183.96,288.25 L188.15,288.13 L192.33,287.96 L196.52,287.79 L200.71,287.32 L204.89,287.24 L209.08,287.05 L213.26,286.72 L217.45,286.55 L221.64,286.38 L225.82,286.34 L230.01,286.24 L234.20,286.35 L238.38,286.39 L242.57,286.34 L246.75,286.47 L250.94,286.55 L255.13,287.49 L259.31,288.72 L263.50,289.90 L267.69,291.03 L271.87,292.06 L276.06,292.94 L280.24,292.10 L284.43,292.58 L288.62,293.57 L292.80,294.50 L296.99,295.43 L301.18,296.32 L305.36,297.19 L309.55,298.01 L313.73,298.82 L317.92,299.61 L322.11,300.37 L326.29,301.11 L330.48,301.82 L334.67,302.51 L338.85,302.47 L343.04,300.96 L347.23,299.80 L351.41,298.74 L355.60,297.74 L359.78,296.88 L363.97,295.85 L368.16,295.41 L372.34,295.34 L376.53,295.31 L380.72,295.16 L384.90,295.11 L389.09,294.95 L393.27,294.81 L397.46,294.61 L401.65,294.49 L405.83,294.08 L410.02,293.98 L414.21,293.62 L418.39,293.16 L422.58,292.77 L426.76,292.60 L430.95,292.09 L435.14,291.60 L439.32,291.12 L443.51,290.74 L447.70,290.39 L451.88,290.05 L456.07,289.70 L460.25,289.18 L464.44,288.83 L468.63,288.45 L472.81,288.12 L477.00,287.77 L481.19,287.45 L485.37,286.99 L489.56,286.77 L493.74,286.44 L497.93,286.14 L502.12,285.75 L506.30,286.13 L510.49,286.60 L514.68,287.02 L518.86,287.41 L523.05,287.85 L527.23,288.25 L531.42,288.67 L535.61,289.10 L539.79,289.50 L543.98,289.84 L548.17,290.29 L552.35,290.60 L556.54,290.97 L560.72,291.33 L564.91,291.65 L569.10,291.93 L573.28,292.07 L577.47,291.97 L581.66,291.52 L585.84,290.93 L590.03,290.91 L594.21,290.93 L598.40,290.82 L602.59,290.82 L606.77,290.74 L610.96,290.71 L615.15,290.79 L619.33,290.82 L623.52,290.86 L627.70,290.84 L631.89,290.83 L636.08,290.82 L640.26,290.83 L644.45,290.82 L648.64,290.80 L652.82,290.84 L657.01,290.81 L661.20,290.77 L665.38,290.61 L669.57,290.60 L673.75,290.99 L677.94,291.38 L682.13,291.51 L686.31,291.55 L690.50,291.59 L694.69,291.54 L698.87,291.47 L703.06,291.44 L707.24,291.32 L711.43,291.21 L715.62,291.05 L719.80,290.96 L723.99,290.73 L728.18,290.54 L732.36,290.41 L736.55,290.26 L740.73,290.06 L744.92,289.89 L749.11,289.66 L753.29,289.44 L757.48,289.15 L761.67,289.00 L765.85,288.61 L770.04,288.49 L774.22,288.32 L778.41,288.06 L782.60,287.78 L786.78,287.53 L790.97,287.27 L795.16,287.03 L799.34,286.74 L803.53,286.43 L807.71,286.20 L811.90,286.20 L816.09,286.55 L820.27,286.88 L824.46,287.21 L828.65,287.55 L832.83,287.87 L837.02,288.13 L841.20,288.39 L845.39,288.58 L849.58,288.78 L853.76,288.93 L857.95,289.07 L862.14,289.13 L866.32,289.04 L870.51,288.85 L874.69,288.58 L878.88,288.30 L883.07,287.98 L887.25,287.62 L891.44,287.22 L895.63,286.83 L899.81,286.99 L904.00,287.30 L908.18,287.61 L910.00,287.74" fill="none" stroke="#1f77b4" stroke-width="2"/>
<line x1="800" y1="36" x2="820" y2="36" stroke="#1f77b4" stroke-width="2"/>
<text x="825" y="40" font-size="12" fill="#1f77b4">baseline_student</text>
<path d="M50.00,266.80 L54.19,275.00 L58.37,277.34 L62.56,283.20 L66.75,282.50 L70.93,284.38 L75.12,284.88 L79.30,283.06 L83.49,281.77 L87.68,280.86 L91.86,281.29 L96.05,281.25 L100.24,282.03 L104.42,282.62 L108.61,282.42 L112.79,282.18 L116.98,281.62 L121.17,280.53 L125.35,280.80 L129.54,281.21 L133.73,281.36 L137.91,281.29 L142.10,280.86 L146.28,280.57 L150.47,280.72 L154.66,280.95 L158.84,280.51 L163.03,280.94 L167.22,281.22 L171.40,281.48 L175.59,281.58 L179.77,281.41 L183.96,281.50 L188.15,281.10 L192.33,280.89 L196.52,280.31 L200.71,280.16 L204.89,280.49 L209.08,279.90 L213.26,279.19 L217.45,279.12 L221.64,278.77 L225.82,278.41 L230.01,278.22 L234.20,278.36 L238.38,278.39 L242.57,278.14 L246.75,278.15 L250.94,278.23 L255.13,279.17 L259.31,280.56 L263.50,281.90 L267.69,283.18 L271.87,284.42 L276.06,285.36 L280.24,285.59 L284.43,286.08 L288.62,287.14 L292.80,288.19 L296.99,289.22 L301.18,290.22 L305.36,291.18 L309.55,292.09 L313.73,293.00 L317.92,293.88 L322.11,294.73 L326.29,295.55 L330.48,296.34 L334.67,297.11 L338.85,297.13 L343.04,295.70 L347.23,294.69 L351.41,293.67 L355.60,292.72 L359.78,291.95 L363.97,290.85 L368.16,290.39 L372.34,290.34 L376.53,290.34 L380.72,290.28 L384.90,290.25 L389.09,290.01 L393.27,289.94 L397.46,289.76 L401.65,289.59 L405.83,289.27 L410.02,289.01 L414.21,288.48 L418.39,288.02 L422.58,287.63 L426.76,287.40 L430.95,286.90 L435.14,286.43 L439.32,286.05 L443.51,285.74 L447.70,285.39 L451.88,284.92 L456.07,284.61 L460.25,284.14 L464.44,283.88 L468.63,283.57 L472.81,283.25 L477.00,282.86 L481.19,282.55 L485.37,282.30 L489.56,282.04 L493.74,281.85 L497.93,281.55 L502.12,281.22 L506.30,281.70 L510.49,282.25 L514.68,282.78 L518.86,283.30 L523.05,283.79 L527.23,284.25 L531.42,284.67 L535.61,285.11 L539.79,285.52 L543.98,285.87 L548.17,286.23 L552.35,286.57 L556.54,286.91 L560.72,287.20 L564.91,287.46 L569.10,287.56 L573.28,287.65 L577.47,287.52 L581.66,287.20 L585.84,286.57 L590.03,286.56 L594.21,286.61 L598.40,286.45 L602.59,286.44 L606.77,286.47 L610.96,286.55 L615.15,286.62 L619.33,286.60 L623.52,286.57 L627.70,286.52 L631.89,286.50 L636.08,286.55 L640.26,286.57 L644.45,286.55 L648.64,286.57 L652.82,286.59 L657.01,286.55 L661.20,286.54 L665.38,286.42 L669.57,286.44 L673.75,286.86 L677.94,287.28 L682.13,287.38 L686.31,287.36 L690.50,287.36 L694.69,287.32 L698.87,287.26 L703.06,287.09 L707.24,286.93 L711.43,286.84 L715.62,286.79 L719.80,286.70 L723.99,286.49 L728.18,286.43 L732.36,286.33 L736.55,286.19 L740.73,286.01 L744.92,285.86 L749.11,285.60 L753.29,285.28 L757.48,285.00 L761.67,284.81 L765.85,284.45 L770.04,284.29 L774.22,284.09 L778.41,283.86 L782.60,283.54 L786.78,283.30 L790.97,283.04 L795.16,282.77 L799.34,282.44 L803.53,282.15 L807.71,281.95 L811.90,282.01 L816.09,282.38 L820.27,282.73 L824.46,283.09 L828.65,283.44 L832.83,283.75 L837.02,284.02 L841.20,284.23 L845.39,284.42 L849.58,284.61 L853.76,284.71 L857.95,284.68 L862.14,284.54 L866.32,284.26 L870.51,283.93 L874.69,283.61 L878.88,283.34 L883.07,283.06 L887.25,282.76 L891.44,282.41 L895.63,282.04 L899.81,282.21 L904.00,282.54 L908.18,282.87 L910.00,283.01" fill="none" stroke="#ff7f0e" stroke-width="2"/>
<line x1="800" y1="56" x2="820" y2="56" stroke="#ff7f0e" stroke-width="2"/>
<text x="825" y="60" font-size="12" fill="#ff7f0e">mean_teacher</text>
<path d="M50.00,301.95 L54.19,298.44 L58.37,291.41 L62.56,294.04 L66.75,294.45 L70.93,296.68 L75.12,297.27 L79.30,295.95 L83.49,294.66 L87.68,293.98 L91.86,294.18 L96.05,293.36 L100.24,292.67 L104.42,292.66 L108.61,292.11 L112.79,291.77 L116.98,291.41 L121.17,290.69 L125.35,291.22 L129.54,291.00 L133.73,291.52 L137.91,291.14 L142.10,291.05 L146.28,290.38 L150.47,290.14 L154.66,290.37 L158.84,289.67 L163.03,289.27 L167.22,288.94 L171.40,288.36 L175.59,288.42 L179.77,288.07 L183.96,287.89 L188.15,287.82 L192.33,287.22 L196.52,286.91 L200.71,286.91 L204.89,286.87 L209.08,286.78 L213.26,286.51 L217.45,286.26 L221.64,286.22 L225.82,286.15 L230.01,286.11 L234.20,286.30 L238.38,286.49 L242.57,286.52 L246.75,286.40 L250.94,286.58 L255.13,287.45 L259.31,288.67 L263.50,289.85 L267.69,290.99 L271.87,292.08 L276.06,293.11 L280.24,293.65 L284.43,293.73 L288.62,294.30 L292.80,295.20 L296.99,296.11 L301.18,297.00 L305.36,297.85 L309.55,298.66 L313.73,299.46 L317.92,300.24 L322.11,300.99 L326.29,301.71 L330.48,302.38 L334.67,303.06 L338.85,302.87 L343.04,301.62 L347.23,301.03 L351.41,300.44 L355.60,299.86 L359.78,299.36 L363.97,298.67 L368.16,298.33 L372.34,298.17 L376.53,298.08 L380.72,297.94 L384.90,297.86 L389.09,297.78 L393.27,297.63 L397.46,297.57 L401.65,297.33 L405.83,296.94 L410.02,296.58 L414.21,295.87 L418.39,295.12 L422.58,294.92 L426.76,294.60 L430.95,293.86 L435.14,293.28 L439.32,292.75 L443.51,292.33 L447.70,292.10 L451.88,291.72 L456.07,291.38 L460.25,290.74 L464.44,290.42 L468.63,290.10 L472.81,289.73 L477.00,289.32 L481.19,288.98 L485.37,288.59 L489.56,288.29 L493.74,287.92 L497.93,287.60 L502.12,287.15 L506.30,287.52 L510.49,288.04 L514.68,288.48 L518.86,288.93 L523.05,289.44 L527.23,289.90 L531.42,290.36 L535.61,290.73 L539.79,291.15 L543.98,291.48 L548.17,291.77 L552.35,291.98 L556.54,292.22 L560.72,292.49 L564.91,292.60 L569.10,292.77 L573.28,292.74 L577.47,292.65 L581.66,292.44 L585.84,291.91 L590.03,291.76 L594.21,291.76 L598.40,291.57 L602.59,291.50 L606.77,291.48 L610.96,291.46 L615.15,291.54 L619.33,291.58 L623.52,291.58 L627.70,291.59 L631.89,291.64 L636.08,291.61 L640.26,291.65 L644.45,291.69 L648.64,291.67 L652.82,291.69 L657.01,291.62 L661.20,291.63 L665.38,291.51 L669.57,291.52 L673.75,291.91 L677.94,292.30 L682.13,292.37 L686.31,292.36 L690.50,292.40 L694.69,292.35 L698.87,292.22 L703.06,292.07 L707.24,291.93 L711.43,291.83 L715.62,291.67 L719.80,291.51 L723.99,291.31 L728.18,291.15 L732.36,291.03 L736.55,290.80 L740.73,290.57 L744.92,290.39 L749.11,290.20 L753.29,289.98 L757.48,289.77 L761.67,289.58 L765.85,289.24 L770.04,289.12 L774.22,288.95 L778.41,288.75 L782.60,288.52 L786.78,288.35 L790.97,288.15 L795.16,287.91 L799.34,287.58 L803.53,287.40 L807.71,287.21 L811.90,287.21 L816.09,287.55 L820.27,287.89 L824.46,288.22 L828.65,288.55 L832.83,288.84 L837.02,289.11 L841.20,289.31 L845.39,289.49 L849.58,289.63 L853.76,289.74 L857.95,289.87 L862.14,289.90 L866.32,289.83 L870.51,289.66 L874.69,289.52 L878.88,289.35 L883.07,289.10 L887.25,288.92 L891.44,288.61 L895.63,288.28 L899.81,288.45 L904.00,288.75 L908.18,289.05 L910.00,289.18" fill="none" stroke="#2ca02c" stroke-width="2"/>
<line x1="800" y1="76" x2="820" y2="76" stroke="#2ca02c" stroke-width="2"/>
<text x="825" y="80" font-size="12" fill="#2ca02c">ts_drift_adapt</text>
</svg>