<svg width="960" height="400" xmlns="http://www.w3.org/2000/svg">
<rect x="0" y="0" width="960" height="400" fill="#ffffff" stroke="#dddddd"/>
<line x1="50" y1="50" x2="50" y2="350" stroke="#444444"/>
<line x1="50" y1="350" x2="910" y2="350" stroke="#444444"/>
<text x="480.0" y="30" text-anchor="middle" font-size="18">sine_abrupt4 Accuracy</text>
<text x="480.0" y="390" text-anchor="middle" font-size="12" fill="#333333">sample_idx</text>
<text x="20" y="200.0" transform="rotate(-90,20,200.0)" text-anchor="middle" font-size="12" fill="#333333">metric_accuracy</text>
<line x1="50.00" y1="350" x2="50.00" y2="355" stroke="#666666"/>
<text x="50.00" y="368" text-anchor="middle" font-size="11" fill="#444444">63</text>
<line x1="222.00" y1="350" x2="222.00" y2="355" stroke="#666666"/>
<text x="222.00" y="368" text-anchor="middle" font-size="11" fill="#444444">10k</text>
<line x1="394.00" y1="350" x2="394.00" y2="355" stroke="#666666"/>
<text x="394.00" y="368" text-anchor="middle" font-size="11" fill="#444444">20k</text>
<line x1="566.00" y1="350" x2="566.00" y2="355" stroke="#666666"/>
<text x="566.00" y="368" text-anchor="middle" font-size="11" fill="#444444">30k</text>
<line x1="738.00" y1="350" x2="738.00" y2="355" stroke="#666666"/>
<text x="738.00" y="368" text-anchor="middle" font-size="11" fill="#444444">40k</text>
<line x1="910.00" y1="350" x2="910.00" y2="355" stroke="#666666"/>
<text x="910.00" y="368" text-anchor="middle" font-size="11" fill="#444444">50k</text>
<line x1="45" y1="350.00" x2="50" y2="350.00" stroke="#666666"/>
<text x="42" y="354.00" text-anchor="end" font-size="11" fill="#444444">0.00</text>
<line x1="45" y1="290.00" x2="50" y2="290.00" stroke="#666666"/>
<text x="42" y="294.00" text-anchor="end" font-size="11" fill="#444444">0.20</text>
<line x1="45" y1="230.00" x2="50" y2="230.00" stroke="#666666"/>
<text x="42" y="234.00" text-anchor="end" font-size="11" fill="#444444">0.40</text>
<line x1="45" y1="170.00" x2="50" y2="170.00" stroke="#666666"/>
<text x="42" y="174.00" text-anchor="end" font-size="11" fill="#444444">0.60</text>
<line x1="45" y1="110.00" x2="50" y2="110.00" stroke="#666666"/>
<text x="42" y="114.00" text-anchor="end" font-size="11" fill="#444444">0.80</text>
<line x1="45" y1="50.00" x2="50" y2="50.00" stroke="#666666"/>
<text x="42" y="54.00" text-anchor="end" font-size="11" fill="#444444">1.00</text>
<rect x="790" y="10" width="120" height="85" fill="#ffffff" stroke="#cccccc"/>
<text x="850" y="23" text-anchor="middle" font-size="12" fill="#333333">legend</text>
<path d="M50.00,167.19 L51.10,178.91 L52.20,168.75 L53.31,171.88 L54.41,173.75 L55.51,174.22 L56.61,171.88 L57.72,168.95 L58.82,162.50 L59.92,157.81 L61.02,154.40 L62.12,151.56 L63.23,146.63 L64.33,143.75 L65.43,139.06 L66.53,136.13 L67.64,134.65 L68.74,132.55 L69.84,130.43 L70.94,128.05 L72.04,125.67 L73.15,123.93 L74.25,122.35 L75.35,120.51 L76.45,119.75 L77.56,117.79 L78.66,115.80 L79.76,114.62 L80.86,113.85 L81.96,112.66 L83.07,111.24 L84.17,109.91 L85.27,108.81 L86.37,108.46 L87.48,107.86 L88.58,107.81 L89.68,107.39 L90.78,106.13 L91.88,105.65 L92.99,104.96 L94.09,103.85 L95.19,102.90 L96.29,102.11 L97.40,101.35 L98.50,100.52 L99.60,99.93 L100.70,99.37 L101.80,98.54 L102.91,98.12 L104.01,97.91 L105.11,97.15 L106.21,96.60 L107.31,96.26 L108.42,95.83 L109.52,95.51 L110.62,95.62 L111.72,95.15 L112.83,95.18 L113.93,94.97 L115.03,94.61 L116.13,94.11 L117.23,93.70 L118.34,93.60 L119.44,93.58 L120.54,93.56 L121.64,93.32 L122.75,93.17 L123.85,93.01 L124.95,92.60 L126.05,92.19 L127.15,92.12 L128.26,91.86 L129.36,91.55 L130.46,91.36 L131.56,90.94 L132.67,90.46 L133.77,89.94 L134.87,89.66 L135.97,89.34 L137.07,88.91 L138.18,88.60 L139.28,88.24 L140.38,87.90 L141.48,87.78 L142.59,87.50 L143.69,87.23 L144.79,86.85 L145.89,86.65 L146.99,86.50 L148.10,86.20 L149.20,85.90 L150.30,85.67 L151.40,85.48 L152.51,85.21 L153.61,84.98 L154.71,84.67 L155.81,84.50 L156.91,84.30 L158.02,84.00 L159.12,83.84 L160.22,83.69 L161.32,83.50 L162.43,83.40 L163.53,83.31 L164.63,83.08 L165.73,82.86 L166.83,82.77 L167.94,82.60 L169.04,82.51 L170.14,82.30 L171.24,82.09 L172.35,81.85 L173.45,81.73 L174.55,81.50 L175.65,81.26 L176.75,81.12 L177.86,80.93 L178.96,80.83 L180.06,80.72 L181.16,80.62 L182.27,80.45 L183.37,80.39 L184.47,80.26 L185.57,80.05 L186.67,79.93 L187.78,79.72 L188.88,79.56 L189.98,79.41 L191.08,79.36 L192.19,79.24 L193.29,79.06 L194.39,78.98 L195.49,78.79 L196.59,78.68 L197.70,78.54 L198.80,78.37 L199.90,78.26 L201.00,78.06 L202.11,77.99 L203.21,77.82 L204.31,77.69 L205.41,77.56 L206.51,77.50 L207.62,77.41 L208.72,77.32 L209.82,77.29 L210.92,77.20 L212.02,77.08 L213.13,76.99 L214.23,76.84 L215.33,76.76 L216.43,76.64 L217.54,76.56 L218.64,76.45 L219.74,76.31 L220.84,76.17 L221.94,77.44 L223.05,79.13 L224.15,80.78 L225.25,82.40 L226.35,84.01 L227.46,85.56 L228.56,87.07 L229.66,88.64 L230.76,90.17 L231.86,91.65 L232.97,92.97 L234.07,94.34 L235.17,95.57 L236.27,96.79 L237.38,97.97 L238.48,99.14 L239.58,100.05 L240.68,101.00 L241.78,101.75 L242.89,102.73 L243.99,103.58 L245.09,104.51 L246.19,105.07 L247.30,106.09 L248.40,107.13 L249.50,108.36 L250.60,109.43 L251.70,110.48 L252.81,111.29 L253.91,112.02 L255.01,112.67 L256.11,113.13 L257.22,113.62 L258.32,114.27 L259.42,114.79 L260.52,115.26 L261.62,115.75 L262.73,116.25 L263.83,116.83 L264.93,117.47 L266.03,118.34 L267.14,119.20 L268.24,120.03 L269.34,120.80 L270.44,121.53 L271.54,122.15 L272.65,122.99 L273.75,123.51 L274.85,123.99 L275.95,124.57 L277.06,125.07 L278.16,125.61 L279.26,126.14 L280.36,126.50 L281.46,127.00 L282.57,127.34 L283.67,127.62 L284.77,127.91 L285.87,128.27 L286.98,128.71 L288.08,128.97 L289.18,129.24 L290.28,129.71 L291.38,129.99 L292.49,130.24 L293.59,130.64 L294.69,130.70 L295.79,130.92 L296.90,131.02 L298.00,131.06 L299.10,131.22 L300.20,131.23 L301.30,131.28 L302.41,131.48 L303.51,131.74 L304.61,131.83 L305.71,131.82 L306.82,131.81 L307.92,131.86 L309.02,131.73 L310.12,131.78 L311.22,131.81 L312.33,131.77 L313.43,131.70 L314.53,131.59 L315.63,131.61 L316.74,131.66 L317.84,131.76 L318.94,131.95 L320.04,132.18 L321.14,132.19 L322.25,132.26 L323.35,132.32 L324.45,132.54 L325.55,132.68 L326.65,132.98 L327.76,133.24 L328.86,133.51 L329.96,133.69 L331.06,134.01 L332.17,134.21 L333.27,134.36 L334.37,134.56 L335.47,134.63 L336.57,134.75 L337.68,135.00 L338.78,135.07 L339.88,135.16 L340.98,135.10 L342.09,134.94 L343.19,134.76 L344.29,134.55 L345.39,134.38 L346.49,134.17 L347.60,133.96 L348.70,133.82 L349.80,133.72 L350.90,133.50 L352.01,133.34 L353.11,133.14 L354.21,132.97 L355.31,132.74 L356.41,132.49 L357.52,132.38 L358.62,132.27 L359.72,132.06 L360.82,131.91 L361.93,131.68 L363.03,131.50 L364.13,131.28 L365.23,131.03 L366.33,130.88 L367.44,130.73 L368.54,130.56 L369.64,130.40 L370.74,130.19 L371.85,130.01 L372.95,129.85 L374.05,129.64 L375.15,129.45 L376.25,129.26 L377.36,129.06 L378.46,128.81 L379.56,128.64 L380.66,128.41 L381.77,128.23 L382.87,128.03 L383.97,127.84 L385.07,127.67 L386.17,127.56 L387.28,127.40 L388.38,127.16 L389.48,127.00 L390.58,126.80 L391.69,126.57 L392.79,126.41 L393.89,126.56 L394.99,126.97 L396.09,127.38 L397.20,127.91 L398.30,128.33 L399.40,128.79 L400.50,129.31 L401.61,129.79 L402.71,130.23 L403.81,130.68 L404.91,131.07 L406.01,131.39 L407.12,131.92 L408.22,132.42 L409.32,132.78 L410.42,133.20 L411.53,133.55 L412.63,133.96 L413.73,134.33 L414.83,134.74 L415.93,135.12 L417.04,135.53 L418.14,135.83 L419.24,136.15 L420.34,136.54 L421.45,136.79 L422.55,137.11 L423.65,137.48 L424.75,137.80 L425.85,138.09 L426.96,138.38 L428.06,138.69 L429.16,139.01 L430.26,139.35 L431.36,139.66 L432.47,139.94 L433.57,140.24 L434.67,140.50 L435.77,140.71 L436.88,140.93 L437.98,141.17 L439.08,141.34 L440.18,141.47 L441.28,141.59 L442.39,141.75 L443.49,141.85 L444.59,142.09 L445.69,142.29 L446.80,142.43 L447.90,142.56 L449.00,142.61 L450.10,142.76 L451.20,142.88 L452.31,142.98 L453.41,143.12 L454.51,143.23 L455.61,143.38 L456.72,143.50 L457.82,143.61 L458.92,143.71 L460.02,143.79 L461.12,143.83 L462.23,143.95 L463.33,144.09 L464.43,144.11 L465.53,144.20 L466.64,144.31 L467.74,144.38 L468.84,144.49 L469.94,144.62 L471.04,144.72 L472.15,144.75 L473.25,144.81 L474.35,144.87 L475.45,144.96 L476.56,145.10 L477.66,145.03 L478.76,144.98 L479.86,144.96 L480.96,144.95 L482.07,145.01 L483.17,145.05 L484.27,144.96 L485.37,144.86 L486.48,144.78 L487.58,144.67 L488.68,144.57 L489.78,144.42 L490.88,144.36 L491.99,144.29 L493.09,144.22 L494.19,144.14 L495.29,144.05 L496.40,143.95 L497.50,143.89 L498.60,143.82 L499.70,143.76 L500.80,143.67 L501.91,143.59 L503.01,143.56 L504.11,143.51 L505.21,143.39 L506.32,143.30 L507.42,143.19 L508.52,143.04 L509.62,142.92 L510.72,142.82 L511.83,142.81 L512.93,142.79 L514.03,142.71 L515.13,142.62 L516.24,142.50 L517.34,142.43 L518.44,142.40 L519.54,142.30 L520.64,142.19 L521.75,142.11 L522.85,142.05 L523.95,141.94 L525.05,141.83 L526.16,141.79 L527.26,141.72 L528.36,141.61 L529.46,141.51 L530.56,141.47 L531.67,141.44 L532.77,141.34 L533.87,141.23 L534.97,141.09 L536.07,141.00 L537.18,140.84 L538.28,140.74 L539.38,140.66 L540.48,140.62 L541.59,140.52 L542.69,140.40 L543.79,140.41 L544.89,140.29 L545.99,140.26 L547.10,140.17 L548.20,140.10 L549.30,140.02 L550.40,139.95 L551.51,139.84 L552.61,139.75 L553.71,139.67 L554.81,139.56 L555.91,139.48 L557.02,139.38 L558.12,139.34 L559.22,139.25 L560.32,139.16 L561.43,139.07 L562.53,138.95 L563.63,138.88 L564.73,138.75 L565.83,138.75 L566.94,139.12 L568.04,139.45 L569.14,139.80 L570.24,140.09 L571.35,140.42 L572.45,140.76 L573.55,141.06 L574.65,141.39 L575.75,141.71 L576.86,142.02 L577.96,142.28 L579.06,142.59 L580.16,142.91 L581.27,143.23 L582.37,143.56 L583.47,143.91 L584.57,144.28 L585.67,144.65 L586.78,145.00 L587.88,145.27 L588.98,145.61 L590.08,145.96 L591.19,146.21 L592.29,146.47 L593.39,146.71 L594.49,146.95 L595.59,147.27 L596.70,147.49 L597.80,147.79 L598.90,148.07 L600.00,148.32 L601.11,148.53 L602.21,148.71 L603.31,148.89 L604.41,149.04 L605.51,149.12 L606.62,149.27 L607.72,149.44 L608.82,149.64 L609.92,149.79 L611.03,149.95 L612.13,150.13 L613.23,150.22 L614.33,150.38 L615.43,150.51 L616.54,150.64 L617.64,150.72 L618.74,150.86 L619.84,151.05 L620.95,151.24 L622.05,151.43 L623.15,151.60 L624.25,151.72 L625.35,151.84 L626.46,151.98 L627.56,152.11 L628.66,152.20 L629.76,152.30 L630.87,152.44 L631.97,152.53 L633.07,152.66 L634.17,152.75 L635.27,152.88 L636.38,152.98 L637.48,153.09 L638.58,153.27 L639.68,153.39 L640.79,153.51 L641.89,153.60 L642.99,153.78 L644.09,153.85 L645.19,153.97 L646.30,154.14 L647.40,154.26 L648.50,154.37 L649.60,154.47 L650.70,154.50 L651.81,154.59 L652.91,154.72 L654.01,154.78 L655.11,154.82 L656.22,154.90 L657.32,155.03 L658.42,155.10 L659.52,155.15 L660.62,155.26 L661.73,155.35 L662.83,155.42 L663.93,155.55 L665.03,155.64 L666.14,155.67 L667.24,155.73 L668.34,155.79 L669.44,155.86 L670.54,155.92 L671.65,155.94 L672.75,156.02 L673.85,156.06 L674.95,156.10 L676.06,156.17 L677.16,156.19 L678.26,156.22 L679.36,156.24 L680.46,156.30 L681.57,156.33 L682.67,156.41 L683.77,156.45 L684.87,156.52 L685.98,156.59 L687.08,156.61 L688.18,156.66 L689.28,156.74 L690.38,156.77 L691.49,156.80 L692.59,156.83 L693.69,156.92 L694.79,157.00 L695.90,157.06 L697.00,157.14 L698.10,157.18 L699.20,157.24 L700.30,157.23 L701.41,157.27 L702.51,157.30 L703.61,157.32 L704.71,157.31 L705.82,157.30 L706.92,157.33 L708.02,157.35 L709.12,157.31 L710.22,157.28 L711.33,157.26 L712.43,157.25 L713.53,157.24 L714.63,157.22 L715.74,157.23 L716.84,157.26 L717.94,157.25 L719.04,157.25 L720.14,157.26 L721.25,157.28 L722.35,157.30 L723.45,157.34 L724.55,157.38 L725.66,157.45 L726.76,157.49 L727.86,157.49 L728.96,157.49 L730.06,157.50 L731.17,157.50 L732.27,157.53 L733.37,157.52 L734.47,157.52 L735.58,157.51 L736.68,157.45 L737.78,157.39 L738.88,157.57 L739.98,157.75 L741.09,157.89 L742.19,158.06 L743.29,158.25 L744.39,158.39 L745.50,158.56 L746.60,158.71 L747.70,158.84 L748.80,158.99 L749.90,159.12 L751.01,159.31 L752.11,159.49 L753.21,159.65 L754.31,159.78 L755.41,159.94 L756.52,160.05 L757.62,160.24 L758.72,160.34 L759.82,160.44 L760.93,160.54 L762.03,160.64 L763.13,160.68 L764.23,160.72 L765.33,160.81 L766.44,160.92 L767.54,161.00 L768.64,161.05 L769.74,161.10 L770.85,161.09 L771.95,161.12 L773.05,161.17 L774.15,161.24 L775.25,161.24 L776.36,161.32 L777.46,161.35 L778.56,161.40 L779.66,161.42 L780.77,161.43 L781.87,161.50 L782.97,161.54 L784.07,161.64 L785.17,161.69 L786.28,161.74 L787.38,161.77 L788.48,161.86 L789.58,161.89 L790.69,161.96 L791.79,161.99 L792.89,162.07 L793.99,162.12 L795.09,162.15 L796.20,162.19 L797.30,162.21 L798.40,162.27 L799.50,162.31 L800.61,162.31 L801.71,162.35 L802.81,162.31 L803.91,162.34 L805.01,162.32 L806.12,162.29 L807.22,162.23 L808.32,162.19 L809.42,162.14 L810.53,162.09 L811.63,162.06 L812.73,162.07 L813.83,162.12 L814.93,162.11 L816.04,162.13 L817.14,162.18 L818.24,162.19 L819.34,162.23 L820.45,162.23 L821.55,162.27 L822.65,162.25 L823.75,162.19 L824.85,162.11 L825.96,162.03 L827.06,161.94 L828.16,161.85 L829.26,161.75 L830.37,161.70 L831.47,161.60 L832.57,161.49 L833.67,161.38 L834.77,161.30 L835.88,161.23 L836.98,161.12 L838.08,161.03 L839.18,160.92 L840.29,160.83 L841.39,160.74 L842.49,160.63 L843.59,160.53 L844.69,160.40 L845.80,160.30 L846.90,160.23 L848.00,160.11 L849.10,159.99 L850.21,159.88 L851.31,159.78 L852.41,159.66 L853.51,159.55 L854.61,159.45 L855.72,159.32 L856.82,159.18 L857.92,159.10 L859.02,159.01 L860.12,158.93 L861.23,158.80 L862.33,158.68 L863.43,158.55 L864.53,158.46 L865.64,158.36 L866.74,158.25 L867.84,158.14 L868.94,158.02 L870.04,157.91 L871.15,157.81 L872.25,157.70 L873.35,157.59 L874.45,157.48 L875.56,157.37 L876.66,157.24 L877.76,157.15 L878.86,157.01 L879.96,156.88 L881.07,156.78 L882.17,156.66 L883.27,156.56 L884.37,156.45 L885.48,156.34 L886.58,156.23 L887.68,156.12 L888.78,156.03 L889.88,155.93 L890.99,155.84 L892.09,155.72 L893.19,155.62 L894.29,155.53 L895.40,155.41 L896.50,155.31 L897.60,155.18 L898.70,155.05 L899.80,154.96 L900.91,154.87 L902.01,154.75 L903.11,154.67 L904.21,154.56 L905.32,154.45 L906.42,154.33 L907.52,154.24 L908.62,154.15 L909.72,154.03 L910.00,153.99" fill="none" stroke="#1f77b4" stroke-width="2"/>
<line x1="800" y1="36" x2="820" y2="36" stroke="#1f77b4" stroke-width="2"/>
<text x="825" y="40" font-size="12" fill="#1f77b4">baseline_student</text>
<path d="M50.00,115.62 L51.10,106.25 L52.20,110.94 L53.31,121.48 L54.41,125.00 L55.51,128.91 L56.61,125.67 L57.72,121.48 L58.82,116.67 L59.92,116.09 L61.02,113.07 L62.12,113.28 L63.23,110.94 L64.33,110.27 L65.43,108.44 L66.53,107.13 L67.64,106.53 L68.74,104.43 L69.84,102.55 L70.94,101.33 L72.04,100.67 L73.15,99.64 L74.25,98.91 L75.35,97.85 L76.45,97.81 L77.56,97.42 L78.66,96.35 L79.76,96.04 L80.86,95.42 L81.96,94.22 L83.07,94.15 L84.17,93.51 L85.27,92.90 L86.37,92.74 L87.48,92.19 L88.58,92.32 L89.68,92.44 L90.78,91.57 L91.88,91.35 L92.99,91.02 L94.09,90.24 L95.19,89.62 L96.29,89.46 L97.40,89.42 L98.50,88.75 L99.60,88.32 L100.70,88.10 L101.80,87.60 L102.91,87.50 L104.01,87.59 L105.11,87.13 L106.21,86.78 L107.31,86.53 L108.42,86.55 L109.52,86.39 L110.62,86.83 L111.72,86.68 L112.83,86.77 L113.93,86.39 L115.03,85.86 L116.13,85.50 L117.23,85.38 L118.34,85.34 L119.44,85.45 L120.54,85.55 L121.64,85.44 L122.75,85.05 L123.85,84.74 L124.95,84.65 L126.05,84.35 L127.15,84.20 L128.26,83.79 L129.36,83.58 L130.46,83.51 L131.56,83.44 L132.67,83.18 L133.77,83.06 L134.87,82.87 L135.97,82.63 L137.07,82.40 L138.18,82.12 L139.28,81.84 L140.38,81.57 L141.48,81.58 L142.59,81.43 L143.69,81.12 L144.79,80.82 L145.89,80.68 L146.99,80.50 L148.10,80.36 L149.20,80.08 L150.30,79.81 L151.40,79.69 L152.51,79.47 L153.61,79.46 L154.71,79.20 L155.81,79.14 L156.91,78.89 L158.02,78.88 L159.12,78.69 L160.22,78.40 L161.32,78.35 L162.43,78.17 L163.53,78.17 L164.63,77.99 L165.73,77.86 L166.83,77.86 L167.94,77.86 L169.04,77.65 L170.14,77.49 L171.24,77.28 L172.35,77.16 L173.45,76.96 L174.55,76.77 L175.65,76.54 L176.75,76.51 L177.86,76.36 L178.96,76.26 L180.06,76.04 L181.16,75.86 L182.27,75.76 L183.37,75.74 L184.47,75.65 L185.57,75.48 L186.67,75.50 L187.78,75.33 L188.88,75.21 L189.98,75.12 L191.08,75.15 L192.19,74.99 L193.29,74.87 L194.39,74.79 L195.49,74.67 L196.59,74.52 L197.70,74.38 L198.80,74.33 L199.90,74.29 L201.00,74.12 L202.11,73.98 L203.21,73.84 L204.31,73.77 L205.41,73.73 L206.51,73.73 L207.62,73.60 L208.72,73.47 L209.82,73.41 L210.92,73.31 L212.02,73.22 L213.13,73.09 L214.23,72.97 L215.33,72.88 L216.43,72.76 L217.54,72.73 L218.64,72.65 L219.74,72.56 L220.84,72.48 L221.94,73.71 L223.05,75.43 L224.15,77.12 L225.25,78.77 L226.35,80.43 L227.46,82.00 L228.56,83.53 L229.66,85.07 L230.76,86.62 L231.86,88.09 L232.97,89.55 L234.07,90.96 L235.17,92.41 L236.27,93.81 L237.38,95.23 L238.48,96.49 L239.58,97.80 L240.68,99.00 L241.78,100.01 L242.89,100.98 L243.99,101.91 L245.09,102.85 L246.19,103.55 L247.30,104.40 L248.40,105.45 L249.50,106.46 L250.60,107.68 L251.70,108.87 L252.81,109.97 L253.91,111.06 L255.01,112.09 L256.11,113.16 L257.22,114.19 L258.32,115.25 L259.42,116.26 L260.52,117.21 L261.62,117.98 L262.73,118.60 L263.83,119.16 L264.93,119.74 L266.03,120.19 L267.14,120.60 L268.24,121.14 L269.34,121.72 L270.44,122.20 L271.54,122.68 L272.65,123.34 L273.75,123.81 L274.85,124.25 L275.95,124.70 L277.06,125.25 L278.16,125.83 L279.26,126.26 L280.36,126.61 L281.46,127.09 L282.57,127.43 L283.67,127.66 L284.77,127.98 L285.87,128.31 L286.98,128.82 L288.08,129.26 L289.18,129.45 L290.28,129.90 L291.38,130.24 L292.49,130.58 L293.59,130.93 L294.69,131.26 L295.79,131.47 L296.90,131.56 L298.00,131.70 L299.10,131.88 L300.20,132.11 L301.30,132.25 L302.41,132.38 L303.51,132.41 L304.61,132.33 L305.71,132.42 L306.82,132.35 L307.92,132.30 L309.02,132.27 L310.12,132.56 L311.22,132.60 L312.33,132.71 L313.43,132.71 L314.53,132.76 L315.63,132.83 L316.74,132.89 L317.84,132.82 L318.94,132.86 L320.04,133.04 L321.14,133.10 L322.25,133.26 L323.35,133.34 L324.45,133.55 L325.55,133.72 L326.65,134.02 L327.76,134.28 L328.86,134.52 L329.96,134.71 L331.06,135.03 L332.17,135.23 L333.27,135.36 L334.37,135.55 L335.47,135.49 L336.57,135.49 L337.68,135.61 L338.78,135.53 L339.88,135.49 L340.98,135.29 L342.09,135.06 L343.19,134.90 L344.29,134.71 L345.39,134.50 L346.49,134.29 L347.60,134.03 L348.70,133.88 L349.80,133.69 L350.90,133.50 L352.01,133.30 L353.11,133.10 L354.21,132.92 L355.31,132.72 L356.41,132.49 L357.52,132.27 L358.62,132.07 L359.72,131.90 L360.82,131.66 L361.93,131.45 L363.03,131.37 L364.13,131.23 L365.23,130.95 L366.33,130.73 L367.44,130.58 L368.54,130.40 L369.64,130.20 L370.74,129.94 L371.85,129.75 L372.95,129.64 L374.05,129.43 L375.15,129.23 L376.25,129.06 L377.36,128.85 L378.46,128.62 L379.56,128.44 L380.66,128.19 L381.77,128.00 L382.87,127.82 L383.97,127.59 L385.07,127.43 L386.17,127.30 L387.28,127.15 L388.38,126.92 L389.48,126.79 L390.58,126.62 L391.69,126.42 L392.79,126.20 L393.89,126.44 L394.99,126.85 L396.09,127.22 L397.20,127.68 L398.30,128.09 L399.40,128.52 L400.50,129.00 L401.61,129.41 L402.71,129.88 L403.81,130.31 L404.91,130.73 L406.01,131.06 L407.12,131.55 L408.22,131.99 L409.32,132.34 L410.42,132.69 L411.53,132.99 L412.63,133.37 L413.73,133.74 L414.83,134.08 L415.93,134.46 L417.04,134.81 L418.14,135.12 L419.24,135.39 L420.34,135.74 L421.45,135.96 L422.55,136.21 L423.65,136.53 L424.75,136.79 L425.85,137.12 L426.96,137.35 L428.06,137.56 L429.16,137.85 L430.26,138.10 L431.36,138.41 L432.47,138.63 L433.57,138.83 L434.67,139.01 L435.77,139.17 L436.88,139.36 L437.98,139.49 L439.08,139.59 L440.18,139.70 L441.28,139.80 L442.39,139.94 L443.49,139.99 L444.59,140.20 L445.69,140.38 L446.80,140.50 L447.90,140.64 L449.00,140.70 L450.10,140.85 L451.20,140.98 L452.31,141.09 L453.41,141.23 L454.51,141.33 L455.61,141.49 L456.72,141.61 L457.82,141.73 L458.92,141.83 L460.02,141.92 L461.12,141.96 L462.23,142.09 L463.33,142.23 L464.43,142.28 L465.53,142.37 L466.64,142.48 L467.74,142.53 L468.84,142.62 L469.94,142.73 L471.04,142.82 L472.15,142.83 L473.25,142.82 L474.35,142.85 L475.45,142.90 L476.56,142.96 L477.66,142.97 L478.76,142.96 L479.86,142.93 L480.96,142.94 L482.07,142.95 L483.17,142.98 L484.27,142.85 L485.37,142.77 L486.48,142.71 L487.58,142.63 L488.68,142.59 L489.78,142.46 L490.88,142.43 L491.99,142.46 L493.09,142.38 L494.19,142.30 L495.29,142.20 L496.40,142.15 L497.50,142.02 L498.60,141.93 L499.70,141.86 L500.80,141.82 L501.91,141.75 L503.01,141.76 L504.11,141.72 L505.21,141.60 L506.32,141.54 L507.42,141.43 L508.52,141.34 L509.62,141.24 L510.72,141.12 L511.83,141.03 L512.93,140.94 L514.03,140.94 L515.13,140.84 L516.24,140.75 L517.34,140.69 L518.44,140.62 L519.54,140.54 L520.64,140.45 L521.75,140.38 L522.85,140.32 L523.95,140.25 L525.05,140.14 L526.16,140.06 L527.26,140.00 L528.36,139.86 L529.46,139.75 L530.56,139.67 L531.67,139.64 L532.77,139.55 L533.87,139.46 L534.97,139.36 L536.07,139.24 L537.18,139.14 L538.28,139.03 L539.38,138.98 L540.48,138.92 L541.59,138.83 L542.69,138.77 L543.79,138.80 L544.89,138.70 L545.99,138.64 L547.10,138.56 L548.20,138.49 L549.30,138.44 L550.40,138.37 L551.51,138.28 L552.61,138.21 L553.71,138.14 L554.81,138.10 L555.91,138.05 L557.02,137.96 L558.12,137.93 L559.22,137.86 L560.32,137.80 L561.43,137.71 L562.53,137.60 L563.63,137.55 L564.73,137.42 L565.83,137.42 L566.94,137.79 L568.04,138.10 L569.14,138.47 L570.24,138.79 L571.35,139.12 L572.45,139.49 L573.55,139.77 L574.65,140.08 L575.75,140.42 L576.86,140.72 L577.96,141.00 L579.06,141.28 L580.16,141.57 L581.27,141.88 L582.37,142.20 L583.47,142.56 L584.57,142.88 L585.67,143.22 L586.78,143.55 L587.88,143.82 L588.98,144.13 L590.08,144.39 L591.19,144.60 L592.29,144.85 L593.39,145.14 L594.49,145.36 L595.59,145.64 L596.70,145.90 L597.80,146.23 L598.90,146.54 L600.00,146.82 L601.11,147.08 L602.21,147.36 L603.31,147.62 L604.41,147.88 L605.51,148.07 L606.62,148.30 L607.72,148.51 L608.82,148.76 L609.92,149.00 L611.03,149.31 L612.13,149.50 L613.23,149.70 L614.33,149.95 L615.43,150.17 L616.54,150.39 L617.64,150.49 L618.74,150.69 L619.84,150.88 L620.95,151.07 L622.05,151.26 L623.15,151.43 L624.25,151.54 L625.35,151.67 L626.46,151.82 L627.56,151.95 L628.66,152.05 L629.76,152.16 L630.87,152.33 L631.97,152.44 L633.07,152.65 L634.17,152.82 L635.27,152.99 L636.38,153.14 L637.48,153.26 L638.58,153.43 L639.68,153.52 L640.79,153.60 L641.89,153.67 L642.99,153.75 L644.09,153.79 L645.19,153.84 L646.30,153.92 L647.40,154.01 L648.50,154.08 L649.60,154.15 L650.70,154.17 L651.81,154.20 L652.91,154.29 L654.01,154.28 L655.11,154.31 L656.22,154.32 L657.32,154.35 L658.42,154.40 L659.52,154.40 L660.62,154.47 L661.73,154.51 L662.83,154.50 L663.93,154.53 L665.03,154.53 L666.14,154.54 L667.24,154.60 L668.34,154.63 L669.44,154.68 L670.54,154.70 L671.65,154.69 L672.75,154.77 L673.85,154.79 L674.95,154.83 L676.06,154.86 L677.16,154.88 L678.26,154.92 L679.36,154.94 L680.46,154.99 L681.57,155.02 L682.67,155.11 L683.77,155.13 L684.87,155.19 L685.98,155.25 L687.08,155.26 L688.18,155.30 L689.28,155.38 L690.38,155.42 L691.49,155.45 L692.59,155.46 L693.69,155.54 L694.79,155.60 L695.90,155.66 L697.00,155.72 L698.10,155.75 L699.20,155.80 L700.30,155.81 L701.41,155.83 L702.51,155.80 L703.61,155.79 L704.71,155.76 L705.82,155.69 L706.92,155.61 L708.02,155.55 L709.12,155.47 L710.22,155.37 L711.33,155.29 L712.43,155.23 L713.53,155.16 L714.63,155.14 L715.74,155.09 L716.84,155.00 L717.94,154.93 L719.04,154.92 L720.14,154.84 L721.25,154.85 L722.35,154.78 L723.45,154.79 L724.55,154.77 L725.66,154.82 L726.76,154.83 L727.86,154.78 L728.96,154.80 L730.06,154.79 L731.17,154.72 L732.27,154.71 L733.37,154.66 L734.47,154.64 L735.58,154.56 L736.68,154.51 L737.78,154.39 L738.88,154.56 L739.98,154.75 L741.09,154.98 L742.19,155.17 L743.29,155.40 L744.39,155.58 L745.50,155.77 L746.60,155.96 L747.70,156.14 L748.80,156.30 L749.90,156.39 L751.01,156.57 L752.11,156.71 L753.21,156.86 L754.31,156.98 L755.41,157.07 L756.52,157.10 L757.62,157.24 L758.72,157.28 L759.82,157.30 L760.93,157.36 L762.03,157.46 L763.13,157.50 L764.23,157.54 L765.33,157.61 L766.44,157.70 L767.54,157.78 L768.64,157.81 L769.74,157.85 L770.85,157.85 L771.95,157.88 L773.05,157.94 L774.15,158.01 L775.25,158.01 L776.36,158.08 L777.46,158.10 L778.56,158.15 L779.66,158.16 L780.77,158.17 L781.87,158.24 L782.97,158.27 L784.07,158.35 L785.17,158.39 L786.28,158.42 L787.38,158.41 L788.48,158.48 L789.58,158.50 L790.69,158.56 L791.79,158.55 L792.89,158.59 L793.99,158.65 L795.09,158.69 L796.20,158.75 L797.30,158.77 L798.40,158.84 L799.50,158.93 L800.61,158.97 L801.71,159.05 L802.81,159.06 L803.91,159.11 L805.01,159.12 L806.12,159.10 L807.22,159.06 L808.32,159.08 L809.42,159.09 L810.53,159.07 L811.63,159.07 L812.73,159.12 L813.83,159.18 L814.93,159.20 L816.04,159.23 L817.14,159.33 L818.24,159.36 L819.34,159.43 L820.45,159.47 L821.55,159.54 L822.65,159.56 L823.75,159.59 L824.85,159.56 L825.96,159.51 L827.06,159.49 L828.16,159.48 L829.26,159.45 L830.37,159.39 L831.47,159.32 L832.57,159.24 L833.67,159.14 L834.77,159.09 L835.88,159.01 L836.98,158.98 L838.08,158.90 L839.18,158.79 L840.29,158.73 L841.39,158.65 L842.49,158.57 L843.59,158.49 L844.69,158.41 L845.80,158.34 L846.90,158.30 L848.00,158.18 L849.10,158.12 L850.21,158.06 L851.31,157.97 L852.41,157.86 L853.51,157.77 L854.61,157.70 L855.72,157.61 L856.82,157.53 L857.92,157.45 L859.02,157.35 L860.12,157.28 L861.23,157.20 L862.33,157.08 L863.43,156.98 L864.53,156.92 L865.64,156.81 L866.74,156.71 L867.84,156.59 L868.94,156.49 L870.04,156.39 L871.15,156.31 L872.25,156.21 L873.35,156.11 L874.45,156.02 L875.56,155.93 L876.66,155.83 L877.76,155.73 L878.86,155.61 L879.96,155.48 L881.07,155.35 L882.17,155.26 L883.27,155.16 L884.37,155.09 L885.48,154.96 L886.58,154.86 L887.68,154.74 L888.78,154.63 L889.88,154.51 L890.99,154.40 L892.09,154.28 L893.19,154.17 L894.29,154.08 L895.40,153.96 L896.50,153.87 L897.60,153.74 L898.70,153.62 L899.80,153.53 L900.91,153.41 L902.01,153.30 L903.11,153.20 L904.21,153.12 L905.32,153.04 L906.42,152.96 L907.52,152.86 L908.62,152.75 L909.72,152.63 L910.00,152.60" fill="none" stroke="#ff7f0e" stroke-width="2"/>
<line x1="800" y1="56" x2="820" y2="56" stroke="#ff7f0e" stroke-width="2"/>
<text x="825" y="60" font-size="12" fill="#ff7f0e">mean_teacher</text>
<path d="M50.00,162.50 L51.10,178.91 L52.20,170.31 L53.31,176.56 L54.41,175.62 L55.51,178.12 L56.61,172.54 L57.72,165.43 L58.82,157.29 L59.92,153.12 L61.02,148.86 L62.12,144.53 L63.23,140.50 L64.33,137.72 L65.43,134.38 L66.53,131.74 L67.64,129.41 L68.74,126.30 L69.84,124.01 L70.94,121.95 L72.04,120.31 L73.15,118.39 L74.25,116.64 L75.35,115.23 L76.45,114.12 L77.56,112.92 L78.66,111.11 L79.76,110.10 L80.86,109.64 L81.96,108.44 L83.07,107.46 L84.17,106.25 L85.27,105.68 L86.37,105.42 L87.48,104.51 L88.58,104.95 L89.68,104.73 L90.78,103.41 L91.88,102.64 L92.99,101.80 L94.09,100.99 L95.19,100.11 L96.29,99.38 L97.40,98.37 L98.50,97.60 L99.60,96.98 L100.70,96.48 L101.80,96.00 L102.91,95.54 L104.01,95.19 L105.11,94.49 L106.21,93.90 L107.31,93.16 L108.42,92.53 L109.52,92.02 L110.62,91.94 L111.72,91.61 L112.83,91.54 L113.93,91.15 L115.03,90.62 L116.13,90.04 L117.23,89.47 L118.34,88.99 L119.44,88.89 L120.54,88.80 L121.64,88.57 L122.75,88.34 L123.85,88.12 L124.95,87.98 L126.05,87.50 L127.15,87.30 L128.26,87.11 L129.36,86.92 L130.46,86.99 L131.56,86.75 L132.67,86.45 L133.77,85.98 L134.87,85.70 L135.97,85.54 L137.07,85.21 L138.18,84.90 L139.28,84.64 L140.38,84.22 L141.48,83.87 L142.59,83.53 L143.69,83.19 L144.79,82.87 L145.89,82.60 L146.99,82.44 L148.10,82.29 L149.20,81.94 L150.30,81.79 L151.40,81.60 L152.51,81.62 L153.61,81.38 L154.71,81.15 L155.81,80.98 L156.91,80.71 L158.02,80.59 L159.12,80.42 L160.22,80.21 L161.32,80.01 L162.43,79.99 L163.53,79.93 L164.63,79.82 L165.73,79.63 L166.83,79.66 L167.94,79.51 L169.04,79.29 L170.14,79.11 L171.24,78.89 L172.35,78.63 L173.45,78.42 L174.55,78.21 L175.65,78.00 L176.75,77.92 L177.86,77.72 L178.96,77.69 L180.06,77.69 L181.16,77.62 L182.27,77.54 L183.37,77.36 L184.47,77.13 L185.57,76.95 L186.67,76.85 L187.78,76.75 L188.88,76.61 L189.98,76.48 L191.08,76.45 L192.19,76.25 L193.29,76.09 L194.39,76.03 L195.49,75.94 L196.59,75.82 L197.70,75.76 L198.80,75.64 L199.90,75.52 L201.00,75.34 L202.11,75.26 L203.21,75.15 L204.31,75.20 L205.41,75.25 L206.51,75.17 L207.62,75.10 L208.72,75.02 L209.82,74.91 L210.92,74.87 L212.02,74.93 L213.13,74.82 L214.23,74.72 L215.33,74.62 L216.43,74.46 L217.54,74.36 L218.64,74.32 L219.74,74.16 L220.84,74.07 L221.94,75.35 L223.05,77.00 L224.15,78.69 L225.25,80.29 L226.35,81.94 L227.46,83.56 L228.56,85.20 L229.66,86.76 L230.76,88.27 L231.86,89.70 L232.97,91.09 L234.07,92.49 L235.17,93.82 L236.27,95.08 L237.38,96.30 L238.48,97.50 L239.58,98.64 L240.68,99.70 L241.78,100.57 L242.89,101.54 L243.99,102.52 L245.09,103.48 L246.19,104.34 L247.30,105.31 L248.40,106.33 L249.50,107.43 L250.60,108.45 L251.70,109.71 L252.81,110.94 L253.91,112.00 L255.01,113.19 L256.11,114.33 L257.22,115.43 L258.32,116.37 L259.42,117.32 L260.52,118.16 L261.62,118.86 L262.73,119.39 L263.83,119.78 L264.93,120.15 L266.03,120.41 L267.14,120.74 L268.24,121.14 L269.34,121.55 L270.44,121.81 L271.54,122.12 L272.65,122.53 L273.75,122.86 L274.85,123.12 L275.95,123.50 L277.06,123.80 L278.16,124.10 L279.26,124.42 L280.36,124.75 L281.46,125.18 L282.57,125.40 L283.67,125.59 L284.77,125.88 L285.87,126.18 L286.98,126.67 L288.08,127.14 L289.18,127.45 L290.28,128.02 L291.38,128.49 L292.49,129.16 L293.59,129.67 L294.69,130.17 L295.79,130.84 L296.90,131.54 L298.00,132.11 L299.10,132.68 L300.20,133.31 L301.30,133.86 L302.41,134.42 L303.51,134.78 L304.61,135.04 L305.71,135.36 L306.82,135.70 L307.92,135.93 L309.02,136.10 L310.12,136.43 L311.22,136.70 L312.33,136.85 L313.43,137.05 L314.53,137.31 L315.63,137.49 L316.74,137.71 L317.84,137.83 L318.94,137.99 L320.04,138.32 L321.14,138.46 L322.25,138.63 L323.35,138.72 L324.45,138.95 L325.55,139.12 L326.65,139.43 L327.76,139.67 L328.86,139.89 L329.96,140.06 L331.06,140.36 L332.17,140.56 L333.27,140.68 L334.37,140.87 L335.47,140.92 L336.57,141.04 L337.68,141.33 L338.78,141.49 L339.88,141.64 L340.98,141.65 L342.09,141.62 L343.19,141.47 L344.29,141.39 L345.39,141.24 L346.49,141.08 L347.60,140.91 L348.70,140.85 L349.80,140.78 L350.90,140.65 L352.01,140.49 L353.11,140.32 L354.21,140.15 L355.31,139.96 L356.41,139.80 L357.52,139.61 L358.62,139.45 L359.72,139.25 L360.82,138.96 L361.93,138.77 L363.03,138.57 L364.13,138.44 L365.23,138.21 L366.33,138.02 L367.44,137.86 L368.54,137.75 L369.64,137.50 L370.74,137.30 L371.85,137.09 L372.95,136.94 L374.05,136.71 L375.15,136.59 L376.25,136.46 L377.36,136.29 L378.46,136.07 L379.56,135.92 L380.66,135.71 L381.77,135.51 L382.87,135.35 L383.97,135.18 L385.07,135.01 L386.17,134.87 L387.28,134.74 L388.38,134.54 L389.48,134.47 L390.58,134.25 L391.69,134.07 L392.79,133.88 L393.89,134.02 L394.99,134.43 L396.09,134.76 L397.20,135.19 L398.30,135.56 L399.40,135.97 L400.50,136.45 L401.61,136.88 L402.71,137.28 L403.81,137.71 L404.91,138.12 L406.01,138.43 L407.12,138.89 L408.22,139.39 L409.32,139.71 L410.42,140.11 L411.53,140.42 L412.63,140.77 L413.73,141.14 L414.83,141.58 L415.93,141.91 L417.04,142.35 L418.14,142.63 L419.24,142.97 L420.34,143.32 L421.45,143.56 L422.55,143.81 L423.65,144.08 L424.75,144.40 L425.85,144.57 L426.96,144.80 L428.06,145.13 L429.16,145.31 L430.26,145.57 L431.36,145.88 L432.47,146.15 L433.57,146.33 L434.67,146.58 L435.77,146.74 L436.88,146.96 L437.98,147.20 L439.08,147.34 L440.18,147.42 L441.28,147.50 L442.39,147.66 L443.49,147.80 L444.59,147.98 L445.69,148.11 L446.80,148.23 L447.90,148.35 L449.00,148.39 L450.10,148.51 L451.20,148.62 L452.31,148.72 L453.41,148.85 L454.51,148.92 L455.61,149.06 L456.72,149.16 L457.82,149.26 L458.92,149.34 L460.02,149.41 L461.12,149.43 L462.23,149.54 L463.33,149.66 L464.43,149.69 L465.53,149.76 L466.64,149.87 L467.74,149.93 L468.84,150.04 L469.94,150.17 L471.04,150.26 L472.15,150.28 L473.25,150.34 L474.35,150.43 L475.45,150.57 L476.56,150.71 L477.66,150.71 L478.76,150.66 L479.86,150.61 L480.96,150.51 L482.07,150.52 L483.17,150.45 L484.27,150.31 L485.37,150.21 L486.48,150.14 L487.58,150.00 L488.68,149.87 L489.78,149.76 L490.88,149.64 L491.99,149.57 L493.09,149.44 L494.19,149.37 L495.29,149.25 L496.40,149.20 L497.50,149.08 L498.60,149.00 L499.70,148.96 L500.80,148.94 L501.91,148.91 L503.01,148.96 L504.11,148.95 L505.21,148.87 L506.32,148.84 L507.42,148.74 L508.52,148.64 L509.62,148.54 L510.72,148.43 L511.83,148.35 L512.93,148.25 L514.03,148.15 L515.13,148.02 L516.24,147.90 L517.34,147.82 L518.44,147.77 L519.54,147.65 L520.64,147.53 L521.75,147.43 L522.85,147.36 L523.95,147.23 L525.05,147.12 L526.16,147.05 L527.26,146.99 L528.36,146.88 L529.46,146.79 L530.56,146.74 L531.67,146.68 L532.77,146.56 L533.87,146.43 L534.97,146.30 L536.07,146.17 L537.18,146.05 L538.28,145.92 L539.38,145.78 L540.48,145.73 L541.59,145.65 L542.69,145.54 L543.79,145.46 L544.89,145.36 L545.99,145.28 L547.10,145.17 L548.20,145.07 L549.30,145.00 L550.40,144.89 L551.51,144.81 L552.61,144.69 L553.71,144.60 L554.81,144.51 L555.91,144.41 L557.02,144.29 L558.12,144.24 L559.22,144.14 L560.32,144.04 L561.43,143.94 L562.53,143.82 L563.63,143.73 L564.73,143.60 L565.83,143.58 L566.94,143.96 L568.04,144.30 L569.14,144.63 L570.24,144.94 L571.35,145.25 L572.45,145.61 L573.55,145.87 L574.65,146.17 L575.75,146.48 L576.86,146.80 L577.96,147.10 L579.06,147.40 L580.16,147.71 L581.27,148.05 L582.37,148.38 L583.47,148.72 L584.57,149.02 L585.67,149.26 L586.78,149.49 L587.88,149.72 L588.98,150.01 L590.08,150.29 L591.19,150.49 L592.29,150.73 L593.39,150.93 L594.49,151.17 L595.59,151.48 L596.70,151.77 L597.80,152.06 L598.90,152.31 L600.00,152.55 L601.11,152.78 L602.21,153.03 L603.31,153.22 L604.41,153.42 L605.51,153.61 L606.62,153.79 L607.72,153.99 L608.82,154.18 L609.92,154.39 L611.03,154.60 L612.13,154.79 L613.23,154.94 L614.33,155.13 L615.43,155.28 L616.54,155.44 L617.64,155.59 L618.74,155.76 L619.84,155.94 L620.95,156.11 L622.05,156.28 L623.15,156.44 L624.25,156.53 L625.35,156.66 L626.46,156.79 L627.56,156.90 L628.66,157.00 L629.76,157.13 L630.87,157.24 L631.97,157.32 L633.07,157.44 L634.17,157.56 L635.27,157.65 L636.38,157.74 L637.48,157.83 L638.58,157.92 L639.68,157.94 L640.79,157.97 L641.89,157.99 L642.99,158.07 L644.09,158.04 L645.19,158.05 L646.30,158.07 L647.40,158.16 L648.50,158.19 L649.60,158.23 L650.70,158.19 L651.81,158.19 L652.91,158.25 L654.01,158.22 L655.11,158.26 L656.22,158.24 L657.32,158.24 L658.42,158.29 L659.52,158.24 L660.62,158.31 L661.73,158.33 L662.83,158.30 L663.93,158.31 L665.03,158.29 L666.14,158.26 L667.24,158.31 L668.34,158.30 L669.44,158.35 L670.54,158.35 L671.65,158.33 L672.75,158.38 L673.85,158.37 L674.95,158.37 L676.06,158.39 L677.16,158.41 L678.26,158.43 L679.36,158.44 L680.46,158.47 L681.57,158.44 L682.67,158.51 L683.77,158.54 L684.87,158.58 L685.98,158.62 L687.08,158.62 L688.18,158.64 L689.28,158.70 L690.38,158.70 L691.49,158.69 L692.59,158.70 L693.69,158.75 L694.79,158.74 L695.90,158.76 L697.00,158.81 L698.10,158.78 L699.20,158.73 L700.30,158.71 L701.41,158.68 L702.51,158.61 L703.61,158.55 L704.71,158.47 L705.82,158.42 L706.92,158.39 L708.02,158.31 L709.12,158.21 L710.22,158.09 L711.33,158.02 L712.43,157.98 L713.53,157.96 L714.63,157.92 L715.74,157.87 L716.84,157.81 L717.94,157.76 L719.04,157.70 L720.14,157.64 L721.25,157.59 L722.35,157.53 L723.45,157.53 L724.55,157.54 L725.66,157.49 L726.76,157.49 L727.86,157.44 L728.96,157.36 L730.06,157.30 L731.17,157.24 L732.27,157.20 L733.37,157.16 L734.47,157.15 L735.58,157.08 L736.68,157.02 L737.78,156.91 L738.88,157.12 L739.98,157.35 L741.09,157.57 L742.19,157.77 L743.29,158.00 L744.39,158.17 L745.50,158.37 L746.60,158.58 L747.70,158.74 L748.80,158.93 L749.90,159.05 L751.01,159.25 L752.11,159.40 L753.21,159.57 L754.31,159.72 L755.41,159.87 L756.52,159.92 L757.62,160.09 L758.72,160.16 L759.82,160.24 L760.93,160.30 L762.03,160.41 L763.13,160.45 L764.23,160.48 L765.33,160.55 L766.44,160.65 L767.54,160.72 L768.64,160.75 L769.74,160.79 L770.85,160.79 L771.95,160.83 L773.05,160.88 L774.15,160.95 L775.25,160.94 L776.36,161.02 L777.46,161.04 L778.56,161.09 L779.66,161.09 L780.77,161.11 L781.87,161.18 L782.97,161.21 L784.07,161.30 L785.17,161.35 L786.28,161.41 L787.38,161.41 L788.48,161.46 L789.58,161.48 L790.69,161.55 L791.79,161.51 L792.89,161.52 L793.99,161.56 L795.09,161.57 L796.20,161.61 L797.30,161.62 L798.40,161.66 L799.50,161.69 L800.61,161.70 L801.71,161.70 L802.81,161.66 L803.91,161.64 L805.01,161.58 L806.12,161.54 L807.22,161.50 L808.32,161.47 L809.42,161.43 L810.53,161.35 L811.63,161.28 L812.73,161.26 L813.83,161.23 L814.93,161.16 L816.04,161.10 L817.14,161.11 L818.24,161.06 L819.34,161.03 L820.45,160.97 L821.55,160.98 L822.65,160.86 L823.75,160.79 L824.85,160.69 L825.96,160.59 L827.06,160.51 L828.16,160.39 L829.26,160.28 L830.37,160.18 L831.47,160.08 L832.57,159.95 L833.67,159.81 L834.77,159.71 L835.88,159.63 L836.98,159.54 L838.08,159.43 L839.18,159.34 L840.29,159.22 L841.39,159.13 L842.49,159.03 L843.59,158.94 L844.69,158.83 L845.80,158.73 L846.90,158.66 L848.00,158.54 L849.10,158.44 L850.21,158.34 L851.31,158.23 L852.41,158.11 L853.51,157.99 L854.61,157.90 L855.72,157.76 L856.82,157.63 L857.92,157.53 L859.02,157.40 L860.12,157.30 L861.23,157.20 L862.33,157.09 L863.43,156.98 L864.53,156.88 L865.64,156.78 L866.74,156.67 L867.84,156.54 L868.94,156.42 L870.04,156.31 L871.15,156.21 L872.25,156.08 L873.35,155.97 L874.45,155.87 L875.56,155.76 L876.66,155.65 L877.76,155.56 L878.86,155.42 L879.96,155.32 L881.07,155.21 L882.17,155.11 L883.27,155.00 L884.37,154.86 L885.48,154.76 L886.58,154.64 L887.68,154.54 L888.78,154.45 L889.88,154.33 L890.99,154.24 L892.09,154.11 L893.19,154.01 L894.29,153.91 L895.40,153.78 L896.50,153.69 L897.60,153.57 L898.70,153.46 L899.80,153.37 L900.91,153.26 L902.01,153.17 L903.11,153.06 L904.21,152.98 L905.32,152.88 L906.42,152.76 L907.52,152.65 L908.62,152.54 L909.72,152.42 L910.00,152.40" fill="none" stroke="#2ca02c" stroke-width="2"/>
<line x1="800" y1="76" x2="820" y2="76" stroke="#2ca02c" stroke-width="2"/>
<text x="825" y="80" font-size="12" fill="#2ca02c">ts_drift_adapt</text>
</svg>