<svg width="960" height="400" xmlns="http://www.w3.org/2000/svg">
<rect x="0" y="0" width="960" height="400" fill="#ffffff" stroke="#dddddd"/>
<line x1="50" y1="50" x2="50" y2="350" stroke="#444444"/>
<line x1="50" y1="350" x2="910" y2="350" stroke="#444444"/>
<text x="480.0" y="30" text-anchor="middle" font-size="18">INSECTS_abrupt_balanced Accuracy</text>
<path d="M50.00,307.81 L54.19,303.12 L58.37,296.48 L62.56,296.09 L66.75,296.80 L70.93,296.88 L75.12,295.76 L79.30,294.04 L83.49,292.32 L87.68,291.76 L91.86,291.30 L96.05,290.82 L100.24,290.87 L104.42,290.23 L108.61,289.06 L112.79,288.11 L116.98,288.37 L121.17,288.22 L125.35,288.08 L129.54,287.89 L133.73,287.61 L137.91,287.36 L142.10,286.97 L146.28,286.23 L150.47,286.44 L154.66,286.49 L158.84,286.07 L163.03,285.92 L167.22,285.39 L171.40,285.27 L175.59,284.68 L179.77,284.38 L183.96,284.38 L188.15,283.44 L192.33,283.04 L196.52,283.11 L200.71,282.47 L204.89,282.37 L209.08,281.97 L213.26,281.50 L217.45,281.20 L221.64,280.78 L225.82,280.61 L230.01,280.54 L234.20,280.49 L238.38,280.45 L242.57,280.26 L246.75,280.15 L250.94,279.90 L255.13,281.05 L259.31,282.40 L263.50,283.70 L267.69,284.95 L271.87,286.15 L276.06,287.32 L280.24,288.27 L284.43,288.45 L288.62,289.18 L292.80,290.14 L296.99,291.11 L301.18,292.08 L305.36,293.01 L309.55,293.90 L313.73,294.78 L317.92,295.61 L322.11,296.43 L326.29,297.23 L330.48,297.97 L334.67,298.57 L338.85,298.57 L343.04,297.41 L347.23,296.81 L351.41,296.27 L355.60,295.98 L359.78,295.59 L363.97,295.15 L368.16,294.89 L372.34,294.77 L376.53,294.80 L380.72,294.57 L384.90,294.46 L389.09,294.08 L393.27,293.52 L397.46,293.04 L401.65,292.61 L405.83,292.01 L410.02,291.62 L414.21,291.09 L418.39,290.47 L422.58,290.12 L426.76,289.77 L430.95,289.22 L435.14,288.73 L439.32,288.26 L443.51,287.79 L447.70,287.41 L451.88,287.19 L456.07,286.81 L460.25,286.17 L464.44,285.86 L468.63,285.44 L472.81,285.11 L477.00,284.75 L481.19,284.44 L485.37,284.03 L489.56,283.86 L493.74,283.59 L497.93,283.26 L502.12,282.90 L506.30,283.28 L510.49,283.76 L514.68,284.20 L518.86,284.67 L523.05,285.15 L527.23,285.61 L531.42,286.02 L535.61,286.48 L539.79,286.87 L543.98,287.31 L548.17,287.76 L552.35,288.11 L556.54,288.47 L560.72,288.91 L564.91,289.16 L569.10,289.39 L573.28,289.45 L577.47,289.26 L581.66,288.75 L585.84,288.16 L590.03,287.97 L594.21,288.07 L598.40,287.88 L602.59,287.83 L606.77,287.86 L610.96,287.90 L615.15,287.98 L619.33,287.95 L623.52,287.96 L627.70,287.87 L631.89,287.89 L636.08,287.92 L640.26,287.90 L644.45,287.87 L648.64,287.86 L652.82,287.92 L657.01,287.84 L661.20,287.78 L665.38,287.66 L669.57,287.65 L673.75,288.06 L677.94,288.46 L682.13,288.57 L686.31,288.53 L690.50,288.50 L694.69,288.46 L698.87,288.36 L703.06,288.27 L707.24,288.18 L711.43,288.13 L715.62,287.97 L719.80,287.91 L723.99,287.74 L728.18,287.60 L732.36,287.48 L736.55,287.32 L740.73,287.07 L744.92,286.87 L749.11,286.61 L753.29,286.29 L757.48,285.95 L761.67,285.78 L765.85,285.37 L770.04,285.15 L774.22,284.93 L778.41,284.71 L782.60,284.38 L786.78,284.12 L790.97,283.82 L795.16,283.56 L799.34,283.26 L803.53,282.98 L807.71,282.70 L811.90,282.69 L816.09,283.02 L820.27,283.31 L824.46,283.58 L828.65,283.84 L832.83,284.11 L837.02,284.33 L841.20,284.49 L845.39,284.65 L849.58,284.81 L853.76,284.94 L857.95,285.06 L862.14,285.05 L866.32,284.93 L870.51,284.70 L874.69,284.46 L878.88,284.17 L883.07,283.88 L887.25,283.54 L891.44,283.13 L895.63,282.76 L899.81,282.94 L904.00,283.27 L908.18,283.59 L910.00,283.73" fill="none" stroke="#1f77b4" stroke-width="2"/>
<text x="915" y="50" font-size="12" fill="#1f77b4">baseline_student</text>
<path d="M50.00,297.27 L54.19,293.16 L58.37,290.23 L62.56,291.41 L66.75,292.34 L70.93,292.77 L75.12,293.58 L79.30,292.29 L83.49,290.49 L87.68,288.83 L91.86,288.00 L96.05,287.99 L100.24,287.53 L104.42,287.72 L108.61,287.34 L112.79,287.45 L116.98,287.55 L121.17,287.11 L125.35,287.58 L129.54,287.42 L133.73,287.50 L137.91,287.41 L142.10,287.33 L146.28,287.21 L150.47,286.67 L154.66,286.63 L158.84,286.76 L163.03,286.89 L167.22,286.56 L171.40,286.52 L175.59,286.68 L179.77,286.54 L183.96,286.61 L188.15,286.51 L192.33,286.62 L196.52,287.01 L200.71,286.69 L204.89,286.90 L209.08,286.75 L213.26,286.66 L217.45,286.66 L221.64,286.44 L225.82,286.39 L230.01,286.37 L234.20,286.33 L238.38,286.34 L242.57,286.39 L246.75,286.47 L250.94,286.72 L255.13,287.61 L259.31,288.83 L263.50,290.01 L267.69,291.14 L271.87,292.23 L276.06,293.13 L280.24,292.79 L284.43,293.38 L288.62,294.30 L292.80,295.20 L296.99,296.11 L301.18,297.00 L305.36,297.85 L309.55,298.66 L313.73,299.46 L317.92,300.24 L322.11,300.99 L326.29,301.73 L330.48,302.37 L334.67,303.02 L338.85,302.97 L343.04,301.61 L347.23,300.67 L351.41,300.01 L355.60,299.29 L359.78,298.66 L363.97,297.81 L368.16,297.36 L372.34,297.31 L376.53,297.19 L380.72,297.05 L384.90,296.99 L389.09,296.88 L393.27,296.77 L397.46,296.64 L401.65,296.42 L405.83,296.15 L410.02,295.97 L414.21,295.51 L418.39,295.04 L422.58,294.74 L426.76,294.41 L430.95,293.98 L435.14,293.51 L439.32,293.15 L443.51,292.75 L447.70,292.53 L451.88,292.16 L456.07,291.87 L460.25,291.43 L464.44,291.27 L468.63,290.88 L472.81,290.58 L477.00,290.25 L481.19,289.96 L485.37,289.70 L489.56,289.45 L493.74,289.18 L497.93,288.87 L502.12,288.49 L506.30,288.89 L510.49,289.38 L514.68,289.76 L518.86,290.22 L523.05,290.64 L527.23,291.07 L531.42,291.46 L535.61,291.89 L539.79,292.26 L543.98,292.61 L548.17,292.93 L552.35,293.29 L556.54,293.54 L560.72,293.79 L564.91,294.04 L569.10,294.08 L573.28,293.91 L577.47,293.61 L581.66,293.15 L585.84,292.54 L590.03,292.46 L594.21,292.55 L598.40,292.47 L602.59,292.41 L606.77,292.44 L610.96,292.56 L615.15,292.68 L619.33,292.77 L623.52,292.71 L627.70,292.62 L631.89,292.56 L636.08,292.56 L640.26,292.53 L644.45,292.52 L648.64,292.46 L652.82,292.46 L657.01,292.48 L661.20,292.50 L665.38,292.36 L669.57,292.35 L673.75,292.73 L677.94,293.11 L682.13,293.22 L686.31,293.21 L690.50,293.21 L694.69,293.11 L698.87,292.94 L703.06,292.76 L707.24,292.53 L711.43,292.33 L715.62,292.12 L719.80,291.97 L723.99,291.74 L728.18,291.57 L732.36,291.43 L736.55,291.19 L740.73,290.98 L744.92,290.78 L749.11,290.57 L753.29,290.32 L757.48,290.07 L761.67,289.89 L765.85,289.59 L770.04,289.51 L774.22,289.33 L778.41,289.12 L782.60,288.94 L786.78,288.82 L790.97,288.61 L795.16,288.45 L799.34,288.19 L803.53,288.05 L807.71,287.89 L811.90,287.89 L816.09,288.23 L820.27,288.56 L824.46,288.89 L828.65,289.22 L832.83,289.54 L837.02,289.86 L841.20,290.16 L845.39,290.42 L849.58,290.66 L853.76,290.83 L857.95,290.97 L862.14,291.04 L866.32,290.96 L870.51,290.76 L874.69,290.49 L878.88,290.23 L883.07,289.99 L887.25,289.66 L891.44,289.27 L895.63,288.87 L899.81,289.03 L904.00,289.33 L908.18,289.63 L910.00,289.75" fill="none" stroke="#ff7f0e" stroke-width="2"/>
<text x="915" y="70" font-size="12" fill="#ff7f0e">mean_teacher</text>
<path d="M50.00,300.78 L54.19,304.30 L58.37,303.52 L62.56,301.37 L66.75,300.31 L70.93,299.80 L75.12,299.94 L79.30,298.14 L83.49,297.01 L87.68,296.09 L91.86,296.52 L96.05,296.09 L100.24,294.20 L104.42,294.17 L108.61,293.59 L112.79,293.02 L116.98,291.89 L121.17,291.15 L125.35,291.16 L129.54,290.59 L133.73,290.68 L137.91,290.29 L142.10,290.23 L146.28,290.04 L150.47,290.23 L154.66,290.69 L158.84,290.41 L163.03,289.90 L167.22,289.71 L171.40,289.14 L175.59,289.21 L179.77,289.17 L183.96,289.38 L188.15,288.96 L192.33,288.29 L196.52,287.73 L200.71,287.48 L204.89,287.55 L209.08,287.38 L213.26,287.10 L217.45,287.03 L221.64,286.89 L225.82,286.58 L230.01,286.32 L234.20,286.22 L238.38,286.13 L242.57,286.07 L246.75,286.04 L250.94,285.21 L255.13,286.06 L259.31,287.32 L263.50,288.52 L267.69,289.68 L271.87,290.80 L276.06,291.88 L280.24,292.54 L284.43,292.72 L288.62,293.55 L292.80,294.33 L296.99,295.23 L301.18,296.13 L305.36,297.00 L309.55,297.82 L313.73,298.62 L317.92,299.39 L322.11,300.16 L326.29,300.90 L330.48,301.61 L334.67,302.22 L338.85,302.17 L343.04,300.67 L347.23,299.61 L351.41,298.69 L355.60,297.84 L359.78,297.09 L363.97,296.11 L368.16,295.68 L372.34,295.58 L376.53,295.53 L380.72,295.43 L384.90,295.49 L389.09,295.26 L393.27,295.02 L397.46,294.80 L401.65,294.47 L405.83,293.95 L410.02,293.74 L414.21,293.08 L418.39,292.54 L422.58,292.16 L426.76,291.84 L430.95,291.30 L435.14,290.61 L439.32,290.17 L443.51,289.95 L447.70,289.65 L451.88,289.20 L456.07,288.69 L460.25,288.19 L464.44,287.77 L468.63,287.38 L472.81,286.98 L477.00,286.66 L481.19,286.31 L485.37,286.05 L489.56,285.77 L493.74,285.50 L497.93,285.12 L502.12,284.67 L506.30,285.05 L510.49,285.52 L514.68,285.92 L518.86,286.39 L523.05,286.85 L527.23,287.31 L531.42,287.73 L535.61,288.11 L539.79,288.51 L543.98,288.87 L548.17,289.21 L552.35,289.55 L556.54,289.87 L560.72,290.24 L564.91,290.45 L569.10,290.68 L573.28,290.62 L577.47,290.25 L581.66,289.78 L585.84,289.20 L590.03,289.13 L594.21,289.21 L598.40,289.15 L602.59,289.12 L606.77,289.17 L610.96,289.24 L615.15,289.38 L619.33,289.43 L623.52,289.50 L627.70,289.41 L631.89,289.41 L636.08,289.49 L640.26,289.47 L644.45,289.41 L648.64,289.38 L652.82,289.42 L657.01,289.36 L661.20,289.38 L665.38,289.31 L669.57,289.34 L673.75,289.74 L677.94,290.14 L682.13,290.25 L686.31,290.21 L690.50,290.17 L694.69,290.09 L698.87,290.00 L703.06,289.85 L707.24,289.65 L711.43,289.53 L715.62,289.36 L719.80,289.26 L723.99,289.06 L728.18,288.88 L732.36,288.68 L736.55,288.47 L740.73,288.24 L744.92,288.09 L749.11,287.81 L753.29,287.59 L757.48,287.31 L761.67,287.10 L765.85,286.74 L770.04,286.69 L774.22,286.52 L778.41,286.30 L782.60,286.01 L786.78,285.77 L790.97,285.45 L795.16,285.23 L799.34,284.91 L803.53,284.72 L807.71,284.53 L811.90,284.57 L816.09,284.92 L820.27,285.23 L824.46,285.53 L828.65,285.80 L832.83,286.05 L837.02,286.21 L841.20,286.38 L845.39,286.56 L849.58,286.72 L853.76,286.85 L857.95,287.01 L862.14,287.11 L866.32,287.14 L870.51,287.03 L874.69,286.87 L878.88,286.67 L883.07,286.40 L887.25,286.09 L891.44,285.74 L895.63,285.39 L899.81,285.58 L904.00,285.90 L908.18,286.21 L910.00,286.34" fill="none" stroke="#2ca02c" stroke-width="2"/>
<text x="915" y="90" font-size="12" fill="#2ca02c">ts_drift_adapt</text>
</svg>