<svg width="960" height="400" xmlns="http://www.w3.org/2000/svg">
<rect x="0" y="0" width="960" height="400" fill="#ffffff" stroke="#dddddd"/>
<line x1="50" y1="50" x2="50" y2="350" stroke="#444444"/>
<line x1="50" y1="350" x2="910" y2="350" stroke="#444444"/>
<text x="480.0" y="30" text-anchor="middle" font-size="18">sea_abrupt4 Accuracy</text>
<path d="M50.00,129.69 L51.10,148.44 L52.20,153.12 L53.31,141.41 L54.41,140.00 L55.51,139.84 L56.61,140.40 L57.72,137.89 L58.82,134.90 L59.92,135.31 L61.02,133.10 L62.12,133.59 L63.23,133.29 L64.33,131.70 L65.43,130.31 L66.53,130.86 L67.64,129.69 L68.74,129.17 L69.84,129.44 L70.94,128.28 L72.04,128.79 L73.15,128.41 L74.25,126.83 L75.35,125.98 L76.45,126.12 L77.56,125.72 L78.66,124.83 L79.76,125.00 L80.86,124.19 L81.96,123.44 L83.07,123.49 L84.17,122.80 L85.27,122.59 L86.37,122.10 L87.48,121.79 L88.58,121.09 L89.68,120.57 L90.78,121.05 L91.88,120.91 L92.99,120.55 L94.09,119.74 L95.19,119.75 L96.29,119.44 L97.40,118.93 L98.50,118.33 L99.60,117.87 L100.70,117.52 L101.80,117.09 L102.91,116.68 L104.01,116.28 L105.11,115.99 L106.21,115.99 L107.31,115.98 L108.42,115.89 L109.52,116.05 L110.62,116.04 L111.72,115.62 L112.83,115.54 L113.93,115.15 L115.03,114.92 L116.13,114.78 L117.23,114.26 L118.34,114.21 L119.44,113.87 L120.54,113.68 L121.64,113.42 L122.75,113.39 L123.85,113.28 L124.95,113.32 L126.05,113.15 L127.15,112.85 L128.26,112.63 L129.36,112.61 L130.46,112.58 L131.56,112.25 L132.67,112.11 L133.77,111.97 L134.87,111.72 L135.97,111.35 L137.07,111.11 L138.18,110.94 L139.28,110.71 L140.38,110.43 L141.48,110.10 L142.59,110.72 L143.69,110.45 L144.79,110.13 L145.89,110.14 L146.99,110.20 L148.10,110.10 L149.20,110.06 L150.30,109.87 L151.40,109.53 L152.51,109.64 L153.61,109.56 L154.71,109.47 L155.81,109.25 L156.91,109.45 L158.02,109.56 L159.12,109.30 L160.22,109.08 L161.32,108.92 L162.43,108.98 L163.53,109.22 L164.63,109.33 L165.73,109.26 L166.83,109.27 L167.94,108.98 L169.04,108.96 L170.14,108.98 L171.24,108.83 L172.35,109.01 L173.45,109.24 L174.55,108.96 L175.65,108.78 L176.75,108.63 L177.86,108.57 L178.96,108.63 L180.06,108.65 L181.16,108.44 L182.27,108.50 L183.37,108.48 L184.47,108.50 L185.57,108.29 L186.67,108.28 L187.78,108.22 L188.88,108.28 L189.98,108.19 L191.08,108.10 L192.19,108.05 L193.29,107.90 L194.39,107.99 L195.49,107.77 L196.59,107.61 L197.70,107.47 L198.80,107.46 L199.90,107.58 L201.00,107.51 L202.11,107.60 L203.21,107.56 L204.31,107.55 L205.41,107.54 L206.51,107.50 L207.62,107.32 L208.72,107.32 L209.82,107.34 L210.92,107.33 L212.02,107.17 L213.13,107.16 L214.23,106.91 L215.33,106.90 L216.43,106.84 L217.54,106.86 L218.64,106.65 L219.74,106.55 L220.84,106.49 L221.94,106.49 L223.05,106.52 L224.15,106.49 L225.25,106.51 L226.35,106.66 L227.46,106.71 L228.56,106.83 L229.66,106.94 L230.76,106.99 L231.86,107.04 L232.97,107.01 L234.07,107.11 L235.17,107.00 L236.27,106.97 L237.38,106.99 L238.48,107.01 L239.58,107.04 L240.68,107.17 L241.78,107.21 L242.89,107.16 L243.99,107.26 L245.09,107.22 L246.19,107.14 L247.30,107.21 L248.40,107.42 L249.50,107.49 L250.60,107.66 L251.70,107.65 L252.81,107.69 L253.91,107.71 L255.01,107.88 L256.11,107.87 L257.22,107.86 L258.32,107.95 L259.42,107.92 L260.52,107.79 L261.62,107.80 L262.73,107.84 L263.83,107.88 L264.93,107.85 L266.03,107.84 L267.14,107.77 L268.24,107.78 L269.34,107.73 L270.44,107.60 L271.54,107.60 L272.65,107.66 L273.75,107.77 L274.85,107.71 L275.95,107.84 L277.06,107.81 L278.16,107.80 L279.26,107.73 L280.36,107.81 L281.46,107.92 L282.57,107.93 L283.67,107.83 L284.77,107.74 L285.87,107.67 L286.98,107.66 L288.08,107.63 L289.18,107.65 L290.28,107.66 L291.38,107.76 L292.49,107.73 L293.59,107.73 L294.69,107.74 L295.79,107.74 L296.90,107.71 L298.00,107.78 L299.10,107.76 L300.20,107.81 L301.30,107.81 L302.41,107.80 L303.51,107.79 L304.61,107.79 L305.71,107.72 L306.82,107.61 L307.92,107.51 L309.02,107.46 L310.12,107.38 L311.22,107.39 L312.33,107.33 L313.43,107.23 L314.53,107.09 L315.63,107.18 L316.74,107.08 L317.84,107.11 L318.94,107.09 L320.04,107.05 L321.14,107.09 L322.25,107.14 L323.35,107.08 L324.45,106.96 L325.55,106.94 L326.65,106.85 L327.76,106.82 L328.86,106.73 L329.96,106.64 L331.06,106.54 L332.17,106.51 L333.27,106.45 L334.37,106.49 L335.47,106.45 L336.57,106.39 L337.68,106.32 L338.78,106.30 L339.88,106.29 L340.98,106.30 L342.09,106.29 L343.19,106.30 L344.29,106.25 L345.39,106.16 L346.49,106.16 L347.60,106.16 L348.70,106.13 L349.80,106.13 L350.90,106.08 L352.01,106.10 L353.11,106.10 L354.21,106.06 L355.31,106.03 L356.41,105.96 L357.52,106.00 L358.62,106.00 L359.72,105.98 L360.82,105.89 L361.93,105.85 L363.03,105.82 L364.13,105.84 L365.23,105.81 L366.33,105.76 L367.44,105.75 L368.54,105.65 L369.64,105.72 L370.74,105.69 L371.85,105.77 L372.95,105.79 L374.05,105.74 L375.15,105.76 L376.25,105.70 L377.36,105.67 L378.46,105.56 L379.56,105.48 L380.66,105.42 L381.77,105.40 L382.87,105.35 L383.97,105.29 L385.07,105.28 L386.17,105.25 L387.28,105.30 L388.38,105.17 L389.48,105.16 L390.58,105.19 L391.69,105.18 L392.79,105.08 L393.89,105.04 L394.99,104.94 L396.09,104.90 L397.20,104.87 L398.30,104.80 L399.40,104.76 L400.50,104.77 L401.61,104.67 L402.71,104.57 L403.81,104.50 L404.91,104.44 L406.01,104.31 L407.12,104.29 L408.22,104.25 L409.32,104.17 L410.42,104.11 L411.53,103.98 L412.63,103.88 L413.73,103.80 L414.83,103.84 L415.93,103.73 L417.04,103.71 L418.14,103.62 L419.24,103.59 L420.34,103.57 L421.45,103.60 L422.55,103.54 L423.65,103.47 L424.75,103.40 L425.85,103.32 L426.96,103.20 L428.06,103.20 L429.16,103.11 L430.26,103.05 L431.36,103.01 L432.47,102.94 L433.57,102.87 L434.67,102.81 L435.77,102.75 L436.88,102.69 L437.98,102.64 L439.08,102.54 L440.18,102.51 L441.28,102.41 L442.39,102.36 L443.49,102.31 L444.59,102.22 L445.69,102.12 L446.80,101.99 L447.90,101.94 L449.00,101.90 L450.10,101.86 L451.20,101.74 L452.31,101.68 L453.41,101.59 L454.51,101.54 L455.61,101.47 L456.72,101.40 L457.82,101.34 L458.92,101.26 L460.02,101.21 L461.12,101.15 L462.23,101.06 L463.33,101.03 L464.43,100.98 L465.53,100.95 L466.64,100.89 L467.74,100.85 L468.84,100.80 L469.94,100.75 L471.04,100.72 L472.15,100.66 L473.25,100.59 L474.35,100.51 L475.45,100.46 L476.56,100.43 L477.66,100.36 L478.76,100.25 L479.86,100.17 L480.96,100.19 L482.07,100.14 L483.17,100.04 L484.27,100.00 L485.37,99.96 L486.48,99.96 L487.58,99.84 L488.68,99.74 L489.78,99.66 L490.88,99.60 L491.99,99.53 L493.09,99.47 L494.19,99.38 L495.29,99.35 L496.40,99.26 L497.50,99.17 L498.60,99.09 L499.70,99.00 L500.80,98.92 L501.91,98.84 L503.01,98.80 L504.11,98.71 L505.21,98.63 L506.32,98.54 L507.42,98.48 L508.52,98.43 L509.62,98.37 L510.72,98.32 L511.83,98.29 L512.93,98.23 L514.03,98.14 L515.13,98.06 L516.24,97.99 L517.34,97.94 L518.44,97.90 L519.54,97.87 L520.64,97.83 L521.75,97.75 L522.85,97.69 L523.95,97.64 L525.05,97.58 L526.16,97.50 L527.26,97.42 L528.36,97.36 L529.46,97.29 L530.56,97.26 L531.67,97.22 L532.77,97.17 L533.87,97.10 L534.97,97.01 L536.07,96.94 L537.18,96.91 L538.28,96.83 L539.38,96.79 L540.48,96.74 L541.59,96.63 L542.69,96.59 L543.79,96.51 L544.89,96.46 L545.99,96.43 L547.10,96.35 L548.20,96.27 L549.30,96.21 L550.40,96.21 L551.51,96.15 L552.61,96.10 L553.71,96.06 L554.81,96.04 L555.91,96.00 L557.02,95.93 L558.12,95.86 L559.22,95.81 L560.32,95.79 L561.43,95.74 L562.53,95.68 L563.63,95.63 L564.73,95.60 L565.83,95.60 L566.94,95.68 L568.04,95.72 L569.14,95.74 L570.24,95.70 L571.35,95.69 L572.45,95.68 L573.55,95.66 L574.65,95.61 L575.75,95.59 L576.86,95.56 L577.96,95.58 L579.06,95.58 L580.16,95.52 L581.27,95.51 L582.37,95.59 L583.47,95.60 L584.57,95.59 L585.67,95.63 L586.78,95.64 L587.88,95.68 L588.98,95.67 L590.08,95.65 L591.19,95.64 L592.29,95.60 L593.39,95.62 L594.49,95.61 L595.59,95.56 L596.70,95.58 L597.80,95.54 L598.90,95.55 L600.00,95.59 L601.11,95.59 L602.21,95.61 L603.31,95.58 L604.41,95.57 L605.51,95.58 L606.62,95.55 L607.72,95.55 L608.82,95.55 L609.92,95.52 L611.03,95.53 L612.13,95.51 L613.23,95.51 L614.33,95.55 L615.43,95.55 L616.54,95.52 L617.64,95.49 L618.74,95.47 L619.84,95.44 L620.95,95.40 L622.05,95.34 L623.15,95.35 L624.25,95.34 L625.35,95.27 L626.46,95.25 L627.56,95.23 L628.66,95.21 L629.76,95.22 L630.87,95.18 L631.97,95.20 L633.07,95.18 L634.17,95.16 L635.27,95.13 L636.38,95.09 L637.48,95.06 L638.58,95.05 L639.68,95.01 L640.79,94.96 L641.89,94.92 L642.99,94.90 L644.09,94.87 L645.19,94.85 L646.30,94.84 L647.40,94.83 L648.50,94.84 L649.60,94.82 L650.70,94.79 L651.81,94.76 L652.91,94.74 L654.01,94.69 L655.11,94.65 L656.22,94.61 L657.32,94.58 L658.42,94.56 L659.52,94.54 L660.62,94.54 L661.73,94.54 L662.83,94.52 L663.93,94.49 L665.03,94.44 L666.14,94.41 L667.24,94.37 L668.34,94.33 L669.44,94.36 L670.54,94.32 L671.65,94.27 L672.75,94.27 L673.85,94.21 L674.95,94.20 L676.06,94.17 L677.16,94.14 L678.26,94.12 L679.36,94.10 L680.46,94.06 L681.57,94.02 L682.67,93.97 L683.77,93.95 L684.87,93.93 L685.98,93.90 L687.08,93.88 L688.18,93.86 L689.28,93.85 L690.38,93.83 L691.49,93.82 L692.59,93.79 L693.69,93.74 L694.79,93.72 L695.90,93.66 L697.00,93.65 L698.10,93.61 L699.20,93.59 L700.30,93.56 L701.41,93.52 L702.51,93.49 L703.61,93.47 L704.71,93.43 L705.82,93.39 L706.92,93.40 L708.02,93.37 L709.12,93.36 L710.22,93.32 L711.33,93.29 L712.43,93.25 L713.53,93.24 L714.63,93.23 L715.74,93.23 L716.84,93.22 L717.94,93.21 L719.04,93.20 L720.14,93.19 L721.25,93.17 L722.35,93.18 L723.45,93.11 L724.55,93.10 L725.66,93.09 L726.76,93.06 L727.86,93.02 L728.96,92.98 L730.06,92.96 L731.17,92.91 L732.27,92.87 L733.37,92.84 L734.47,92.83 L735.58,92.80 L736.68,92.77 L737.78,92.79 L738.88,92.74 L739.98,92.69 L741.09,92.68 L742.19,92.64 L743.29,92.63 L744.39,92.61 L745.50,92.57 L746.60,92.53 L747.70,92.51 L748.80,92.48 L749.90,92.42 L751.01,92.39 L752.11,92.35 L753.21,92.33 L754.31,92.30 L755.41,92.25 L756.52,92.19 L757.62,92.18 L758.72,92.16 L759.82,92.12 L760.93,92.09 L762.03,92.07 L763.13,92.04 L764.23,92.01 L765.33,91.96 L766.44,91.93 L767.54,91.90 L768.64,91.87 L769.74,91.82 L770.85,91.79 L771.95,91.75 L773.05,91.73 L774.15,91.72 L775.25,91.68 L776.36,91.66 L777.46,91.65 L778.56,91.63 L779.66,91.62 L780.77,91.62 L781.87,91.60 L782.97,91.55 L784.07,91.53 L785.17,91.49 L786.28,91.43 L787.38,91.39 L788.48,91.36 L789.58,91.34 L790.69,91.31 L791.79,91.28 L792.89,91.25 L793.99,91.21 L795.09,91.20 L796.20,91.16 L797.30,91.12 L798.40,91.08 L799.50,91.07 L800.61,91.06 L801.71,91.03 L802.81,90.99 L803.91,90.97 L805.01,90.96 L806.12,90.91 L807.22,90.88 L808.32,90.86 L809.42,90.85 L810.53,90.80 L811.63,90.76 L812.73,90.74 L813.83,90.72 L814.93,90.68 L816.04,90.67 L817.14,90.65 L818.24,90.62 L819.34,90.58 L820.45,90.56 L821.55,90.50 L822.65,90.46 L823.75,90.42 L824.85,90.42 L825.96,90.41 L827.06,90.39 L828.16,90.35 L829.26,90.32 L830.37,90.29 L831.47,90.26 L832.57,90.24 L833.67,90.21 L834.77,90.19 L835.88,90.15 L836.98,90.15 L838.08,90.13 L839.18,90.13 L840.29,90.12 L841.39,90.08 L842.49,90.06 L843.59,90.04 L844.69,90.04 L845.80,90.05 L846.90,90.03 L848.00,90.00 L849.10,89.95 L850.21,89.95 L851.31,89.94 L852.41,89.90 L853.51,89.88 L854.61,89.85 L855.72,89.81 L856.82,89.80 L857.92,89.75 L859.02,89.71 L860.12,89.67 L861.23,89.66 L862.33,89.62 L863.43,89.59 L864.53,89.57 L865.64,89.54 L866.74,89.52 L867.84,89.49 L868.94,89.47 L870.04,89.46 L871.15,89.44 L872.25,89.40 L873.35,89.37 L874.45,89.35 L875.56,89.31 L876.66,89.29 L877.76,89.28 L878.86,89.25 L879.96,89.24 L881.07,89.23 L882.17,89.20 L883.27,89.17 L884.37,89.12 L885.48,89.10 L886.58,89.07 L887.68,89.02 L888.78,89.00 L889.88,89.00 L890.99,88.97 L892.09,88.93 L893.19,88.90 L894.29,88.88 L895.40,88.85 L896.50,88.82 L897.60,88.80 L898.70,88.78 L899.80,88.76 L900.91,88.73 L902.01,88.71 L903.11,88.68 L904.21,88.64 L905.32,88.63 L906.42,88.61 L907.52,88.60 L908.62,88.57 L909.72,88.54 L910.00,88.53" fill="none" stroke="#1f77b4" stroke-width="2"/>
<text x="915" y="50" font-size="12" fill="#1f77b4">baseline_student</text>
<path d="M50.00,148.44 L51.10,160.16 L52.20,160.94 L53.31,147.27 L54.41,143.75 L55.51,143.75 L56.61,145.76 L57.72,143.75 L58.82,142.71 L59.92,144.69 L61.02,140.77 L62.12,139.45 L63.23,137.62 L64.33,135.04 L65.43,134.38 L66.53,135.55 L67.64,135.20 L68.74,135.16 L69.84,135.61 L70.94,134.61 L72.04,135.49 L73.15,136.29 L74.25,135.80 L75.35,135.35 L76.45,135.88 L77.56,135.82 L78.66,135.24 L79.76,135.38 L80.86,134.21 L81.96,133.75 L83.07,133.62 L84.17,132.62 L85.27,131.82 L86.37,130.65 L87.48,130.22 L88.58,129.69 L89.68,128.93 L90.78,129.07 L91.88,128.37 L92.99,128.16 L94.09,127.17 L95.19,127.01 L96.29,126.74 L97.40,126.28 L98.50,125.62 L99.60,124.90 L100.70,124.60 L101.80,124.51 L102.91,124.14 L104.01,123.78 L105.11,123.16 L106.21,122.84 L107.31,122.52 L108.42,122.40 L109.52,122.19 L110.62,122.15 L111.72,121.63 L112.83,121.36 L113.93,120.79 L115.03,120.70 L116.13,120.62 L117.23,120.09 L118.34,119.87 L119.44,119.36 L120.54,119.16 L121.64,118.89 L122.75,118.63 L123.85,118.59 L124.95,118.27 L126.05,118.04 L127.15,117.80 L128.26,117.51 L129.36,117.49 L130.46,117.40 L131.56,117.12 L132.67,116.92 L133.77,116.66 L134.87,116.35 L135.97,115.98 L137.07,115.80 L138.18,115.51 L139.28,115.34 L140.38,115.17 L141.48,114.79 L142.59,115.24 L143.69,114.97 L144.79,114.60 L145.89,114.40 L146.99,114.41 L148.10,114.27 L149.20,114.13 L150.30,113.89 L151.40,113.61 L152.51,113.78 L153.61,113.65 L154.71,113.53 L155.81,113.35 L156.91,113.42 L158.02,113.54 L159.12,113.28 L160.22,113.12 L161.32,112.87 L162.43,112.89 L163.53,113.06 L164.63,113.04 L165.73,112.97 L166.83,112.95 L167.94,112.76 L169.04,112.57 L170.14,112.47 L171.24,112.25 L172.35,112.36 L173.45,112.51 L174.55,112.50 L175.65,112.36 L176.75,112.35 L177.86,112.30 L178.96,112.41 L180.06,112.32 L181.16,112.11 L182.27,112.10 L183.37,112.01 L184.47,112.12 L185.57,111.92 L186.67,111.84 L187.78,111.90 L188.88,111.90 L189.98,111.85 L191.08,111.70 L192.19,111.55 L193.29,111.47 L194.39,111.58 L195.49,111.33 L196.59,111.08 L197.70,110.90 L198.80,110.87 L199.90,110.94 L201.00,110.80 L202.11,110.80 L203.21,110.74 L204.31,110.70 L205.41,110.67 L206.51,110.58 L207.62,110.42 L208.72,110.29 L209.82,110.23 L210.92,110.30 L212.02,110.15 L213.13,110.12 L214.23,109.94 L215.33,109.98 L216.43,109.95 L217.54,109.90 L218.64,109.78 L219.74,109.73 L220.84,109.71 L221.94,109.71 L223.05,109.66 L224.15,109.82 L225.25,109.82 L226.35,110.01 L227.46,110.07 L228.56,110.19 L229.66,110.25 L230.76,110.26 L231.86,110.32 L232.97,110.24 L234.07,110.27 L235.17,110.16 L236.27,110.11 L237.38,110.17 L238.48,110.12 L239.58,110.15 L240.68,110.26 L241.78,110.19 L242.89,110.09 L243.99,110.12 L245.09,110.07 L246.19,110.02 L247.30,110.08 L248.40,110.37 L249.50,110.45 L250.60,110.60 L251.70,110.61 L252.81,110.63 L253.91,110.61 L255.01,110.69 L256.11,110.61 L257.22,110.64 L258.32,110.69 L259.42,110.67 L260.52,110.55 L261.62,110.65 L262.73,110.67 L263.83,110.72 L264.93,110.70 L266.03,110.72 L267.14,110.58 L268.24,110.58 L269.34,110.45 L270.44,110.31 L271.54,110.29 L272.65,110.31 L273.75,110.39 L274.85,110.30 L275.95,110.41 L277.06,110.28 L278.16,110.24 L279.26,110.17 L280.36,110.20 L281.46,110.29 L282.57,110.30 L283.67,110.21 L284.77,110.11 L285.87,110.07 L286.98,110.07 L288.08,110.05 L289.18,110.10 L290.28,110.10 L291.38,110.09 L292.49,110.07 L293.59,110.03 L294.69,110.03 L295.79,110.04 L296.90,110.00 L298.00,110.02 L299.10,110.01 L300.20,110.07 L301.30,110.08 L302.41,110.04 L303.51,110.02 L304.61,110.03 L305.71,109.97 L306.82,109.86 L307.92,109.72 L309.02,109.69 L310.12,109.61 L311.22,109.64 L312.33,109.62 L313.43,109.47 L314.53,109.32 L315.63,109.41 L316.74,109.34 L317.84,109.34 L318.94,109.35 L320.04,109.32 L321.14,109.38 L322.25,109.41 L323.35,109.34 L324.45,109.19 L325.55,109.24 L326.65,109.19 L327.76,109.14 L328.86,109.06 L329.96,109.01 L331.06,108.91 L332.17,108.88 L333.27,108.79 L334.37,108.80 L335.47,108.77 L336.57,108.62 L337.68,108.50 L338.78,108.48 L339.88,108.52 L340.98,108.50 L342.09,108.52 L343.19,108.55 L344.29,108.47 L345.39,108.39 L346.49,108.35 L347.60,108.38 L348.70,108.37 L349.80,108.36 L350.90,108.30 L352.01,108.33 L353.11,108.32 L354.21,108.28 L355.31,108.22 L356.41,108.20 L357.52,108.21 L358.62,108.22 L359.72,108.23 L360.82,108.12 L361.93,108.07 L363.03,108.04 L364.13,107.97 L365.23,107.93 L366.33,107.93 L367.44,107.90 L368.54,107.87 L369.64,107.93 L370.74,107.90 L371.85,107.91 L372.95,107.94 L374.05,107.93 L375.15,107.90 L376.25,107.86 L377.36,107.82 L378.46,107.72 L379.56,107.61 L380.66,107.56 L381.77,107.55 L382.87,107.47 L383.97,107.42 L385.07,107.39 L386.17,107.31 L387.28,107.33 L388.38,107.19 L389.48,107.15 L390.58,107.17 L391.69,107.11 L392.79,107.06 L393.89,107.04 L394.99,107.00 L396.09,106.92 L397.20,106.93 L398.30,106.86 L399.40,106.80 L400.50,106.75 L401.61,106.65 L402.71,106.59 L403.81,106.53 L404.91,106.44 L406.01,106.34 L407.12,106.28 L408.22,106.22 L409.32,106.12 L410.42,106.08 L411.53,105.95 L412.63,105.84 L413.73,105.75 L414.83,105.70 L415.93,105.59 L417.04,105.55 L418.14,105.49 L419.24,105.43 L420.34,105.40 L421.45,105.40 L422.55,105.30 L423.65,105.22 L424.75,105.12 L425.85,105.07 L426.96,104.98 L428.06,104.98 L429.16,104.88 L430.26,104.79 L431.36,104.75 L432.47,104.69 L433.57,104.61 L434.67,104.56 L435.77,104.49 L436.88,104.43 L437.98,104.36 L439.08,104.29 L440.18,104.28 L441.28,104.18 L442.39,104.15 L443.49,104.10 L444.59,103.99 L445.69,103.92 L446.80,103.80 L447.90,103.72 L449.00,103.68 L450.10,103.64 L451.20,103.57 L452.31,103.51 L453.41,103.44 L454.51,103.41 L455.61,103.34 L456.72,103.25 L457.82,103.18 L458.92,103.10 L460.02,103.02 L461.12,102.95 L462.23,102.89 L463.33,102.81 L464.43,102.74 L465.53,102.69 L466.64,102.64 L467.74,102.59 L468.84,102.51 L469.94,102.48 L471.04,102.44 L472.15,102.38 L473.25,102.31 L474.35,102.23 L475.45,102.18 L476.56,102.14 L477.66,102.09 L478.76,102.02 L479.86,101.92 L480.96,101.91 L482.07,101.85 L483.17,101.75 L484.27,101.66 L485.37,101.59 L486.48,101.57 L487.58,101.47 L488.68,101.36 L489.78,101.28 L490.88,101.20 L491.99,101.14 L493.09,101.07 L494.19,100.97 L495.29,100.94 L496.40,100.85 L497.50,100.74 L498.60,100.67 L499.70,100.58 L500.80,100.51 L501.91,100.43 L503.01,100.40 L504.11,100.33 L505.21,100.27 L506.32,100.18 L507.42,100.12 L508.52,100.09 L509.62,100.05 L510.72,100.00 L511.83,99.96 L512.93,99.87 L514.03,99.77 L515.13,99.71 L516.24,99.64 L517.34,99.56 L518.44,99.49 L519.54,99.45 L520.64,99.44 L521.75,99.33 L522.85,99.25 L523.95,99.17 L525.05,99.11 L526.16,99.03 L527.26,98.94 L528.36,98.85 L529.46,98.77 L530.56,98.74 L531.67,98.69 L532.77,98.65 L533.87,98.57 L534.97,98.48 L536.07,98.41 L537.18,98.35 L538.28,98.32 L539.38,98.27 L540.48,98.22 L541.59,98.11 L542.69,98.07 L543.79,97.99 L544.89,97.96 L545.99,97.91 L547.10,97.84 L548.20,97.76 L549.30,97.69 L550.40,97.67 L551.51,97.58 L552.61,97.52 L553.71,97.48 L554.81,97.41 L555.91,97.35 L557.02,97.25 L558.12,97.17 L559.22,97.11 L560.32,97.07 L561.43,97.01 L562.53,96.93 L563.63,96.84 L564.73,96.81 L565.83,96.80 L566.94,96.87 L568.04,96.90 L569.14,96.90 L570.24,96.86 L571.35,96.81 L572.45,96.78 L573.55,96.72 L574.65,96.65 L575.75,96.59 L576.86,96.57 L577.96,96.60 L579.06,96.62 L580.16,96.62 L581.27,96.65 L582.37,96.75 L583.47,96.81 L584.57,96.82 L585.67,96.88 L586.78,96.88 L587.88,96.89 L588.98,96.88 L590.08,96.83 L591.19,96.81 L592.29,96.79 L593.39,96.80 L594.49,96.77 L595.59,96.71 L596.70,96.72 L597.80,96.71 L598.90,96.68 L600.00,96.69 L601.11,96.69 L602.21,96.67 L603.31,96.67 L604.41,96.67 L605.51,96.70 L606.62,96.68 L607.72,96.70 L608.82,96.68 L609.92,96.67 L611.03,96.70 L612.13,96.68 L613.23,96.67 L614.33,96.71 L615.43,96.72 L616.54,96.68 L617.64,96.65 L618.74,96.66 L619.84,96.67 L620.95,96.65 L622.05,96.60 L623.15,96.54 L624.25,96.50 L625.35,96.48 L626.46,96.44 L627.56,96.41 L628.66,96.41 L629.76,96.42 L630.87,96.37 L631.97,96.41 L633.07,96.41 L634.17,96.37 L635.27,96.36 L636.38,96.33 L637.48,96.32 L638.58,96.30 L639.68,96.25 L640.79,96.19 L641.89,96.14 L642.99,96.09 L644.09,96.05 L645.19,96.01 L646.30,95.98 L647.40,95.94 L648.50,95.94 L649.60,95.92 L650.70,95.90 L651.81,95.88 L652.91,95.83 L654.01,95.78 L655.11,95.76 L656.22,95.70 L657.32,95.67 L658.42,95.62 L659.52,95.61 L660.62,95.58 L661.73,95.57 L662.83,95.54 L663.93,95.51 L665.03,95.46 L666.14,95.44 L667.24,95.43 L668.34,95.42 L669.44,95.45 L670.54,95.44 L671.65,95.38 L672.75,95.40 L673.85,95.37 L674.95,95.36 L676.06,95.34 L677.16,95.32 L678.26,95.30 L679.36,95.27 L680.46,95.24 L681.57,95.21 L682.67,95.16 L683.77,95.13 L684.87,95.10 L685.98,95.08 L687.08,95.04 L688.18,95.01 L689.28,94.99 L690.38,94.99 L691.49,94.96 L692.59,94.92 L693.69,94.90 L694.79,94.86 L695.90,94.81 L697.00,94.82 L698.10,94.77 L699.20,94.75 L700.30,94.71 L701.41,94.64 L702.51,94.62 L703.61,94.58 L704.71,94.57 L705.82,94.55 L706.92,94.55 L708.02,94.51 L709.12,94.50 L710.22,94.45 L711.33,94.41 L712.43,94.38 L713.53,94.40 L714.63,94.38 L715.74,94.36 L716.84,94.34 L717.94,94.39 L719.04,94.35 L720.14,94.30 L721.25,94.30 L722.35,94.28 L723.45,94.24 L724.55,94.20 L725.66,94.17 L726.76,94.15 L727.86,94.11 L728.96,94.07 L730.06,94.05 L731.17,93.98 L732.27,93.94 L733.37,93.90 L734.47,93.87 L735.58,93.87 L736.68,93.86 L737.78,93.87 L738.88,93.83 L739.98,93.78 L741.09,93.75 L742.19,93.72 L743.29,93.71 L744.39,93.68 L745.50,93.64 L746.60,93.58 L747.70,93.58 L748.80,93.55 L749.90,93.49 L751.01,93.48 L752.11,93.43 L753.21,93.38 L754.31,93.37 L755.41,93.32 L756.52,93.27 L757.62,93.24 L758.72,93.21 L759.82,93.17 L760.93,93.12 L762.03,93.08 L763.13,93.05 L764.23,93.01 L765.33,92.96 L766.44,92.91 L767.54,92.87 L768.64,92.88 L769.74,92.83 L770.85,92.80 L771.95,92.77 L773.05,92.73 L774.15,92.73 L775.25,92.66 L776.36,92.65 L777.46,92.62 L778.56,92.61 L779.66,92.59 L780.77,92.56 L781.87,92.51 L782.97,92.47 L784.07,92.45 L785.17,92.44 L786.28,92.38 L787.38,92.36 L788.48,92.33 L789.58,92.31 L790.69,92.29 L791.79,92.26 L792.89,92.24 L793.99,92.20 L795.09,92.17 L796.20,92.12 L797.30,92.10 L798.40,92.07 L799.50,92.05 L800.61,92.02 L801.71,92.02 L802.81,91.99 L803.91,91.98 L805.01,91.97 L806.12,91.93 L807.22,91.88 L808.32,91.86 L809.42,91.85 L810.53,91.79 L811.63,91.75 L812.73,91.73 L813.83,91.70 L814.93,91.67 L816.04,91.66 L817.14,91.64 L818.24,91.60 L819.34,91.55 L820.45,91.52 L821.55,91.47 L822.65,91.45 L823.75,91.40 L824.85,91.38 L825.96,91.38 L827.06,91.36 L828.16,91.33 L829.26,91.28 L830.37,91.24 L831.47,91.20 L832.57,91.16 L833.67,91.13 L834.77,91.10 L835.88,91.06 L836.98,91.05 L838.08,91.03 L839.18,91.00 L840.29,91.00 L841.39,90.96 L842.49,90.94 L843.59,90.90 L844.69,90.88 L845.80,90.86 L846.90,90.83 L848.00,90.79 L849.10,90.75 L850.21,90.73 L851.31,90.69 L852.41,90.66 L853.51,90.61 L854.61,90.59 L855.72,90.55 L856.82,90.54 L857.92,90.50 L859.02,90.47 L860.12,90.43 L861.23,90.40 L862.33,90.36 L863.43,90.32 L864.53,90.31 L865.64,90.28 L866.74,90.25 L867.84,90.22 L868.94,90.19 L870.04,90.16 L871.15,90.14 L872.25,90.10 L873.35,90.08 L874.45,90.07 L875.56,90.03 L876.66,90.02 L877.76,89.99 L878.86,89.97 L879.96,89.96 L881.07,89.94 L882.17,89.89 L883.27,89.86 L884.37,89.81 L885.48,89.79 L886.58,89.75 L887.68,89.71 L888.78,89.67 L889.88,89.65 L890.99,89.61 L892.09,89.57 L893.19,89.54 L894.29,89.52 L895.40,89.49 L896.50,89.45 L897.60,89.42 L898.70,89.39 L899.80,89.37 L900.91,89.33 L902.01,89.30 L903.11,89.27 L904.21,89.22 L905.32,89.20 L906.42,89.17 L907.52,89.13 L908.62,89.10 L909.72,89.07 L910.00,89.05" fill="none" stroke="#ff7f0e" stroke-width="2"/>
<text x="915" y="70" font-size="12" fill="#ff7f0e">mean_teacher</text>
<path d="M50.00,190.62 L51.10,176.56 L52.20,173.44 L53.31,156.64 L54.41,153.12 L55.51,152.34 L56.61,154.46 L57.72,153.71 L58.82,150.52 L59.92,148.44 L61.02,145.03 L62.12,142.97 L63.23,141.59 L64.33,140.74 L65.43,140.31 L66.53,141.41 L67.64,139.61 L68.74,138.28 L69.84,138.32 L70.94,136.48 L72.04,137.50 L73.15,137.14 L74.25,135.80 L75.35,134.57 L76.45,134.19 L77.56,133.65 L78.66,132.81 L79.76,133.20 L80.86,132.11 L81.96,131.56 L83.07,130.90 L84.17,130.13 L85.27,129.40 L86.37,128.03 L87.48,127.41 L88.58,126.82 L89.68,126.27 L90.78,126.60 L91.88,126.44 L92.99,126.05 L94.09,125.00 L95.19,125.00 L96.29,124.78 L97.40,124.15 L98.50,123.33 L99.60,122.96 L100.70,122.41 L101.80,121.97 L102.91,121.56 L104.01,121.06 L105.11,120.68 L106.21,120.58 L107.31,120.49 L108.42,120.49 L109.52,120.48 L110.62,120.31 L111.72,119.82 L112.83,119.75 L113.93,119.20 L115.03,119.14 L116.13,118.85 L117.23,118.50 L118.34,118.15 L119.44,117.75 L120.54,117.64 L121.64,117.19 L122.75,117.02 L123.85,116.80 L124.95,116.58 L126.05,116.43 L127.15,116.15 L128.26,116.02 L129.36,115.88 L130.46,115.82 L131.56,115.44 L132.67,115.19 L133.77,114.89 L134.87,114.42 L135.97,114.08 L137.07,113.98 L138.18,113.89 L139.28,113.68 L140.38,113.31 L141.48,112.89 L142.59,113.53 L143.69,113.23 L144.79,112.93 L145.89,112.80 L146.99,112.94 L148.10,112.97 L149.20,112.79 L150.30,112.47 L151.40,112.15 L152.51,112.08 L153.61,111.88 L154.71,111.57 L155.81,111.37 L156.91,111.46 L158.02,111.55 L159.12,111.31 L160.22,111.08 L161.32,110.89 L162.43,110.89 L163.53,111.21 L164.63,111.07 L165.73,110.98 L166.83,110.94 L167.94,110.63 L169.04,110.68 L170.14,110.68 L171.24,110.47 L172.35,110.48 L173.45,110.69 L174.55,110.44 L175.65,110.33 L176.75,110.17 L177.86,110.02 L178.96,110.02 L180.06,109.99 L181.16,109.80 L182.27,109.81 L183.37,109.78 L184.47,109.79 L185.57,109.58 L186.67,109.55 L187.78,109.52 L188.88,109.65 L189.98,109.62 L191.08,109.52 L192.19,109.60 L193.29,109.51 L194.39,109.59 L195.49,109.46 L196.59,109.26 L197.70,109.03 L198.80,108.97 L199.90,109.02 L201.00,108.93 L202.11,109.02 L203.21,109.00 L204.31,109.04 L205.41,109.06 L206.51,108.94 L207.62,108.79 L208.72,108.67 L209.82,108.63 L210.92,108.67 L212.02,108.50 L213.13,108.42 L214.23,108.19 L215.33,108.21 L216.43,108.10 L217.54,108.00 L218.64,107.77 L219.74,107.76 L220.84,107.63 L221.94,107.62 L223.05,107.61 L224.15,107.58 L225.25,107.57 L226.35,107.68 L227.46,107.78 L228.56,107.95 L229.66,108.05 L230.76,108.01 L231.86,107.97 L232.97,107.82 L234.07,107.81 L235.17,107.72 L236.27,107.60 L237.38,107.54 L238.48,107.56 L239.58,107.52 L240.68,107.52 L241.78,107.43 L242.89,107.34 L243.99,107.39 L245.09,107.30 L246.19,107.25 L247.30,107.24 L248.40,107.44 L249.50,107.49 L250.60,107.56 L251.70,107.55 L252.81,107.52 L253.91,107.51 L255.01,107.53 L256.11,107.55 L257.22,107.56 L258.32,107.61 L259.42,107.50 L260.52,107.42 L261.62,107.49 L262.73,107.55 L263.83,107.60 L264.93,107.52 L266.03,107.49 L267.14,107.36 L268.24,107.38 L269.34,107.33 L270.44,107.23 L271.54,107.20 L272.65,107.24 L273.75,107.31 L274.85,107.23 L275.95,107.32 L277.06,107.22 L278.16,107.15 L279.26,107.10 L280.36,107.08 L281.46,107.16 L282.57,107.11 L283.67,107.04 L284.77,106.89 L285.87,106.90 L286.98,106.90 L288.08,106.83 L289.18,106.83 L290.28,106.76 L291.38,106.80 L292.49,106.84 L293.59,106.78 L294.69,106.78 L295.79,106.75 L296.90,106.69 L298.00,106.71 L299.10,106.66 L300.20,106.64 L301.30,106.60 L302.41,106.58 L303.51,106.53 L304.61,106.55 L305.71,106.53 L306.82,106.43 L307.92,106.27 L309.02,106.27 L310.12,106.17 L311.22,106.13 L312.33,106.03 L313.43,105.92 L314.53,105.78 L315.63,105.86 L316.74,105.77 L317.84,105.77 L318.94,105.68 L320.04,105.56 L321.14,105.60 L322.25,105.65 L323.35,105.59 L324.45,105.48 L325.55,105.41 L326.65,105.34 L327.76,105.36 L328.86,105.22 L329.96,105.13 L331.06,105.04 L332.17,104.97 L333.27,104.92 L334.37,104.93 L335.47,104.88 L336.57,104.76 L337.68,104.68 L338.78,104.61 L339.88,104.51 L340.98,104.50 L342.09,104.49 L343.19,104.51 L344.29,104.40 L345.39,104.28 L346.49,104.25 L347.60,104.26 L348.70,104.23 L349.80,104.24 L350.90,104.16 L352.01,104.14 L353.11,104.16 L354.21,104.08 L355.31,104.04 L356.41,103.97 L357.52,103.99 L358.62,103.96 L359.72,103.97 L360.82,103.90 L361.93,103.92 L363.03,103.83 L364.13,103.78 L365.23,103.73 L366.33,103.68 L367.44,103.69 L368.54,103.65 L369.64,103.70 L370.74,103.68 L371.85,103.77 L372.95,103.81 L374.05,103.83 L375.15,103.81 L376.25,103.80 L377.36,103.73 L378.46,103.66 L379.56,103.53 L380.66,103.49 L381.77,103.46 L382.87,103.45 L383.97,103.35 L385.07,103.31 L386.17,103.29 L387.28,103.27 L388.38,103.18 L389.48,103.16 L390.58,103.17 L391.69,103.10 L392.79,103.00 L393.89,102.97 L394.99,102.91 L396.09,102.81 L397.20,102.76 L398.30,102.70 L399.40,102.64 L400.50,102.58 L401.61,102.47 L402.71,102.41 L403.81,102.41 L404.91,102.30 L406.01,102.24 L407.12,102.21 L408.22,102.18 L409.32,102.16 L410.42,102.08 L411.53,101.95 L412.63,101.86 L413.73,101.80 L414.83,101.77 L415.93,101.70 L417.04,101.66 L418.14,101.58 L419.24,101.56 L420.34,101.59 L421.45,101.59 L422.55,101.55 L423.65,101.48 L424.75,101.40 L425.85,101.30 L426.96,101.18 L428.06,101.13 L429.16,101.01 L430.26,100.93 L431.36,100.91 L432.47,100.86 L433.57,100.82 L434.67,100.79 L435.77,100.71 L436.88,100.72 L437.98,100.69 L439.08,100.60 L440.18,100.59 L441.28,100.46 L442.39,100.38 L443.49,100.27 L444.59,100.17 L445.69,100.07 L446.80,99.93 L447.90,99.89 L449.00,99.83 L450.10,99.79 L451.20,99.70 L452.31,99.65 L453.41,99.56 L454.51,99.54 L455.61,99.44 L456.72,99.32 L457.82,99.28 L458.92,99.21 L460.02,99.15 L461.12,99.08 L462.23,98.99 L463.33,98.92 L464.43,98.85 L465.53,98.82 L466.64,98.77 L467.74,98.73 L468.84,98.66 L469.94,98.65 L471.04,98.63 L472.15,98.58 L473.25,98.49 L474.35,98.41 L475.45,98.35 L476.56,98.34 L477.66,98.26 L478.76,98.17 L479.86,98.06 L480.96,98.05 L482.07,97.98 L483.17,97.91 L484.27,97.85 L485.37,97.77 L486.48,97.74 L487.58,97.63 L488.68,97.52 L489.78,97.46 L490.88,97.40 L491.99,97.36 L493.09,97.27 L494.19,97.20 L495.29,97.16 L496.40,97.08 L497.50,96.99 L498.60,96.91 L499.70,96.83 L500.80,96.75 L501.91,96.68 L503.01,96.68 L504.11,96.61 L505.21,96.54 L506.32,96.47 L507.42,96.41 L508.52,96.37 L509.62,96.29 L510.72,96.23 L511.83,96.19 L512.93,96.12 L514.03,96.04 L515.13,95.96 L516.24,95.89 L517.34,95.84 L518.44,95.80 L519.54,95.76 L520.64,95.71 L521.75,95.62 L522.85,95.55 L523.95,95.47 L525.05,95.41 L526.16,95.35 L527.26,95.25 L528.36,95.17 L529.46,95.09 L530.56,95.04 L531.67,94.96 L532.77,94.94 L533.87,94.87 L534.97,94.77 L536.07,94.70 L537.18,94.63 L538.28,94.61 L539.38,94.56 L540.48,94.52 L541.59,94.42 L542.69,94.36 L543.79,94.30 L544.89,94.21 L545.99,94.17 L547.10,94.12 L548.20,94.05 L549.30,93.99 L550.40,93.97 L551.51,93.88 L552.61,93.84 L553.71,93.83 L554.81,93.79 L555.91,93.73 L557.02,93.63 L558.12,93.58 L559.22,93.52 L560.32,93.49 L561.43,93.44 L562.53,93.35 L563.63,93.30 L564.73,93.27 L565.83,93.24 L566.94,93.31 L568.04,93.37 L569.14,93.39 L570.24,93.34 L571.35,93.30 L572.45,93.28 L573.55,93.26 L574.65,93.22 L575.75,93.18 L576.86,93.16 L577.96,93.17 L579.06,93.17 L580.16,93.14 L581.27,93.12 L582.37,93.15 L583.47,93.20 L584.57,93.21 L585.67,93.24 L586.78,93.24 L587.88,93.27 L588.98,93.27 L590.08,93.26 L591.19,93.28 L592.29,93.25 L593.39,93.30 L594.49,93.30 L595.59,93.27 L596.70,93.26 L597.80,93.28 L598.90,93.26 L600.00,93.31 L601.11,93.29 L602.21,93.30 L603.31,93.28 L604.41,93.29 L605.51,93.34 L606.62,93.35 L607.72,93.33 L608.82,93.33 L609.92,93.31 L611.03,93.30 L612.13,93.27 L613.23,93.30 L614.33,93.33 L615.43,93.32 L616.54,93.29 L617.64,93.27 L618.74,93.25 L619.84,93.25 L620.95,93.19 L622.05,93.17 L623.15,93.13 L624.25,93.09 L625.35,93.06 L626.46,93.02 L627.56,92.98 L628.66,92.98 L629.76,92.97 L630.87,92.91 L631.97,92.94 L633.07,92.94 L634.17,92.88 L635.27,92.87 L636.38,92.85 L637.48,92.86 L638.58,92.84 L639.68,92.81 L640.79,92.76 L641.89,92.71 L642.99,92.70 L644.09,92.68 L645.19,92.70 L646.30,92.65 L647.40,92.62 L648.50,92.61 L649.60,92.57 L650.70,92.55 L651.81,92.50 L652.91,92.48 L654.01,92.42 L655.11,92.40 L656.22,92.36 L657.32,92.31 L658.42,92.29 L659.52,92.27 L660.62,92.30 L661.73,92.31 L662.83,92.31 L663.93,92.33 L665.03,92.29 L666.14,92.27 L667.24,92.25 L668.34,92.21 L669.44,92.22 L670.54,92.22 L671.65,92.17 L672.75,92.18 L673.85,92.13 L674.95,92.14 L676.06,92.10 L677.16,92.07 L678.26,92.03 L679.36,92.02 L680.46,92.00 L681.57,91.97 L682.67,91.92 L683.77,91.88 L684.87,91.85 L685.98,91.83 L687.08,91.79 L688.18,91.76 L689.28,91.74 L690.38,91.75 L691.49,91.74 L692.59,91.71 L693.69,91.70 L694.79,91.68 L695.90,91.64 L697.00,91.64 L698.10,91.61 L699.20,91.57 L700.30,91.56 L701.41,91.51 L702.51,91.51 L703.61,91.49 L704.71,91.44 L705.82,91.39 L706.92,91.36 L708.02,91.30 L709.12,91.30 L710.22,91.25 L711.33,91.22 L712.43,91.20 L713.53,91.18 L714.63,91.16 L715.74,91.16 L716.84,91.16 L717.94,91.16 L719.04,91.12 L720.14,91.09 L721.25,91.06 L722.35,91.03 L723.45,90.99 L724.55,90.96 L725.66,90.95 L726.76,90.93 L727.86,90.92 L728.96,90.88 L730.06,90.84 L731.17,90.80 L732.27,90.77 L733.37,90.74 L734.47,90.71 L735.58,90.68 L736.68,90.63 L737.78,90.66 L738.88,90.62 L739.98,90.57 L741.09,90.55 L742.19,90.53 L743.29,90.53 L744.39,90.49 L745.50,90.44 L746.60,90.39 L747.70,90.36 L748.80,90.33 L749.90,90.31 L751.01,90.30 L752.11,90.26 L753.21,90.23 L754.31,90.21 L755.41,90.18 L756.52,90.13 L757.62,90.10 L758.72,90.11 L759.82,90.09 L760.93,90.09 L762.03,90.09 L763.13,90.05 L764.23,90.02 L765.33,90.00 L766.44,89.97 L767.54,89.94 L768.64,89.95 L769.74,89.92 L770.85,89.89 L771.95,89.87 L773.05,89.83 L774.15,89.81 L775.25,89.77 L776.36,89.74 L777.46,89.70 L778.56,89.67 L779.66,89.66 L780.77,89.62 L781.87,89.59 L782.97,89.54 L784.07,89.50 L785.17,89.47 L786.28,89.42 L787.38,89.38 L788.48,89.37 L789.58,89.33 L790.69,89.31 L791.79,89.28 L792.89,89.24 L793.99,89.22 L795.09,89.21 L796.20,89.16 L797.30,89.11 L798.40,89.09 L799.50,89.08 L800.61,89.05 L801.71,89.06 L802.81,89.05 L803.91,89.03 L805.01,89.04 L806.12,89.00 L807.22,88.96 L808.32,88.95 L809.42,88.93 L810.53,88.87 L811.63,88.84 L812.73,88.82 L813.83,88.79 L814.93,88.75 L816.04,88.71 L817.14,88.71 L818.24,88.67 L819.34,88.62 L820.45,88.60 L821.55,88.55 L822.65,88.53 L823.75,88.49 L824.85,88.47 L825.96,88.46 L827.06,88.43 L828.16,88.43 L829.26,88.39 L830.37,88.36 L831.47,88.33 L832.57,88.30 L833.67,88.28 L834.77,88.23 L835.88,88.20 L836.98,88.19 L838.08,88.18 L839.18,88.14 L840.29,88.11 L841.39,88.09 L842.49,88.05 L843.59,88.02 L844.69,88.01 L845.80,87.99 L846.90,87.95 L848.00,87.92 L849.10,87.87 L850.21,87.85 L851.31,87.82 L852.41,87.79 L853.51,87.76 L854.61,87.72 L855.72,87.69 L856.82,87.68 L857.92,87.63 L859.02,87.60 L860.12,87.56 L861.23,87.55 L862.33,87.51 L863.43,87.47 L864.53,87.44 L865.64,87.40 L866.74,87.38 L867.84,87.37 L868.94,87.37 L870.04,87.36 L871.15,87.35 L872.25,87.32 L873.35,87.28 L874.45,87.25 L875.56,87.23 L876.66,87.22 L877.76,87.19 L878.86,87.16 L879.96,87.15 L881.07,87.15 L882.17,87.10 L883.27,87.07 L884.37,87.03 L885.48,87.01 L886.58,86.97 L887.68,86.95 L888.78,86.92 L889.88,86.92 L890.99,86.89 L892.09,86.86 L893.19,86.83 L894.29,86.80 L895.40,86.78 L896.50,86.76 L897.60,86.73 L898.70,86.70 L899.80,86.69 L900.91,86.66 L902.01,86.63 L903.11,86.60 L904.21,86.56 L905.32,86.53 L906.42,86.51 L907.52,86.49 L908.62,86.46 L909.72,86.44 L910.00,86.43" fill="none" stroke="#2ca02c" stroke-width="2"/>
<text x="915" y="90" font-size="12" fill="#2ca02c">ts_drift_adapt</text>
</svg>