<svg width="960" height="400" xmlns="http://www.w3.org/2000/svg">
<rect x="0" y="0" width="960" height="400" fill="#ffffff" stroke="#dddddd"/>
<line x1="50" y1="50" x2="50" y2="350" stroke="#444444"/>
<line x1="50" y1="350" x2="910" y2="350" stroke="#444444"/>
<text x="480.0" y="30" text-anchor="middle" font-size="18">sea_abrupt4 Accuracy</text>
<path d="M50.00,260.94 L51.10,218.75 L52.20,198.44 L53.31,176.56 L54.41,167.19 L55.51,164.06 L56.61,155.80 L57.72,153.12 L58.82,152.08 L59.92,150.31 L61.02,150.57 L62.12,148.83 L63.23,148.80 L64.33,146.09 L65.43,143.12 L66.53,143.46 L67.64,140.99 L68.74,138.28 L69.84,137.83 L70.94,136.02 L72.04,135.71 L73.15,136.08 L74.25,133.56 L75.35,132.23 L76.45,132.13 L77.56,131.67 L78.66,131.08 L79.76,131.36 L80.86,130.66 L81.96,130.62 L83.07,131.05 L84.17,130.13 L85.27,129.12 L86.37,128.31 L87.48,127.54 L88.58,127.21 L89.68,126.52 L90.78,126.73 L91.88,126.08 L92.99,125.35 L94.09,124.54 L95.19,124.22 L96.29,123.69 L97.40,122.98 L98.50,122.08 L99.60,121.64 L100.70,121.91 L101.80,121.68 L102.91,121.08 L104.01,121.16 L105.11,120.59 L106.21,120.31 L107.31,120.14 L108.42,120.23 L109.52,120.06 L110.62,119.89 L111.72,119.41 L112.83,119.02 L113.93,118.49 L115.03,118.28 L116.13,118.16 L117.23,117.74 L118.34,117.86 L119.44,117.31 L120.54,117.07 L121.64,116.90 L122.75,116.53 L123.85,116.18 L124.95,115.96 L126.05,115.76 L127.15,115.49 L128.26,115.49 L129.36,115.43 L130.46,115.31 L131.56,115.00 L132.67,114.88 L133.77,114.77 L134.87,114.42 L135.97,114.20 L137.07,113.93 L138.18,113.66 L139.28,113.45 L140.38,113.42 L141.48,113.00 L142.59,113.36 L143.69,113.01 L144.79,112.55 L145.89,112.38 L146.99,112.52 L148.10,112.50 L149.20,112.48 L150.30,112.21 L151.40,111.84 L152.51,111.93 L153.61,111.88 L154.71,111.67 L155.81,111.37 L156.91,111.46 L158.02,111.51 L159.12,111.27 L160.22,110.98 L161.32,110.71 L162.43,110.80 L163.53,111.03 L164.63,111.03 L165.73,110.80 L166.83,110.76 L167.94,110.37 L169.04,110.16 L170.14,110.04 L171.24,109.88 L172.35,109.97 L173.45,110.19 L174.55,110.16 L175.65,110.12 L176.75,110.09 L177.86,109.98 L178.96,110.14 L180.06,110.15 L181.16,109.96 L182.27,109.93 L183.37,109.94 L184.47,110.10 L185.57,109.92 L186.67,109.89 L187.78,109.75 L188.88,109.79 L189.98,109.73 L191.08,109.63 L192.19,109.57 L193.29,109.47 L194.39,109.52 L195.49,109.28 L196.59,109.19 L197.70,108.99 L198.80,108.97 L199.90,109.09 L201.00,108.93 L202.11,108.95 L203.21,109.00 L204.31,108.98 L205.41,108.99 L206.51,109.00 L207.62,108.95 L208.72,108.84 L209.82,108.82 L210.92,108.80 L212.02,108.69 L213.13,108.67 L214.23,108.47 L215.33,108.58 L216.43,108.56 L217.54,108.55 L218.64,108.41 L219.74,108.40 L220.84,108.41 L221.94,108.37 L223.05,108.39 L224.15,108.46 L225.25,108.48 L226.35,108.58 L227.46,108.59 L228.56,108.72 L229.66,108.85 L230.76,108.92 L231.86,108.79 L232.97,108.75 L234.07,108.79 L235.17,108.69 L236.27,108.59 L237.38,108.53 L238.48,108.54 L239.58,108.58 L240.68,108.62 L241.78,108.47 L242.89,108.38 L243.99,108.47 L245.09,108.38 L246.19,108.40 L247.30,108.39 L248.40,108.66 L249.50,108.72 L250.60,108.86 L251.70,108.90 L252.81,108.91 L253.91,108.82 L255.01,108.93 L256.11,108.99 L257.22,108.98 L258.32,109.01 L259.42,108.90 L260.52,108.79 L261.62,108.97 L262.73,109.00 L263.83,108.97 L264.93,109.00 L266.03,109.01 L267.14,108.85 L268.24,108.84 L269.34,108.73 L270.44,108.61 L271.54,108.59 L272.65,108.63 L273.75,108.73 L274.85,108.67 L275.95,108.80 L277.06,108.76 L278.16,108.73 L279.26,108.67 L280.36,108.68 L281.46,108.72 L282.57,108.68 L283.67,108.60 L284.77,108.55 L285.87,108.54 L286.98,108.46 L288.08,108.43 L289.18,108.42 L290.28,108.41 L291.38,108.40 L292.49,108.35 L293.59,108.30 L294.69,108.27 L295.79,108.24 L296.90,108.15 L298.00,108.16 L299.10,108.13 L300.20,108.14 L301.30,108.13 L302.41,108.12 L303.51,108.10 L304.61,108.09 L305.71,108.06 L306.82,107.93 L307.92,107.83 L309.02,107.80 L310.12,107.75 L311.22,107.77 L312.33,107.70 L313.43,107.58 L314.53,107.42 L315.63,107.57 L316.74,107.47 L317.84,107.46 L318.94,107.47 L320.04,107.45 L321.14,107.52 L322.25,107.57 L323.35,107.51 L324.45,107.43 L325.55,107.43 L326.65,107.37 L327.76,107.34 L328.86,107.27 L329.96,107.19 L331.06,107.07 L332.17,107.02 L333.27,106.96 L334.37,106.97 L335.47,106.92 L336.57,106.88 L337.68,106.79 L338.78,106.71 L339.88,106.66 L340.98,106.69 L342.09,106.66 L343.19,106.67 L344.29,106.55 L345.39,106.44 L346.49,106.42 L347.60,106.42 L348.70,106.34 L349.80,106.35 L350.90,106.32 L352.01,106.27 L353.11,106.25 L354.21,106.17 L355.31,106.12 L356.41,106.12 L357.52,106.13 L358.62,106.18 L359.72,106.15 L360.82,106.07 L361.93,106.08 L363.03,106.07 L364.13,106.05 L365.23,106.02 L366.33,106.02 L367.44,105.99 L368.54,105.88 L369.64,105.96 L370.74,105.94 L371.85,105.96 L372.95,105.99 L374.05,105.95 L375.15,105.95 L376.25,105.92 L377.36,105.89 L378.46,105.80 L379.56,105.75 L380.66,105.69 L381.77,105.77 L382.87,105.75 L383.97,105.68 L385.07,105.67 L386.17,105.58 L387.28,105.58 L388.38,105.43 L389.48,105.34 L390.58,105.37 L391.69,105.33 L392.79,105.26 L393.89,105.23 L394.99,105.23 L396.09,105.19 L397.20,105.21 L398.30,105.17 L399.40,105.09 L400.50,105.06 L401.61,104.95 L402.71,104.89 L403.81,104.82 L404.91,104.76 L406.01,104.69 L407.12,104.66 L408.22,104.61 L409.32,104.54 L410.42,104.46 L411.53,104.34 L412.63,104.28 L413.73,104.18 L414.83,104.20 L415.93,104.15 L417.04,104.12 L418.14,104.05 L419.24,104.05 L420.34,104.02 L421.45,104.02 L422.55,103.95 L423.65,103.88 L424.75,103.79 L425.85,103.70 L426.96,103.60 L428.06,103.59 L429.16,103.48 L430.26,103.43 L431.36,103.40 L432.47,103.31 L433.57,103.27 L434.67,103.22 L435.77,103.14 L436.88,103.07 L437.98,103.06 L439.08,102.97 L440.18,102.98 L441.28,102.91 L442.39,102.85 L443.49,102.82 L444.59,102.72 L445.69,102.64 L446.80,102.50 L447.90,102.42 L449.00,102.35 L450.10,102.31 L451.20,102.27 L452.31,102.20 L453.41,102.11 L454.51,102.08 L455.61,102.01 L456.72,101.93 L457.82,101.89 L458.92,101.84 L460.02,101.76 L461.12,101.73 L462.23,101.61 L463.33,101.56 L464.43,101.48 L465.53,101.41 L466.64,101.36 L467.74,101.29 L468.84,101.22 L469.94,101.16 L471.04,101.12 L472.15,101.06 L473.25,100.98 L474.35,100.91 L475.45,100.84 L476.56,100.81 L477.66,100.79 L478.76,100.75 L479.86,100.65 L480.96,100.67 L482.07,100.60 L483.17,100.50 L484.27,100.44 L485.37,100.34 L486.48,100.32 L487.58,100.21 L488.68,100.12 L489.78,100.04 L490.88,99.95 L491.99,99.92 L493.09,99.86 L494.19,99.80 L495.29,99.76 L496.40,99.67 L497.50,99.59 L498.60,99.52 L499.70,99.43 L500.80,99.37 L501.91,99.30 L503.01,99.31 L504.11,99.25 L505.21,99.16 L506.32,99.10 L507.42,99.05 L508.52,99.01 L509.62,98.95 L510.72,98.90 L511.83,98.88 L512.93,98.80 L514.03,98.74 L515.13,98.65 L516.24,98.58 L517.34,98.52 L518.44,98.47 L519.54,98.44 L520.64,98.39 L521.75,98.30 L522.85,98.24 L523.95,98.19 L525.05,98.12 L526.16,98.04 L527.26,97.96 L528.36,97.87 L529.46,97.81 L530.56,97.74 L531.67,97.72 L532.77,97.65 L533.87,97.57 L534.97,97.48 L536.07,97.39 L537.18,97.34 L538.28,97.29 L539.38,97.23 L540.48,97.18 L541.59,97.08 L542.69,97.05 L543.79,96.98 L544.89,96.95 L545.99,96.91 L547.10,96.83 L548.20,96.77 L549.30,96.71 L550.40,96.66 L551.51,96.60 L552.61,96.52 L553.71,96.48 L554.81,96.43 L555.91,96.37 L557.02,96.26 L558.12,96.21 L559.22,96.14 L560.32,96.11 L561.43,96.06 L562.53,95.99 L563.63,95.94 L564.73,95.89 L565.83,95.89 L566.94,95.97 L568.04,96.01 L569.14,96.02 L570.24,95.98 L571.35,95.97 L572.45,96.02 L573.55,95.98 L574.65,95.91 L575.75,95.89 L576.86,95.89 L577.96,95.92 L579.06,95.92 L580.16,95.92 L581.27,95.94 L582.37,96.02 L583.47,96.08 L584.57,96.07 L585.67,96.13 L586.78,96.14 L587.88,96.14 L588.98,96.10 L590.08,96.08 L591.19,96.07 L592.29,96.05 L593.39,96.07 L594.49,96.09 L595.59,96.09 L596.70,96.12 L597.80,96.10 L598.90,96.11 L600.00,96.17 L601.11,96.16 L602.21,96.16 L603.31,96.12 L604.41,96.12 L605.51,96.13 L606.62,96.13 L607.72,96.14 L608.82,96.11 L609.92,96.10 L611.03,96.12 L612.13,96.09 L613.23,96.13 L614.33,96.16 L615.43,96.16 L616.54,96.15 L617.64,96.11 L618.74,96.10 L619.84,96.10 L620.95,96.09 L622.05,96.06 L623.15,96.02 L624.25,96.01 L625.35,95.99 L626.46,95.94 L627.56,95.91 L628.66,95.92 L629.76,95.93 L630.87,95.90 L631.97,95.92 L633.07,95.91 L634.17,95.87 L635.27,95.86 L636.38,95.84 L637.48,95.82 L638.58,95.81 L639.68,95.77 L640.79,95.72 L641.89,95.66 L642.99,95.61 L644.09,95.62 L645.19,95.58 L646.30,95.57 L647.40,95.55 L648.50,95.53 L649.60,95.51 L650.70,95.49 L651.81,95.48 L652.91,95.46 L654.01,95.41 L655.11,95.39 L656.22,95.33 L657.32,95.30 L658.42,95.27 L659.52,95.26 L660.62,95.25 L661.73,95.27 L662.83,95.28 L663.93,95.27 L665.03,95.25 L666.14,95.23 L667.24,95.24 L668.34,95.22 L669.44,95.25 L670.54,95.24 L671.65,95.17 L672.75,95.15 L673.85,95.11 L674.95,95.08 L676.06,95.02 L677.16,94.98 L678.26,94.95 L679.36,94.92 L680.46,94.91 L681.57,94.87 L682.67,94.83 L683.77,94.79 L684.87,94.75 L685.98,94.73 L687.08,94.70 L688.18,94.66 L689.28,94.62 L690.38,94.65 L691.49,94.63 L692.59,94.59 L693.69,94.56 L694.79,94.55 L695.90,94.48 L697.00,94.49 L698.10,94.48 L699.20,94.47 L700.30,94.43 L701.41,94.39 L702.51,94.39 L703.61,94.37 L704.71,94.33 L705.82,94.30 L706.92,94.28 L708.02,94.23 L709.12,94.21 L710.22,94.17 L711.33,94.14 L712.43,94.10 L713.53,94.10 L714.63,94.11 L715.74,94.12 L716.84,94.10 L717.94,94.09 L719.04,94.07 L720.14,94.03 L721.25,94.00 L722.35,93.98 L723.45,93.91 L724.55,93.87 L725.66,93.84 L726.76,93.84 L727.86,93.82 L728.96,93.78 L730.06,93.75 L731.17,93.70 L732.27,93.67 L733.37,93.64 L734.47,93.60 L735.58,93.58 L736.68,93.55 L737.78,93.57 L738.88,93.53 L739.98,93.48 L741.09,93.45 L742.19,93.42 L743.29,93.41 L744.39,93.38 L745.50,93.34 L746.60,93.31 L747.70,93.29 L748.80,93.25 L749.90,93.18 L751.01,93.15 L752.11,93.11 L753.21,93.10 L754.31,93.10 L755.41,93.07 L756.52,93.03 L757.62,93.02 L758.72,93.00 L759.82,92.97 L760.93,92.93 L762.03,92.89 L763.13,92.87 L764.23,92.84 L765.33,92.80 L766.44,92.76 L767.54,92.74 L768.64,92.74 L769.74,92.70 L770.85,92.67 L771.95,92.65 L773.05,92.59 L774.15,92.58 L775.25,92.54 L776.36,92.52 L777.46,92.48 L778.56,92.45 L779.66,92.46 L780.77,92.45 L781.87,92.41 L782.97,92.38 L784.07,92.37 L785.17,92.35 L786.28,92.30 L787.38,92.26 L788.48,92.24 L789.58,92.20 L790.69,92.17 L791.79,92.13 L792.89,92.10 L793.99,92.07 L795.09,92.06 L796.20,92.01 L797.30,91.96 L798.40,91.95 L799.50,91.94 L800.61,91.92 L801.71,91.90 L802.81,91.89 L803.91,91.87 L805.01,91.87 L806.12,91.85 L807.22,91.81 L808.32,91.81 L809.42,91.79 L810.53,91.75 L811.63,91.71 L812.73,91.69 L813.83,91.66 L814.93,91.61 L816.04,91.59 L817.14,91.59 L818.24,91.56 L819.34,91.51 L820.45,91.50 L821.55,91.45 L822.65,91.44 L823.75,91.40 L824.85,91.40 L825.96,91.39 L827.06,91.38 L828.16,91.35 L829.26,91.31 L830.37,91.28 L831.47,91.24 L832.57,91.22 L833.67,91.22 L834.77,91.18 L835.88,91.13 L836.98,91.09 L838.08,91.07 L839.18,91.05 L840.29,91.03 L841.39,90.99 L842.49,90.95 L843.59,90.93 L844.69,90.90 L845.80,90.86 L846.90,90.82 L848.00,90.79 L849.10,90.75 L850.21,90.74 L851.31,90.71 L852.41,90.68 L853.51,90.64 L854.61,90.63 L855.72,90.57 L856.82,90.55 L857.92,90.50 L859.02,90.46 L860.12,90.42 L861.23,90.41 L862.33,90.38 L863.43,90.35 L864.53,90.33 L865.64,90.29 L866.74,90.25 L867.84,90.24 L868.94,90.24 L870.04,90.20 L871.15,90.20 L872.25,90.16 L873.35,90.14 L874.45,90.12 L875.56,90.10 L876.66,90.09 L877.76,90.09 L878.86,90.06 L879.96,90.06 L881.07,90.04 L882.17,89.99 L883.27,89.95 L884.37,89.90 L885.48,89.88 L886.58,89.84 L887.68,89.80 L888.78,89.77 L889.88,89.74 L890.99,89.73 L892.09,89.70 L893.19,89.67 L894.29,89.63 L895.40,89.61 L896.50,89.57 L897.60,89.54 L898.70,89.51 L899.80,89.49 L900.91,89.47 L902.01,89.44 L903.11,89.42 L904.21,89.38 L905.32,89.35 L906.42,89.33 L907.52,89.31 L908.62,89.28 L909.72,89.26 L910.00,89.25" fill="none" stroke="#1f77b4" stroke-width="2"/>
<text x="915" y="50" font-size="12" fill="#1f77b4">baseline_student</text>
<path d="M50.00,260.94 L51.10,242.19 L52.20,218.75 L53.31,198.83 L54.41,189.69 L55.51,181.25 L56.61,173.21 L57.72,168.95 L58.82,165.62 L59.92,166.25 L61.02,162.93 L62.12,161.33 L63.23,158.89 L64.33,155.80 L65.43,152.19 L66.53,151.95 L67.64,149.82 L68.74,147.66 L69.84,146.71 L70.94,145.39 L72.04,144.64 L73.15,143.54 L74.25,141.10 L75.35,139.45 L76.45,138.88 L77.56,139.24 L78.66,139.06 L79.76,139.23 L80.86,138.42 L81.96,139.06 L83.07,139.52 L84.17,138.92 L85.27,137.64 L86.37,136.44 L87.48,135.85 L88.58,134.90 L89.68,134.38 L90.78,134.25 L91.88,133.53 L92.99,133.20 L94.09,132.32 L95.19,131.70 L96.29,131.00 L97.40,130.22 L98.50,129.17 L99.60,128.16 L100.70,128.19 L101.80,128.03 L102.91,127.20 L104.01,127.06 L105.11,126.47 L106.21,125.99 L107.31,125.71 L108.42,125.61 L109.52,125.51 L110.62,125.33 L111.72,124.84 L112.83,124.35 L113.93,123.57 L115.03,123.36 L116.13,123.23 L117.23,122.88 L118.34,122.77 L119.44,122.29 L120.54,121.97 L121.64,121.59 L122.75,121.50 L123.85,121.35 L124.95,121.20 L126.05,120.98 L127.15,120.84 L128.26,120.70 L129.36,120.63 L130.46,120.69 L131.56,120.25 L132.67,120.00 L133.77,119.70 L134.87,119.11 L135.97,118.65 L137.07,118.38 L138.18,118.17 L139.28,118.03 L140.38,117.77 L141.48,117.41 L142.59,117.89 L143.69,117.59 L144.79,117.35 L145.89,117.28 L146.99,117.26 L148.10,117.08 L149.20,116.81 L150.30,116.54 L151.40,116.38 L152.51,116.57 L153.61,116.37 L154.71,116.06 L155.81,115.77 L156.91,115.86 L158.02,115.96 L159.12,115.81 L160.22,115.58 L161.32,115.35 L162.43,115.31 L163.53,115.31 L164.63,115.22 L165.73,114.96 L166.83,115.01 L167.94,114.71 L169.04,114.64 L170.14,114.60 L171.24,114.36 L172.35,114.41 L173.45,114.59 L174.55,114.39 L175.65,114.20 L176.75,114.05 L177.86,114.06 L178.96,114.16 L180.06,114.13 L181.16,113.87 L182.27,113.77 L183.37,113.67 L184.47,113.64 L185.57,113.43 L186.67,113.45 L187.78,113.47 L188.88,113.45 L189.98,113.46 L191.08,113.37 L192.19,113.25 L193.29,113.08 L194.39,113.03 L195.49,112.84 L196.59,112.65 L197.70,112.47 L198.80,112.35 L199.90,112.37 L201.00,112.26 L202.11,112.32 L203.21,112.24 L204.31,112.20 L205.41,112.19 L206.51,112.08 L207.62,111.88 L208.72,111.71 L209.82,111.71 L210.92,111.67 L212.02,111.60 L213.13,111.60 L214.23,111.34 L215.33,111.40 L216.43,111.31 L217.54,111.37 L218.64,111.24 L219.74,111.21 L220.84,111.15 L221.94,111.06 L223.05,111.06 L224.15,111.03 L225.25,111.03 L226.35,111.11 L227.46,111.14 L228.56,111.20 L229.66,111.22 L230.76,111.34 L231.86,111.28 L232.97,111.13 L234.07,111.10 L235.17,110.99 L236.27,110.94 L237.38,110.88 L238.48,110.91 L239.58,110.94 L240.68,110.99 L241.78,110.83 L242.89,110.70 L243.99,110.75 L245.09,110.70 L246.19,110.57 L247.30,110.60 L248.40,110.78 L249.50,110.83 L250.60,110.91 L251.70,111.01 L252.81,111.01 L253.91,110.94 L255.01,110.99 L256.11,110.96 L257.22,110.94 L258.32,110.99 L259.42,110.84 L260.52,110.67 L261.62,110.77 L262.73,110.79 L263.83,110.87 L264.93,110.82 L266.03,110.84 L267.14,110.72 L268.24,110.70 L269.34,110.63 L270.44,110.52 L271.54,110.50 L272.65,110.52 L273.75,110.59 L274.85,110.53 L275.95,110.64 L277.06,110.51 L278.16,110.49 L279.26,110.40 L280.36,110.36 L281.46,110.38 L282.57,110.38 L283.67,110.32 L284.77,110.19 L285.87,110.15 L286.98,110.16 L288.08,110.12 L289.18,110.12 L290.28,110.08 L291.38,110.06 L292.49,110.00 L293.59,109.99 L294.69,109.95 L295.79,109.87 L296.90,109.83 L298.00,109.86 L299.10,109.78 L300.20,109.85 L301.30,109.83 L302.41,109.82 L303.51,109.78 L304.61,109.85 L305.71,109.81 L306.82,109.72 L307.92,109.56 L309.02,109.51 L310.12,109.43 L311.22,109.46 L312.33,109.35 L313.43,109.22 L314.53,109.07 L315.63,109.21 L316.74,109.12 L317.84,109.11 L318.94,109.06 L320.04,109.03 L321.14,109.08 L322.25,109.14 L323.35,109.11 L324.45,108.95 L325.55,108.94 L326.65,108.93 L327.76,108.92 L328.86,108.83 L329.96,108.75 L331.06,108.69 L332.17,108.60 L333.27,108.54 L334.37,108.57 L335.47,108.50 L336.57,108.41 L337.68,108.36 L338.78,108.39 L339.88,108.40 L340.98,108.35 L342.09,108.31 L343.19,108.30 L344.29,108.23 L345.39,108.13 L346.49,108.07 L347.60,108.08 L348.70,108.08 L349.80,108.09 L350.90,108.08 L352.01,108.09 L353.11,108.07 L354.21,108.01 L355.31,108.02 L356.41,107.91 L357.52,107.92 L358.62,107.90 L359.72,107.95 L360.82,107.87 L361.93,107.85 L363.03,107.80 L364.13,107.76 L365.23,107.75 L366.33,107.71 L367.44,107.64 L368.54,107.56 L369.64,107.60 L370.74,107.63 L371.85,107.69 L372.95,107.70 L374.05,107.68 L375.15,107.63 L376.25,107.61 L377.36,107.56 L378.46,107.47 L379.56,107.36 L380.66,107.28 L381.77,107.32 L382.87,107.24 L383.97,107.14 L385.07,107.13 L386.17,107.08 L387.28,107.14 L388.38,107.01 L389.48,106.98 L390.58,106.98 L391.69,106.93 L392.79,106.82 L393.89,106.77 L394.99,106.73 L396.09,106.65 L397.20,106.64 L398.30,106.58 L399.40,106.52 L400.50,106.46 L401.61,106.34 L402.71,106.28 L403.81,106.24 L404.91,106.15 L406.01,106.03 L407.12,105.92 L408.22,105.88 L409.32,105.82 L410.42,105.74 L411.53,105.58 L412.63,105.44 L413.73,105.36 L414.83,105.32 L415.93,105.22 L417.04,105.13 L418.14,105.03 L419.24,104.98 L420.34,104.97 L421.45,104.96 L422.55,104.91 L423.65,104.83 L424.75,104.78 L425.85,104.66 L426.96,104.57 L428.06,104.56 L429.16,104.47 L430.26,104.42 L431.36,104.40 L432.47,104.30 L433.57,104.20 L434.67,104.13 L435.77,104.02 L436.88,103.96 L437.98,103.91 L439.08,103.79 L440.18,103.82 L441.28,103.74 L442.39,103.69 L443.49,103.64 L444.59,103.53 L445.69,103.44 L446.80,103.30 L447.90,103.22 L449.00,103.15 L450.10,103.11 L451.20,103.07 L452.31,103.01 L453.41,102.93 L454.51,102.91 L455.61,102.86 L456.72,102.75 L457.82,102.66 L458.92,102.61 L460.02,102.57 L461.12,102.50 L462.23,102.42 L463.33,102.34 L464.43,102.25 L465.53,102.18 L466.64,102.09 L467.74,102.02 L468.84,101.96 L469.94,101.88 L471.04,101.87 L472.15,101.79 L473.25,101.70 L474.35,101.62 L475.45,101.56 L476.56,101.53 L477.66,101.47 L478.76,101.41 L479.86,101.30 L480.96,101.32 L482.07,101.26 L483.17,101.16 L484.27,101.05 L485.37,101.01 L486.48,101.01 L487.58,100.89 L488.68,100.81 L489.78,100.75 L490.88,100.71 L491.99,100.64 L493.09,100.55 L494.19,100.46 L495.29,100.43 L496.40,100.35 L497.50,100.26 L498.60,100.17 L499.70,100.08 L500.80,100.03 L501.91,99.97 L503.01,99.94 L504.11,99.85 L505.21,99.80 L506.32,99.71 L507.42,99.65 L508.52,99.62 L509.62,99.57 L510.72,99.49 L511.83,99.44 L512.93,99.38 L514.03,99.30 L515.13,99.24 L516.24,99.16 L517.34,99.09 L518.44,99.08 L519.54,99.03 L520.64,98.98 L521.75,98.89 L522.85,98.83 L523.95,98.78 L525.05,98.71 L526.16,98.63 L527.26,98.55 L528.36,98.47 L529.46,98.41 L530.56,98.36 L531.67,98.32 L532.77,98.25 L533.87,98.19 L534.97,98.12 L536.07,98.05 L537.18,98.00 L538.28,97.95 L539.38,97.90 L540.48,97.82 L541.59,97.71 L542.69,97.67 L543.79,97.60 L544.89,97.54 L545.99,97.49 L547.10,97.42 L548.20,97.34 L549.30,97.26 L550.40,97.25 L551.51,97.18 L552.61,97.11 L553.71,97.08 L554.81,97.01 L555.91,96.93 L557.02,96.82 L558.12,96.76 L559.22,96.72 L560.32,96.66 L561.43,96.61 L562.53,96.55 L563.63,96.49 L564.73,96.44 L565.83,96.42 L566.94,96.50 L568.04,96.54 L569.14,96.53 L570.24,96.48 L571.35,96.46 L572.45,96.45 L573.55,96.42 L574.65,96.38 L575.75,96.37 L576.86,96.34 L577.96,96.36 L579.06,96.34 L580.16,96.29 L581.27,96.27 L582.37,96.34 L583.47,96.36 L584.57,96.35 L585.67,96.37 L586.78,96.36 L587.88,96.39 L588.98,96.32 L590.08,96.29 L591.19,96.27 L592.29,96.24 L593.39,96.23 L594.49,96.22 L595.59,96.20 L596.70,96.21 L597.80,96.19 L598.90,96.19 L600.00,96.23 L601.11,96.24 L602.21,96.27 L603.31,96.27 L604.41,96.28 L605.51,96.29 L606.62,96.28 L607.72,96.28 L608.82,96.28 L609.92,96.24 L611.03,96.24 L612.13,96.21 L613.23,96.24 L614.33,96.29 L615.43,96.28 L616.54,96.27 L617.64,96.23 L618.74,96.20 L619.84,96.19 L620.95,96.13 L622.05,96.12 L623.15,96.09 L624.25,96.07 L625.35,96.03 L626.46,95.99 L627.56,95.96 L628.66,95.94 L629.76,95.92 L630.87,95.88 L631.97,95.88 L633.07,95.86 L634.17,95.82 L635.27,95.80 L636.38,95.77 L637.48,95.73 L638.58,95.74 L639.68,95.69 L640.79,95.63 L641.89,95.59 L642.99,95.55 L644.09,95.54 L645.19,95.53 L646.30,95.53 L647.40,95.50 L648.50,95.50 L649.60,95.46 L650.70,95.42 L651.81,95.40 L652.91,95.36 L654.01,95.30 L655.11,95.26 L656.22,95.23 L657.32,95.19 L658.42,95.15 L659.52,95.14 L660.62,95.16 L661.73,95.16 L662.83,95.13 L663.93,95.10 L665.03,95.05 L666.14,95.03 L667.24,94.99 L668.34,94.97 L669.44,95.00 L670.54,94.97 L671.65,94.93 L672.75,94.95 L673.85,94.91 L674.95,94.89 L676.06,94.86 L677.16,94.82 L678.26,94.81 L679.36,94.77 L680.46,94.75 L681.57,94.71 L682.67,94.66 L683.77,94.60 L684.87,94.58 L685.98,94.58 L687.08,94.55 L688.18,94.55 L689.28,94.54 L690.38,94.56 L691.49,94.54 L692.59,94.52 L693.69,94.48 L694.79,94.48 L695.90,94.42 L697.00,94.44 L698.10,94.42 L699.20,94.42 L700.30,94.40 L701.41,94.34 L702.51,94.32 L703.61,94.31 L704.71,94.28 L705.82,94.24 L706.92,94.24 L708.02,94.18 L709.12,94.14 L710.22,94.09 L711.33,94.07 L712.43,94.03 L713.53,94.01 L714.63,94.00 L715.74,93.99 L716.84,93.97 L717.94,93.98 L719.04,93.95 L720.14,93.91 L721.25,93.89 L722.35,93.86 L723.45,93.80 L724.55,93.76 L725.66,93.72 L726.76,93.67 L727.86,93.63 L728.96,93.62 L730.06,93.61 L731.17,93.55 L732.27,93.55 L733.37,93.52 L734.47,93.49 L735.58,93.47 L736.68,93.43 L737.78,93.43 L738.88,93.39 L739.98,93.38 L741.09,93.37 L742.19,93.34 L743.29,93.34 L744.39,93.30 L745.50,93.27 L746.60,93.22 L747.70,93.21 L748.80,93.17 L749.90,93.12 L751.01,93.11 L752.11,93.07 L753.21,93.05 L754.31,93.04 L755.41,93.01 L756.52,92.96 L757.62,92.92 L758.72,92.89 L759.82,92.87 L760.93,92.85 L762.03,92.83 L763.13,92.81 L764.23,92.78 L765.33,92.74 L766.44,92.70 L767.54,92.65 L768.64,92.65 L769.74,92.62 L770.85,92.57 L771.95,92.54 L773.05,92.49 L774.15,92.44 L775.25,92.39 L776.36,92.38 L777.46,92.35 L778.56,92.33 L779.66,92.32 L780.77,92.27 L781.87,92.22 L782.97,92.18 L784.07,92.16 L785.17,92.12 L786.28,92.07 L787.38,92.03 L788.48,92.01 L789.58,91.99 L790.69,91.95 L791.79,91.92 L792.89,91.88 L793.99,91.83 L795.09,91.81 L796.20,91.77 L797.30,91.74 L798.40,91.72 L799.50,91.70 L800.61,91.65 L801.71,91.63 L802.81,91.60 L803.91,91.57 L805.01,91.56 L806.12,91.52 L807.22,91.47 L808.32,91.45 L809.42,91.42 L810.53,91.37 L811.63,91.33 L812.73,91.29 L813.83,91.28 L814.93,91.23 L816.04,91.19 L817.14,91.20 L818.24,91.17 L819.34,91.12 L820.45,91.11 L821.55,91.06 L822.65,91.05 L823.75,91.01 L824.85,90.98 L825.96,90.92 L827.06,90.91 L828.16,90.85 L829.26,90.82 L830.37,90.79 L831.47,90.75 L832.57,90.72 L833.67,90.67 L834.77,90.62 L835.88,90.57 L836.98,90.57 L838.08,90.54 L839.18,90.55 L840.29,90.52 L841.39,90.48 L842.49,90.45 L843.59,90.43 L844.69,90.42 L845.80,90.38 L846.90,90.34 L848.00,90.31 L849.10,90.26 L850.21,90.23 L851.31,90.21 L852.41,90.18 L853.51,90.15 L854.61,90.10 L855.72,90.07 L856.82,90.07 L857.92,90.03 L859.02,90.01 L860.12,89.97 L861.23,89.96 L862.33,89.93 L863.43,89.89 L864.53,89.86 L865.64,89.83 L866.74,89.82 L867.84,89.78 L868.94,89.74 L870.04,89.71 L871.15,89.70 L872.25,89.66 L873.35,89.62 L874.45,89.59 L875.56,89.57 L876.66,89.57 L877.76,89.55 L878.86,89.52 L879.96,89.50 L881.07,89.49 L882.17,89.45 L883.27,89.43 L884.37,89.38 L885.48,89.37 L886.58,89.33 L887.68,89.29 L888.78,89.26 L889.88,89.25 L890.99,89.24 L892.09,89.20 L893.19,89.18 L894.29,89.14 L895.40,89.12 L896.50,89.08 L897.60,89.06 L898.70,89.02 L899.80,89.00 L900.91,88.96 L902.01,88.93 L903.11,88.90 L904.21,88.87 L905.32,88.83 L906.42,88.81 L907.52,88.78 L908.62,88.75 L909.72,88.72 L910.00,88.71" fill="none" stroke="#ff7f0e" stroke-width="2"/>
<text x="915" y="70" font-size="12" fill="#ff7f0e">mean_teacher</text>
<path d="M50.00,139.06 L51.10,153.12 L52.20,156.25 L53.31,142.58 L54.41,140.94 L55.51,139.84 L56.61,141.07 L57.72,139.06 L58.82,138.02 L59.92,138.59 L61.02,136.93 L62.12,135.16 L63.23,134.38 L64.33,133.37 L65.43,132.19 L66.53,133.79 L67.64,132.72 L68.74,132.29 L69.84,132.40 L70.94,130.86 L72.04,130.80 L73.15,130.75 L74.25,128.87 L75.35,127.34 L76.45,128.00 L77.56,127.88 L78.66,127.26 L79.76,127.68 L80.86,126.94 L81.96,126.41 L83.07,126.51 L84.17,125.73 L85.27,124.86 L86.37,124.45 L87.48,123.93 L88.58,123.44 L89.68,122.97 L90.78,123.03 L91.88,122.48 L92.99,122.19 L94.09,121.23 L95.19,121.09 L96.29,120.86 L97.40,120.21 L98.50,119.38 L99.60,118.99 L100.70,118.82 L101.80,118.55 L102.91,118.11 L104.01,117.87 L105.11,117.56 L106.21,117.34 L107.31,117.39 L108.42,117.45 L109.52,117.50 L110.62,117.63 L111.72,117.27 L112.83,117.00 L113.93,116.26 L115.03,116.33 L116.13,116.24 L117.23,115.85 L118.34,115.85 L119.44,115.70 L120.54,115.48 L121.64,115.13 L122.75,115.07 L123.85,115.00 L124.95,114.88 L126.05,114.62 L127.15,114.50 L128.26,114.45 L129.36,114.47 L130.46,114.36 L131.56,114.06 L132.67,114.02 L133.77,113.92 L134.87,113.58 L135.97,113.25 L137.07,112.99 L138.18,112.91 L139.28,112.65 L140.38,112.46 L141.48,112.11 L142.59,112.70 L143.69,112.46 L144.79,112.23 L145.89,112.16 L146.99,112.31 L148.10,112.45 L149.20,112.28 L150.30,112.11 L151.40,112.05 L152.51,112.13 L153.61,111.92 L154.71,111.67 L155.81,111.37 L156.91,111.51 L158.02,111.55 L159.12,111.41 L160.22,111.22 L161.32,111.03 L162.43,111.12 L163.53,111.39 L164.63,111.29 L165.73,111.11 L166.83,111.11 L167.94,110.89 L169.04,110.81 L170.14,110.94 L171.24,110.81 L172.35,111.02 L173.45,111.27 L174.55,111.06 L175.65,110.94 L176.75,110.90 L177.86,110.90 L178.96,111.14 L180.06,111.13 L181.16,110.98 L182.27,110.98 L183.37,110.98 L184.47,111.05 L185.57,110.86 L186.67,110.82 L187.78,110.79 L188.88,110.86 L189.98,110.79 L191.08,110.68 L192.19,110.72 L193.29,110.62 L194.39,110.65 L195.49,110.44 L196.59,110.27 L197.70,110.17 L198.80,110.11 L199.90,110.15 L201.00,110.02 L202.11,110.13 L203.21,110.17 L204.31,110.17 L205.41,110.15 L206.51,110.15 L207.62,109.96 L208.72,109.87 L209.82,109.88 L210.92,109.95 L212.02,109.86 L213.13,109.71 L214.23,109.50 L215.33,109.63 L216.43,109.61 L217.54,109.62 L218.64,109.45 L219.74,109.40 L220.84,109.34 L221.94,109.27 L223.05,109.28 L224.15,109.35 L225.25,109.36 L226.35,109.51 L227.46,109.55 L228.56,109.76 L229.66,109.88 L230.76,109.97 L231.86,109.95 L232.97,109.90 L234.07,109.96 L235.17,109.83 L236.27,109.75 L237.38,109.76 L238.48,109.77 L239.58,109.85 L240.68,109.99 L241.78,109.97 L242.89,109.95 L243.99,109.98 L245.09,109.96 L246.19,109.86 L247.30,109.87 L248.40,110.06 L249.50,110.09 L250.60,110.27 L251.70,110.35 L252.81,110.38 L253.91,110.38 L255.01,110.46 L256.11,110.44 L257.22,110.47 L258.32,110.52 L259.42,110.45 L260.52,110.30 L261.62,110.45 L262.73,110.48 L263.83,110.48 L264.93,110.46 L266.03,110.51 L267.14,110.35 L268.24,110.33 L269.34,110.26 L270.44,110.14 L271.54,110.15 L272.65,110.13 L273.75,110.20 L274.85,110.16 L275.95,110.28 L277.06,110.17 L278.16,110.15 L279.26,110.11 L280.36,110.11 L281.46,110.18 L282.57,110.21 L283.67,110.10 L284.77,110.00 L285.87,109.91 L286.98,109.92 L288.08,109.88 L289.18,109.91 L290.28,109.89 L291.38,109.89 L292.49,109.86 L293.59,109.76 L294.69,109.80 L295.79,109.79 L296.90,109.81 L298.00,109.86 L299.10,109.86 L300.20,109.93 L301.30,109.91 L302.41,109.90 L303.51,109.86 L304.61,109.93 L305.71,109.87 L306.82,109.80 L307.92,109.74 L309.02,109.73 L310.12,109.69 L311.22,109.70 L312.33,109.62 L313.43,109.49 L314.53,109.32 L315.63,109.43 L316.74,109.36 L317.84,109.36 L318.94,109.37 L320.04,109.43 L321.14,109.48 L322.25,109.50 L323.35,109.53 L324.45,109.38 L325.55,109.37 L326.65,109.24 L327.76,109.23 L328.86,109.09 L329.96,109.01 L331.06,108.91 L332.17,108.88 L333.27,108.81 L334.37,108.82 L335.47,108.85 L336.57,108.78 L337.68,108.72 L338.78,108.69 L339.88,108.66 L340.98,108.64 L342.09,108.63 L343.19,108.66 L344.29,108.59 L345.39,108.50 L346.49,108.45 L347.60,108.43 L348.70,108.42 L349.80,108.40 L350.90,108.34 L352.01,108.33 L353.11,108.32 L354.21,108.33 L355.31,108.32 L356.41,108.25 L357.52,108.24 L358.62,108.25 L359.72,108.23 L360.82,108.15 L361.93,108.16 L363.03,108.19 L364.13,108.13 L365.23,108.08 L366.33,108.09 L367.44,108.12 L368.54,108.11 L369.64,108.18 L370.74,108.08 L371.85,108.09 L372.95,108.16 L374.05,108.16 L375.15,108.10 L376.25,108.08 L377.36,108.06 L378.46,107.96 L379.56,107.83 L380.66,107.75 L381.77,107.76 L382.87,107.75 L383.97,107.67 L385.07,107.66 L386.17,107.66 L387.28,107.69 L388.38,107.56 L389.48,107.52 L390.58,107.51 L391.69,107.46 L392.79,107.35 L393.89,107.33 L394.99,107.32 L396.09,107.23 L397.20,107.21 L398.30,107.17 L399.40,107.09 L400.50,107.07 L401.61,106.95 L402.71,106.88 L403.81,106.83 L404.91,106.74 L406.01,106.68 L407.12,106.64 L408.22,106.55 L409.32,106.49 L410.42,106.44 L411.53,106.32 L412.63,106.24 L413.73,106.18 L414.83,106.17 L415.93,106.07 L417.04,106.07 L418.14,106.04 L419.24,106.01 L420.34,106.01 L421.45,106.00 L422.55,105.92 L423.65,105.82 L424.75,105.76 L425.85,105.66 L426.96,105.55 L428.06,105.53 L429.16,105.43 L430.26,105.36 L431.36,105.33 L432.47,105.25 L433.57,105.16 L434.67,105.08 L435.77,104.98 L436.88,104.93 L437.98,104.90 L439.08,104.78 L440.18,104.82 L441.28,104.71 L442.39,104.63 L443.49,104.60 L444.59,104.50 L445.69,104.43 L446.80,104.29 L447.90,104.22 L449.00,104.12 L450.10,104.07 L451.20,104.00 L452.31,103.96 L453.41,103.87 L454.51,103.83 L455.61,103.75 L456.72,103.64 L457.82,103.58 L458.92,103.52 L460.02,103.47 L461.12,103.46 L462.23,103.35 L463.33,103.28 L464.43,103.20 L465.53,103.15 L466.64,103.08 L467.74,103.02 L468.84,102.94 L469.94,102.91 L471.04,102.88 L472.15,102.84 L473.25,102.77 L474.35,102.72 L475.45,102.65 L476.56,102.63 L477.66,102.59 L478.76,102.54 L479.86,102.45 L480.96,102.42 L482.07,102.37 L483.17,102.28 L484.27,102.22 L485.37,102.14 L486.48,102.12 L487.58,102.02 L488.68,101.90 L489.78,101.84 L490.88,101.78 L491.99,101.69 L493.09,101.62 L494.19,101.53 L495.29,101.52 L496.40,101.45 L497.50,101.36 L498.60,101.29 L499.70,101.20 L500.80,101.13 L501.91,101.05 L503.01,101.06 L504.11,101.02 L505.21,100.94 L506.32,100.87 L507.42,100.82 L508.52,100.75 L509.62,100.68 L510.72,100.61 L511.83,100.59 L512.93,100.52 L514.03,100.43 L515.13,100.35 L516.24,100.29 L517.34,100.21 L518.44,100.19 L519.54,100.14 L520.64,100.07 L521.75,99.99 L522.85,99.92 L523.95,99.87 L525.05,99.77 L526.16,99.71 L527.26,99.63 L528.36,99.55 L529.46,99.50 L530.56,99.45 L531.67,99.40 L532.77,99.37 L533.87,99.31 L534.97,99.21 L536.07,99.14 L537.18,99.10 L538.28,99.05 L539.38,99.01 L540.48,98.99 L541.59,98.89 L542.69,98.88 L543.79,98.81 L544.89,98.76 L545.99,98.75 L547.10,98.68 L548.20,98.62 L549.30,98.58 L550.40,98.55 L551.51,98.50 L552.61,98.42 L553.71,98.39 L554.81,98.33 L555.91,98.29 L557.02,98.21 L558.12,98.12 L559.22,98.07 L560.32,98.05 L561.43,97.97 L562.53,97.90 L563.63,97.85 L564.73,97.81 L565.83,97.79 L566.94,97.86 L568.04,97.92 L569.14,97.97 L570.24,97.92 L571.35,97.90 L572.45,97.92 L573.55,97.92 L574.65,97.89 L575.75,97.86 L576.86,97.84 L577.96,97.86 L579.06,97.85 L580.16,97.81 L581.27,97.79 L582.37,97.81 L583.47,97.84 L584.57,97.82 L585.67,97.86 L586.78,97.85 L587.88,97.83 L588.98,97.82 L590.08,97.79 L591.19,97.80 L592.29,97.79 L593.39,97.81 L594.49,97.85 L595.59,97.83 L596.70,97.87 L597.80,97.86 L598.90,97.87 L600.00,97.90 L601.11,97.90 L602.21,97.91 L603.31,97.87 L604.41,97.85 L605.51,97.84 L606.62,97.83 L607.72,97.81 L608.82,97.79 L609.92,97.77 L611.03,97.78 L612.13,97.76 L613.23,97.82 L614.33,97.83 L615.43,97.85 L616.54,97.85 L617.64,97.83 L618.74,97.78 L619.84,97.77 L620.95,97.75 L622.05,97.71 L623.15,97.66 L624.25,97.63 L625.35,97.59 L626.46,97.57 L627.56,97.57 L628.66,97.58 L629.76,97.56 L630.87,97.51 L631.97,97.50 L633.07,97.49 L634.17,97.44 L635.27,97.42 L636.38,97.39 L637.48,97.38 L638.58,97.37 L639.68,97.33 L640.79,97.29 L641.89,97.26 L642.99,97.20 L644.09,97.17 L645.19,97.16 L646.30,97.13 L647.40,97.09 L648.50,97.09 L649.60,97.05 L650.70,97.04 L651.81,97.03 L652.91,96.99 L654.01,96.96 L655.11,96.97 L656.22,96.92 L657.32,96.88 L658.42,96.84 L659.52,96.82 L660.62,96.78 L661.73,96.78 L662.83,96.78 L663.93,96.77 L665.03,96.72 L666.14,96.69 L667.24,96.67 L668.34,96.66 L669.44,96.65 L670.54,96.61 L671.65,96.56 L672.75,96.60 L673.85,96.55 L674.95,96.54 L676.06,96.51 L677.16,96.46 L678.26,96.42 L679.36,96.38 L680.46,96.33 L681.57,96.29 L682.67,96.24 L683.77,96.20 L684.87,96.14 L685.98,96.14 L687.08,96.11 L688.18,96.07 L689.28,96.07 L690.38,96.09 L691.49,96.09 L692.59,96.06 L693.69,96.05 L694.79,96.02 L695.90,95.98 L697.00,95.95 L698.10,95.94 L699.20,95.93 L700.30,95.92 L701.41,95.87 L702.51,95.83 L703.61,95.79 L704.71,95.78 L705.82,95.73 L706.92,95.76 L708.02,95.71 L709.12,95.69 L710.22,95.63 L711.33,95.61 L712.43,95.57 L713.53,95.58 L714.63,95.56 L715.74,95.56 L716.84,95.54 L717.94,95.53 L719.04,95.50 L720.14,95.47 L721.25,95.46 L722.35,95.44 L723.45,95.40 L724.55,95.36 L725.66,95.33 L726.76,95.28 L727.86,95.25 L728.96,95.23 L730.06,95.21 L731.17,95.18 L732.27,95.15 L733.37,95.11 L734.47,95.07 L735.58,95.04 L736.68,95.01 L737.78,95.00 L738.88,94.96 L739.98,94.92 L741.09,94.88 L742.19,94.86 L743.29,94.84 L744.39,94.77 L745.50,94.72 L746.60,94.65 L747.70,94.63 L748.80,94.59 L749.90,94.56 L751.01,94.53 L752.11,94.49 L753.21,94.46 L754.31,94.46 L755.41,94.43 L756.52,94.36 L757.62,94.35 L758.72,94.31 L759.82,94.27 L760.93,94.24 L762.03,94.19 L763.13,94.14 L764.23,94.11 L765.33,94.06 L766.44,94.02 L767.54,93.98 L768.64,94.00 L769.74,93.97 L770.85,93.92 L771.95,93.87 L773.05,93.83 L774.15,93.79 L775.25,93.74 L776.36,93.75 L777.46,93.73 L778.56,93.70 L779.66,93.69 L780.77,93.64 L781.87,93.58 L782.97,93.54 L784.07,93.52 L785.17,93.46 L786.28,93.43 L787.38,93.38 L788.48,93.35 L789.58,93.32 L790.69,93.31 L791.79,93.28 L792.89,93.26 L793.99,93.22 L795.09,93.18 L796.20,93.15 L797.30,93.11 L798.40,93.08 L799.50,93.07 L800.61,93.04 L801.71,93.01 L802.81,93.00 L803.91,92.97 L805.01,92.97 L806.12,92.92 L807.22,92.90 L808.32,92.90 L809.42,92.88 L810.53,92.85 L811.63,92.81 L812.73,92.78 L813.83,92.75 L814.93,92.71 L816.04,92.70 L817.14,92.68 L818.24,92.62 L819.34,92.58 L820.45,92.54 L821.55,92.49 L822.65,92.47 L823.75,92.42 L824.85,92.39 L825.96,92.39 L827.06,92.37 L828.16,92.33 L829.26,92.29 L830.37,92.25 L831.47,92.23 L832.57,92.18 L833.67,92.15 L834.77,92.10 L835.88,92.05 L836.98,92.04 L838.08,92.01 L839.18,91.98 L840.29,91.97 L841.39,91.91 L842.49,91.89 L843.59,91.86 L844.69,91.86 L845.80,91.83 L846.90,91.79 L848.00,91.75 L849.10,91.70 L850.21,91.70 L851.31,91.66 L852.41,91.62 L853.51,91.60 L854.61,91.56 L855.72,91.53 L856.82,91.51 L857.92,91.46 L859.02,91.44 L860.12,91.42 L861.23,91.41 L862.33,91.37 L863.43,91.34 L864.53,91.31 L865.64,91.27 L866.74,91.25 L867.84,91.22 L868.94,91.21 L870.04,91.17 L871.15,91.16 L872.25,91.12 L873.35,91.09 L874.45,91.07 L875.56,91.04 L876.66,91.02 L877.76,90.99 L878.86,90.96 L879.96,90.94 L881.07,90.94 L882.17,90.90 L883.27,90.87 L884.37,90.81 L885.48,90.79 L886.58,90.75 L887.68,90.70 L888.78,90.69 L889.88,90.69 L890.99,90.66 L892.09,90.63 L893.19,90.61 L894.29,90.59 L895.40,90.56 L896.50,90.52 L897.60,90.50 L898.70,90.48 L899.80,90.44 L900.91,90.42 L902.01,90.39 L903.11,90.37 L904.21,90.32 L905.32,90.29 L906.42,90.27 L907.52,90.25 L908.62,90.22 L909.72,90.19 L910.00,90.18" fill="none" stroke="#2ca02c" stroke-width="2"/>
<text x="915" y="90" font-size="12" fill="#2ca02c">ts_drift_adapt</text>
</svg>