<svg width="960" height="400" xmlns="http://www.w3.org/2000/svg">
<rect x="0" y="0" width="960" height="400" fill="#ffffff" stroke="#dddddd"/>
<line x1="50" y1="50" x2="50" y2="350" stroke="#444444"/>
<line x1="50" y1="350" x2="910" y2="350" stroke="#444444"/>
<text x="480.0" y="30" text-anchor="middle" font-size="18">sine_abrupt4 Accuracy</text>
<path d="M50.00,190.62 L51.10,183.59 L52.20,167.19 L53.31,166.02 L54.41,161.56 L55.51,154.69 L56.61,147.77 L57.72,144.34 L58.82,138.54 L59.92,137.66 L61.02,134.80 L62.12,132.42 L63.23,129.33 L64.33,126.34 L65.43,124.38 L66.53,120.90 L67.64,120.31 L68.74,118.75 L69.84,116.61 L70.94,115.62 L72.04,114.06 L73.15,113.07 L74.25,112.77 L75.35,111.72 L76.45,111.50 L77.56,110.76 L78.66,109.72 L79.76,109.60 L80.86,108.35 L81.96,107.66 L83.07,107.16 L84.17,106.25 L85.27,105.11 L86.37,104.60 L87.48,104.24 L88.58,104.04 L89.68,103.72 L90.78,102.80 L91.88,102.76 L92.99,102.62 L94.09,101.56 L95.19,101.23 L96.29,100.80 L97.40,100.28 L98.50,99.90 L99.60,100.14 L100.70,99.87 L101.80,99.22 L102.91,98.79 L104.01,98.75 L105.11,98.62 L106.21,98.14 L107.31,97.85 L108.42,97.31 L109.52,97.22 L110.62,97.21 L111.72,97.04 L112.83,96.96 L113.93,96.80 L115.03,96.56 L116.13,96.18 L117.23,95.89 L118.34,95.39 L119.44,95.34 L120.54,95.43 L121.64,95.24 L122.75,94.92 L123.85,94.74 L124.95,94.63 L126.05,94.26 L127.15,94.30 L128.26,94.01 L129.36,93.86 L130.46,93.83 L131.56,93.81 L132.67,93.61 L133.77,93.22 L134.87,93.27 L135.97,93.20 L137.07,92.95 L138.18,92.65 L139.28,92.30 L140.38,92.07 L141.48,91.80 L142.59,91.53 L143.69,91.26 L144.79,90.89 L145.89,90.48 L146.99,90.34 L148.10,90.05 L149.20,89.82 L150.30,89.49 L151.40,89.31 L152.51,89.05 L153.61,89.03 L154.71,88.96 L155.81,89.09 L156.91,88.74 L158.02,88.78 L159.12,88.53 L160.22,88.24 L161.32,88.01 L162.43,87.96 L163.53,87.95 L164.63,87.77 L165.73,87.63 L166.83,87.63 L167.94,87.59 L169.04,87.37 L170.14,87.24 L171.24,87.08 L172.35,86.83 L173.45,86.71 L174.55,86.47 L175.65,86.20 L176.75,86.00 L177.86,85.82 L178.96,85.79 L180.06,85.81 L181.16,85.86 L182.27,85.80 L183.37,85.73 L184.47,85.79 L185.57,85.65 L186.67,85.47 L187.78,85.23 L188.88,84.99 L189.98,84.75 L191.08,84.59 L192.19,84.44 L193.29,84.21 L194.39,84.09 L195.49,83.87 L196.59,83.65 L197.70,83.58 L198.80,83.33 L199.90,83.15 L201.00,82.98 L202.11,82.85 L203.21,82.68 L204.31,82.58 L205.41,82.42 L206.51,82.29 L207.62,82.13 L208.72,82.07 L209.82,81.88 L210.92,81.82 L212.02,81.70 L213.13,81.55 L214.23,81.41 L215.33,81.26 L216.43,81.09 L217.54,80.91 L218.64,80.83 L219.74,80.67 L220.84,80.56 L221.94,81.74 L223.05,83.44 L224.15,85.11 L225.25,86.68 L226.35,88.29 L227.46,89.76 L228.56,91.21 L229.66,92.76 L230.76,94.29 L231.86,95.60 L232.97,97.10 L234.07,98.55 L235.17,100.01 L236.27,101.26 L237.38,102.60 L238.48,103.80 L239.58,104.71 L240.68,105.71 L241.78,106.57 L242.89,107.02 L243.99,107.71 L245.09,108.38 L246.19,108.82 L247.30,109.30 L248.40,109.56 L249.50,110.27 L250.60,110.68 L251.70,110.96 L252.81,111.52 L253.91,111.82 L255.01,112.29 L256.11,112.73 L257.22,113.22 L258.32,113.73 L259.42,114.28 L260.52,114.75 L261.62,115.41 L262.73,115.82 L263.83,116.20 L264.93,116.65 L266.03,116.93 L267.14,117.50 L268.24,117.82 L269.34,118.06 L270.44,118.33 L271.54,118.73 L272.65,118.95 L273.75,119.03 L274.85,119.21 L275.95,119.43 L277.06,119.34 L278.16,119.41 L279.26,119.37 L280.36,119.33 L281.46,119.27 L282.57,119.21 L283.67,119.12 L284.77,118.95 L285.87,118.92 L286.98,118.90 L288.08,118.87 L289.18,118.85 L290.28,118.79 L291.38,118.69 L292.49,118.62 L293.59,118.64 L294.69,118.69 L295.79,118.72 L296.90,118.75 L298.00,118.80 L299.10,118.68 L300.20,118.71 L301.30,118.61 L302.41,118.52 L303.51,118.36 L304.61,118.39 L305.71,118.34 L306.82,118.21 L307.92,118.12 L309.02,117.95 L310.12,117.82 L311.22,117.61 L312.33,117.45 L313.43,117.23 L314.53,117.08 L315.63,116.98 L316.74,116.86 L317.84,116.72 L318.94,116.64 L320.04,116.52 L321.14,116.44 L322.25,116.31 L323.35,116.15 L324.45,115.98 L325.55,115.91 L326.65,115.74 L327.76,115.48 L328.86,115.33 L329.96,115.20 L331.06,115.09 L332.17,114.93 L333.27,114.88 L334.37,114.85 L335.47,114.81 L336.57,114.60 L337.68,114.53 L338.78,114.38 L339.88,114.26 L340.98,114.09 L342.09,113.92 L343.19,113.76 L344.29,113.58 L345.39,113.41 L346.49,113.23 L347.60,113.10 L348.70,112.92 L349.80,112.76 L350.90,112.65 L352.01,112.56 L353.11,112.50 L354.21,112.36 L355.31,112.24 L356.41,112.10 L357.52,111.94 L358.62,111.77 L359.72,111.59 L360.82,111.40 L361.93,111.22 L363.03,111.10 L364.13,110.99 L365.23,110.86 L366.33,110.81 L367.44,110.66 L368.54,110.50 L369.64,110.42 L370.74,110.41 L371.85,110.33 L372.95,110.32 L374.05,110.22 L375.15,110.19 L376.25,110.10 L377.36,109.96 L378.46,109.82 L379.56,109.72 L380.66,109.57 L381.77,109.42 L382.87,109.28 L383.97,109.13 L385.07,109.02 L386.17,108.85 L387.28,108.75 L388.38,108.62 L389.48,108.51 L390.58,108.35 L391.69,108.18 L392.79,108.02 L393.89,108.21 L394.99,108.67 L396.09,109.20 L397.20,109.66 L398.30,110.23 L399.40,110.70 L400.50,111.13 L401.61,111.57 L402.71,112.12 L403.81,112.60 L404.91,113.04 L406.01,113.44 L407.12,113.82 L408.22,114.19 L409.32,114.54 L410.42,114.80 L411.53,115.20 L412.63,115.55 L413.73,115.92 L414.83,116.39 L415.93,116.77 L417.04,117.14 L418.14,117.46 L419.24,117.83 L420.34,118.14 L421.45,118.52 L422.55,118.85 L423.65,119.15 L424.75,119.45 L425.85,119.63 L426.96,119.77 L428.06,119.90 L429.16,120.16 L430.26,120.41 L431.36,120.62 L432.47,120.84 L433.57,120.97 L434.67,121.04 L435.77,121.19 L436.88,121.36 L437.98,121.57 L439.08,121.76 L440.18,121.80 L441.28,121.97 L442.39,122.14 L443.49,122.30 L444.59,122.45 L445.69,122.57 L446.80,122.81 L447.90,122.98 L449.00,123.11 L450.10,123.24 L451.20,123.28 L452.31,123.39 L453.41,123.49 L454.51,123.51 L455.61,123.56 L456.72,123.62 L457.82,123.69 L458.92,123.75 L460.02,123.84 L461.12,123.82 L462.23,123.84 L463.33,123.85 L464.43,123.88 L465.53,123.97 L466.64,124.15 L467.74,124.25 L468.84,124.37 L469.94,124.46 L471.04,124.55 L472.15,124.74 L473.25,124.83 L474.35,124.96 L475.45,125.08 L476.56,125.11 L477.66,125.18 L478.76,125.18 L479.86,125.19 L480.96,125.20 L482.07,125.16 L483.17,125.11 L484.27,125.06 L485.37,125.05 L486.48,124.96 L487.58,124.95 L488.68,124.94 L489.78,124.95 L490.88,124.93 L491.99,124.87 L493.09,124.91 L494.19,124.92 L495.29,124.84 L496.40,124.80 L497.50,124.75 L498.60,124.66 L499.70,124.66 L500.80,124.63 L501.91,124.62 L503.01,124.56 L504.11,124.51 L505.21,124.49 L506.32,124.45 L507.42,124.44 L508.52,124.42 L509.62,124.35 L510.72,124.28 L511.83,124.23 L512.93,124.21 L514.03,124.14 L515.13,124.18 L516.24,124.25 L517.34,124.25 L518.44,124.31 L519.54,124.29 L520.64,124.26 L521.75,124.24 L522.85,124.15 L523.95,124.14 L525.05,124.08 L526.16,123.99 L527.26,123.95 L528.36,123.91 L529.46,123.83 L530.56,123.73 L531.67,123.65 L532.77,123.59 L533.87,123.57 L534.97,123.52 L536.07,123.48 L537.18,123.43 L538.28,123.36 L539.38,123.34 L540.48,123.27 L541.59,123.26 L542.69,123.19 L543.79,123.15 L544.89,123.14 L545.99,123.13 L547.10,123.15 L548.20,123.19 L549.30,123.18 L550.40,123.19 L551.51,123.14 L552.61,123.09 L553.71,123.03 L554.81,123.01 L555.91,122.97 L557.02,122.95 L558.12,122.92 L559.22,122.91 L560.32,122.81 L561.43,122.79 L562.53,122.76 L563.63,122.67 L564.73,122.65 L565.83,122.74 L566.94,123.11 L568.04,123.45 L569.14,123.82 L570.24,124.18 L571.35,124.56 L572.45,124.92 L573.55,125.27 L574.65,125.58 L575.75,125.83 L576.86,126.11 L577.96,126.41 L579.06,126.74 L580.16,127.04 L581.27,127.25 L582.37,127.52 L583.47,127.74 L584.57,127.95 L585.67,128.15 L586.78,128.30 L587.88,128.52 L588.98,128.64 L590.08,128.80 L591.19,128.96 L592.29,129.16 L593.39,129.29 L594.49,129.36 L595.59,129.47 L596.70,129.56 L597.80,129.70 L598.90,129.81 L600.00,129.96 L601.11,130.14 L602.21,130.27 L603.31,130.39 L604.41,130.53 L605.51,130.63 L606.62,130.86 L607.72,131.02 L608.82,131.15 L609.92,131.31 L611.03,131.47 L612.13,131.62 L613.23,131.78 L614.33,131.91 L615.43,132.02 L616.54,132.07 L617.64,132.18 L618.74,132.30 L619.84,132.38 L620.95,132.41 L622.05,132.51 L623.15,132.64 L624.25,132.81 L625.35,132.84 L626.46,132.99 L627.56,133.08 L628.66,133.21 L629.76,133.31 L630.87,133.39 L631.97,133.50 L633.07,133.64 L634.17,133.77 L635.27,133.86 L636.38,133.96 L637.48,134.09 L638.58,134.12 L639.68,134.26 L640.79,134.34 L641.89,134.42 L642.99,134.51 L644.09,134.64 L645.19,134.76 L646.30,134.79 L647.40,134.88 L648.50,134.94 L649.60,135.02 L650.70,135.11 L651.81,135.18 L652.91,135.28 L654.01,135.28 L655.11,135.36 L656.22,135.49 L657.32,135.56 L658.42,135.60 L659.52,135.58 L660.62,135.68 L661.73,135.77 L662.83,135.80 L663.93,135.90 L665.03,136.01 L666.14,136.11 L667.24,136.19 L668.34,136.24 L669.44,136.31 L670.54,136.38 L671.65,136.48 L672.75,136.51 L673.85,136.55 L674.95,136.61 L676.06,136.67 L677.16,136.77 L678.26,136.81 L679.36,136.88 L680.46,136.94 L681.57,136.96 L682.67,137.06 L683.77,137.12 L684.87,137.16 L685.98,137.24 L687.08,137.33 L688.18,137.44 L689.28,137.47 L690.38,137.53 L691.49,137.58 L692.59,137.60 L693.69,137.64 L694.79,137.69 L695.90,137.73 L697.00,137.77 L698.10,137.77 L699.20,137.81 L700.30,137.85 L701.41,137.91 L702.51,137.97 L703.61,137.99 L704.71,137.99 L705.82,137.97 L706.92,138.05 L708.02,138.11 L709.12,138.15 L710.22,138.11 L711.33,138.24 L712.43,138.28 L713.53,138.36 L714.63,138.40 L715.74,138.47 L716.84,138.47 L717.94,138.55 L719.04,138.63 L720.14,138.62 L721.25,138.64 L722.35,138.70 L723.45,138.71 L724.55,138.72 L725.66,138.76 L726.76,138.78 L727.86,138.86 L728.96,138.90 L730.06,138.93 L731.17,138.94 L732.27,138.99 L733.37,139.02 L734.47,139.02 L735.58,139.03 L736.68,139.06 L737.78,139.10 L738.88,139.32 L739.98,139.59 L741.09,139.82 L742.19,140.09 L743.29,140.39 L744.39,140.66 L745.50,140.94 L746.60,141.21 L747.70,141.50 L748.80,141.76 L749.90,142.05 L751.01,142.26 L752.11,142.47 L753.21,142.70 L754.31,142.94 L755.41,143.17 L756.52,143.36 L757.62,143.55 L758.72,143.74 L759.82,143.90 L760.93,144.02 L762.03,144.19 L763.13,144.31 L764.23,144.41 L765.33,144.54 L766.44,144.60 L767.54,144.68 L768.64,144.74 L769.74,144.79 L770.85,144.84 L771.95,144.89 L773.05,144.96 L774.15,145.07 L775.25,145.10 L776.36,145.19 L777.46,145.21 L778.56,145.31 L779.66,145.37 L780.77,145.51 L781.87,145.60 L782.97,145.64 L784.07,145.71 L785.17,145.79 L786.28,145.92 L787.38,145.95 L788.48,146.01 L789.58,146.08 L790.69,146.16 L791.79,146.27 L792.89,146.35 L793.99,146.38 L795.09,146.46 L796.20,146.49 L797.30,146.53 L798.40,146.60 L799.50,146.64 L800.61,146.72 L801.71,146.80 L802.81,146.85 L803.91,146.89 L805.01,146.95 L806.12,147.01 L807.22,147.05 L808.32,147.10 L809.42,147.16 L810.53,147.23 L811.63,147.28 L812.73,147.35 L813.83,147.42 L814.93,147.49 L816.04,147.54 L817.14,147.55 L818.24,147.60 L819.34,147.67 L820.45,147.71 L821.55,147.78 L822.65,147.86 L823.75,147.94 L824.85,148.03 L825.96,148.07 L827.06,148.13 L828.16,148.16 L829.26,148.25 L830.37,148.32 L831.47,148.42 L832.57,148.47 L833.67,148.53 L834.77,148.58 L835.88,148.65 L836.98,148.69 L838.08,148.79 L839.18,148.83 L840.29,148.89 L841.39,148.93 L842.49,149.00 L843.59,149.09 L844.69,149.14 L845.80,149.22 L846.90,149.20 L848.00,149.20 L849.10,149.21 L850.21,149.21 L851.31,149.20 L852.41,149.15 L853.51,149.16 L854.61,149.11 L855.72,149.03 L856.82,148.94 L857.92,148.85 L859.02,148.76 L860.12,148.65 L861.23,148.56 L862.33,148.52 L863.43,148.44 L864.53,148.36 L865.64,148.29 L866.74,148.22 L867.84,148.13 L868.94,148.02 L870.04,147.94 L871.15,147.85 L872.25,147.76 L873.35,147.65 L874.45,147.57 L875.56,147.51 L876.66,147.41 L877.76,147.34 L878.86,147.28 L879.96,147.20 L881.07,147.13 L882.17,147.07 L883.27,146.98 L884.37,146.91 L885.48,146.83 L886.58,146.81 L887.68,146.76 L888.78,146.68 L889.88,146.59 L890.99,146.52 L892.09,146.42 L893.19,146.33 L894.29,146.24 L895.40,146.17 L896.50,146.08 L897.60,145.99 L898.70,145.88 L899.80,145.78 L900.91,145.70 L902.01,145.59 L903.11,145.50 L904.21,145.44 L905.32,145.37 L906.42,145.29 L907.52,145.18 L908.62,145.10 L909.72,145.03 L910.00,145.02" fill="none" stroke="#1f77b4" stroke-width="2"/>
<text x="915" y="50" font-size="12" fill="#1f77b4">baseline_student</text>
<path d="M50.00,176.56 L51.10,178.91 L52.20,170.31 L53.31,176.56 L54.41,174.69 L55.51,175.00 L56.61,169.20 L57.72,163.09 L58.82,153.12 L59.92,146.09 L61.02,140.34 L62.12,137.11 L63.23,132.57 L64.33,129.69 L65.43,126.25 L66.53,122.95 L67.64,120.04 L68.74,117.19 L69.84,114.64 L70.94,111.88 L72.04,109.82 L73.15,108.38 L74.25,106.86 L75.35,105.27 L76.45,104.38 L77.56,103.19 L78.66,101.39 L79.76,100.06 L80.86,99.14 L81.96,97.66 L83.07,96.72 L84.17,95.70 L85.27,94.89 L86.37,94.53 L87.48,93.79 L88.58,93.88 L89.68,93.33 L90.78,92.43 L91.88,92.07 L92.99,91.13 L94.09,90.59 L95.19,90.40 L96.29,90.23 L97.40,89.63 L98.50,88.85 L99.60,88.32 L100.70,88.00 L101.80,87.50 L102.91,87.31 L104.01,87.31 L105.11,86.76 L106.21,86.51 L107.31,86.35 L108.42,85.94 L109.52,85.28 L110.62,85.07 L111.72,84.79 L112.83,84.99 L113.93,84.64 L115.03,84.53 L116.13,84.27 L117.23,84.02 L118.34,83.56 L119.44,83.33 L120.54,83.25 L121.64,82.95 L122.75,82.60 L123.85,82.47 L124.95,82.47 L126.05,82.28 L127.15,82.28 L128.26,81.97 L129.36,81.66 L130.46,81.36 L131.56,81.25 L132.67,80.96 L133.77,80.68 L134.87,80.47 L135.97,80.26 L137.07,80.00 L138.18,79.98 L139.28,79.90 L140.38,79.65 L141.48,79.52 L142.59,79.34 L143.69,79.38 L144.79,79.31 L145.89,79.19 L146.99,78.97 L148.10,78.80 L149.20,78.64 L150.30,78.38 L151.40,78.18 L152.51,77.98 L153.61,77.83 L154.71,77.69 L155.81,77.64 L156.91,77.50 L158.02,77.41 L159.12,77.28 L160.22,77.15 L161.32,77.07 L162.43,76.99 L163.53,77.22 L164.63,77.14 L165.73,77.15 L166.83,77.38 L167.94,77.47 L169.04,77.35 L170.14,77.32 L171.24,77.20 L172.35,77.08 L173.45,76.96 L174.55,76.81 L175.65,76.66 L176.75,76.43 L177.86,76.24 L178.96,76.22 L180.06,76.23 L181.16,76.25 L182.27,76.23 L183.37,76.05 L184.47,76.03 L185.57,75.82 L186.67,75.73 L187.78,75.52 L188.88,75.39 L189.98,75.31 L191.08,75.22 L192.19,75.06 L193.29,75.01 L194.39,74.89 L195.49,74.78 L196.59,74.59 L197.70,74.44 L198.80,74.37 L199.90,74.22 L201.00,74.08 L202.11,73.94 L203.21,73.77 L204.31,73.60 L205.41,73.54 L206.51,73.40 L207.62,73.27 L208.72,73.18 L209.82,73.08 L210.92,73.05 L212.02,72.96 L213.13,72.87 L214.23,72.84 L215.33,72.82 L216.43,72.76 L217.54,72.61 L218.64,72.55 L219.74,72.44 L220.84,72.36 L221.94,73.56 L223.05,75.28 L224.15,77.00 L225.25,78.71 L226.35,80.40 L227.46,82.00 L228.56,83.53 L229.66,85.10 L230.76,86.62 L231.86,88.12 L232.97,89.61 L234.07,91.07 L235.17,92.41 L236.27,93.70 L237.38,95.12 L238.48,96.38 L239.58,97.66 L240.68,98.87 L241.78,100.06 L242.89,101.24 L243.99,102.17 L245.09,103.27 L246.19,104.55 L247.30,105.49 L248.40,106.64 L249.50,107.49 L250.60,108.30 L251.70,109.26 L252.81,110.03 L253.91,110.96 L255.01,111.76 L256.11,112.63 L257.22,113.39 L258.32,114.29 L259.42,115.09 L260.52,115.92 L261.62,116.91 L262.73,117.68 L263.83,118.56 L264.93,119.38 L266.03,120.15 L267.14,121.09 L268.24,121.84 L269.34,122.54 L270.44,123.04 L271.54,123.47 L272.65,124.03 L273.75,124.43 L274.85,124.79 L275.95,125.39 L277.06,125.48 L278.16,125.88 L279.26,126.26 L280.36,126.50 L281.46,126.82 L282.57,126.97 L283.67,127.13 L284.77,127.37 L285.87,127.55 L286.98,127.67 L288.08,127.76 L289.18,127.80 L290.28,127.78 L291.38,127.77 L292.49,127.65 L293.59,127.62 L294.69,127.48 L295.79,127.51 L296.90,127.40 L298.00,127.34 L299.10,127.19 L300.20,127.01 L301.30,126.90 L302.41,126.77 L303.51,126.60 L304.61,126.58 L305.71,126.55 L306.82,126.48 L307.92,126.48 L309.02,126.33 L310.12,126.29 L311.22,126.12 L312.33,126.04 L313.43,126.00 L314.53,125.89 L315.63,125.72 L316.74,125.60 L317.84,125.52 L318.94,125.40 L320.04,125.25 L321.14,125.17 L322.25,125.02 L323.35,124.89 L324.45,124.79 L325.55,124.68 L326.65,124.53 L327.76,124.31 L328.86,124.08 L329.96,123.99 L331.06,123.81 L332.17,123.63 L333.27,123.47 L334.37,123.33 L335.47,123.25 L336.57,123.02 L337.68,122.92 L338.78,122.75 L339.88,122.64 L340.98,122.42 L342.09,122.23 L343.19,122.07 L344.29,121.92 L345.39,121.74 L346.49,121.53 L347.60,121.44 L348.70,121.28 L349.80,121.17 L350.90,121.13 L352.01,120.99 L353.11,120.89 L354.21,120.80 L355.31,120.72 L356.41,120.61 L357.52,120.48 L358.62,120.28 L359.72,120.08 L360.82,119.95 L361.93,119.70 L363.03,119.57 L364.13,119.38 L365.23,119.17 L366.33,119.04 L367.44,118.84 L368.54,118.65 L369.64,118.52 L370.74,118.45 L371.85,118.36 L372.95,118.30 L374.05,118.17 L375.15,118.13 L376.25,118.06 L377.36,117.87 L378.46,117.79 L379.56,117.73 L380.66,117.60 L381.77,117.44 L382.87,117.36 L383.97,117.20 L385.07,117.01 L386.17,116.87 L387.28,116.68 L388.38,116.49 L389.48,116.38 L390.58,116.20 L391.69,116.06 L392.79,115.91 L393.89,116.06 L394.99,116.51 L396.09,116.99 L397.20,117.42 L398.30,117.95 L399.40,118.38 L400.50,118.80 L401.61,119.18 L402.71,119.70 L403.81,120.15 L404.91,120.54 L406.01,120.91 L407.12,121.28 L408.22,121.66 L409.32,122.02 L410.42,122.31 L411.53,122.65 L412.63,122.95 L413.73,123.36 L414.83,123.83 L415.93,124.17 L417.04,124.51 L418.14,124.83 L419.24,125.20 L420.34,125.50 L421.45,125.87 L422.55,126.13 L423.65,126.42 L424.75,126.80 L425.85,127.11 L426.96,127.39 L428.06,127.74 L429.16,128.10 L430.26,128.44 L431.36,128.76 L432.47,129.00 L433.57,129.27 L434.67,129.50 L435.77,129.71 L436.88,129.85 L437.98,129.98 L439.08,130.07 L440.18,130.03 L441.28,130.06 L442.39,130.08 L443.49,130.11 L444.59,130.12 L445.69,130.08 L446.80,130.04 L447.90,129.96 L449.00,129.93 L450.10,129.88 L451.20,129.87 L452.31,129.83 L453.41,129.79 L454.51,129.75 L455.61,129.67 L456.72,129.62 L457.82,129.50 L458.92,129.40 L460.02,129.35 L461.12,129.27 L462.23,129.18 L463.33,129.09 L464.43,128.98 L465.53,128.97 L466.64,128.96 L467.74,128.94 L468.84,128.99 L469.94,128.98 L471.04,128.90 L472.15,128.94 L473.25,128.88 L474.35,128.83 L475.45,128.83 L476.56,128.73 L477.66,128.65 L478.76,128.58 L479.86,128.57 L480.96,128.52 L482.07,128.48 L483.17,128.39 L484.27,128.32 L485.37,128.24 L486.48,128.15 L487.58,128.10 L488.68,128.08 L489.78,127.99 L490.88,127.89 L491.99,127.78 L493.09,127.79 L494.19,127.82 L495.29,127.71 L496.40,127.63 L497.50,127.55 L498.60,127.48 L499.70,127.46 L500.80,127.44 L501.91,127.42 L503.01,127.34 L504.11,127.27 L505.21,127.20 L506.32,127.13 L507.42,127.10 L508.52,127.01 L509.62,126.93 L510.72,126.83 L511.83,126.77 L512.93,126.71 L514.03,126.63 L515.13,126.58 L516.24,126.59 L517.34,126.54 L518.44,126.57 L519.54,126.53 L520.64,126.48 L521.75,126.42 L522.85,126.34 L523.95,126.32 L525.05,126.23 L526.16,126.17 L527.26,126.14 L528.36,126.10 L529.46,126.00 L530.56,125.89 L531.67,125.82 L532.77,125.76 L533.87,125.72 L534.97,125.66 L536.07,125.59 L537.18,125.52 L538.28,125.46 L539.38,125.43 L540.48,125.39 L541.59,125.35 L542.69,125.27 L543.79,125.24 L544.89,125.15 L545.99,125.07 L547.10,125.07 L548.20,125.11 L549.30,125.07 L550.40,125.02 L551.51,125.00 L552.61,124.91 L553.71,124.86 L554.81,124.84 L555.91,124.79 L557.02,124.72 L558.12,124.63 L559.22,124.60 L560.32,124.49 L561.43,124.49 L562.53,124.49 L563.63,124.40 L564.73,124.33 L565.83,124.39 L566.94,124.75 L568.04,125.15 L569.14,125.56 L570.24,125.94 L571.35,126.32 L572.45,126.73 L573.55,127.09 L574.65,127.46 L575.75,127.86 L576.86,128.25 L577.96,128.60 L579.06,128.98 L580.16,129.35 L581.27,129.66 L582.37,130.02 L583.47,130.35 L584.57,130.71 L585.67,131.06 L586.78,131.41 L587.88,131.73 L588.98,132.06 L590.08,132.37 L591.19,132.72 L592.29,133.02 L593.39,133.30 L594.49,133.53 L595.59,133.79 L596.70,134.04 L597.80,134.36 L598.90,134.56 L600.00,134.80 L601.11,135.03 L602.21,135.25 L603.31,135.47 L604.41,135.64 L605.51,135.80 L606.62,136.08 L607.72,136.29 L608.82,136.47 L609.92,136.59 L611.03,136.75 L612.13,136.92 L613.23,137.03 L614.33,137.15 L615.43,137.28 L616.54,137.45 L617.64,137.53 L618.74,137.69 L619.84,137.84 L620.95,137.94 L622.05,138.08 L623.15,138.23 L624.25,138.36 L625.35,138.39 L626.46,138.55 L627.56,138.66 L628.66,138.75 L629.76,138.88 L630.87,138.95 L631.97,139.07 L633.07,139.15 L634.17,139.21 L635.27,139.33 L636.38,139.41 L637.48,139.46 L638.58,139.53 L639.68,139.61 L640.79,139.73 L641.89,139.72 L642.99,139.81 L644.09,139.84 L645.19,139.93 L646.30,140.01 L647.40,140.05 L648.50,140.05 L649.60,140.10 L650.70,140.15 L651.81,140.21 L652.91,140.28 L654.01,140.31 L655.11,140.34 L656.22,140.36 L657.32,140.42 L658.42,140.44 L659.52,140.55 L660.62,140.60 L661.73,140.64 L662.83,140.67 L663.93,140.71 L665.03,140.73 L666.14,140.75 L667.24,140.75 L668.34,140.71 L669.44,140.76 L670.54,140.71 L671.65,140.75 L672.75,140.76 L673.85,140.76 L674.95,140.75 L676.06,140.75 L677.16,140.77 L678.26,140.73 L679.36,140.73 L680.46,140.69 L681.57,140.66 L682.67,140.63 L683.77,140.55 L684.87,140.55 L685.98,140.53 L687.08,140.50 L688.18,140.53 L689.28,140.52 L690.38,140.54 L691.49,140.53 L692.59,140.48 L693.69,140.45 L694.79,140.45 L695.90,140.47 L697.00,140.43 L698.10,140.38 L699.20,140.36 L700.30,140.36 L701.41,140.35 L702.51,140.30 L703.61,140.30 L704.71,140.27 L705.82,140.16 L706.92,140.20 L708.02,140.16 L709.12,140.17 L710.22,140.12 L711.33,140.08 L712.43,140.05 L713.53,140.03 L714.63,140.00 L715.74,139.96 L716.84,139.91 L717.94,139.89 L719.04,139.91 L720.14,139.84 L721.25,139.81 L722.35,139.81 L723.45,139.76 L724.55,139.71 L725.66,139.67 L726.76,139.60 L727.86,139.58 L728.96,139.56 L730.06,139.55 L731.17,139.55 L732.27,139.49 L733.37,139.42 L734.47,139.35 L735.58,139.31 L736.68,139.27 L737.78,139.21 L738.88,139.47 L739.98,139.77 L741.09,140.04 L742.19,140.34 L743.29,140.60 L744.39,140.88 L745.50,141.14 L746.60,141.44 L747.70,141.69 L748.80,141.99 L749.90,142.28 L751.01,142.52 L752.11,142.77 L753.21,143.02 L754.31,143.26 L755.41,143.50 L756.52,143.75 L757.62,144.00 L758.72,144.27 L759.82,144.52 L760.93,144.77 L762.03,145.05 L763.13,145.30 L764.23,145.51 L765.33,145.72 L766.44,145.92 L767.54,146.07 L768.64,146.26 L769.74,146.43 L770.85,146.56 L771.95,146.63 L773.05,146.75 L774.15,146.86 L775.25,146.89 L776.36,146.97 L777.46,147.00 L778.56,147.09 L779.66,147.15 L780.77,147.29 L781.87,147.38 L782.97,147.42 L784.07,147.49 L785.17,147.57 L786.28,147.70 L787.38,147.75 L788.48,147.84 L789.58,147.93 L790.69,148.03 L791.79,148.17 L792.89,148.28 L793.99,148.33 L795.09,148.42 L796.20,148.47 L797.30,148.53 L798.40,148.64 L799.50,148.68 L800.61,148.77 L801.71,148.86 L802.81,148.94 L803.91,148.98 L805.01,149.05 L806.12,149.11 L807.22,149.16 L808.32,149.21 L809.42,149.26 L810.53,149.33 L811.63,149.39 L812.73,149.46 L813.83,149.53 L814.93,149.60 L816.04,149.64 L817.14,149.65 L818.24,149.70 L819.34,149.77 L820.45,149.80 L821.55,149.87 L822.65,149.94 L823.75,150.02 L824.85,150.11 L825.96,150.14 L827.06,150.20 L828.16,150.23 L829.26,150.32 L830.37,150.38 L831.47,150.48 L832.57,150.53 L833.67,150.58 L834.77,150.63 L835.88,150.70 L836.98,150.74 L838.08,150.83 L839.18,150.87 L840.29,150.93 L841.39,150.96 L842.49,151.04 L843.59,151.13 L844.69,151.19 L845.80,151.30 L846.90,151.31 L848.00,151.35 L849.10,151.41 L850.21,151.47 L851.31,151.53 L852.41,151.50 L853.51,151.54 L854.61,151.53 L855.72,151.49 L856.82,151.40 L857.92,151.36 L859.02,151.29 L860.12,151.19 L861.23,151.12 L862.33,151.07 L863.43,151.03 L864.53,150.97 L865.64,150.90 L866.74,150.83 L867.84,150.73 L868.94,150.66 L870.04,150.58 L871.15,150.50 L872.25,150.43 L873.35,150.35 L874.45,150.28 L875.56,150.19 L876.66,150.12 L877.76,150.05 L878.86,149.98 L879.96,149.88 L881.07,149.76 L882.17,149.65 L883.27,149.56 L884.37,149.46 L885.48,149.36 L886.58,149.28 L887.68,149.21 L888.78,149.15 L889.88,149.08 L890.99,149.00 L892.09,148.89 L893.19,148.80 L894.29,148.72 L895.40,148.63 L896.50,148.53 L897.60,148.45 L898.70,148.35 L899.80,148.26 L900.91,148.16 L902.01,148.08 L903.11,148.00 L904.21,147.91 L905.32,147.81 L906.42,147.70 L907.52,147.59 L908.62,147.49 L909.72,147.38 L910.00,147.35" fill="none" stroke="#ff7f0e" stroke-width="2"/>
<text x="915" y="70" font-size="12" fill="#ff7f0e">mean_teacher</text>
<path d="M50.00,232.81 L51.10,204.69 L52.20,178.12 L53.31,174.22 L54.41,166.25 L55.51,164.06 L56.61,157.14 L57.72,153.12 L58.82,144.79 L59.92,140.47 L61.02,135.65 L62.12,132.81 L63.23,127.88 L64.33,125.67 L65.43,122.81 L66.53,121.19 L67.64,121.14 L68.74,119.27 L69.84,117.35 L70.94,116.33 L72.04,114.96 L73.15,113.07 L74.25,111.75 L75.35,109.96 L76.45,109.06 L77.56,107.87 L78.66,106.08 L79.76,105.25 L80.86,104.80 L81.96,103.75 L83.07,102.62 L84.17,101.56 L85.27,100.57 L86.37,99.77 L87.48,99.15 L88.58,98.70 L89.68,98.14 L90.78,97.12 L91.88,96.39 L92.99,95.82 L94.09,94.93 L95.19,93.97 L96.29,93.39 L97.40,92.72 L98.50,91.98 L99.60,91.37 L100.70,90.79 L101.80,90.14 L102.91,89.80 L104.01,89.75 L105.11,89.43 L106.21,89.48 L107.31,89.27 L108.42,88.89 L109.52,88.44 L110.62,88.09 L111.72,87.91 L112.83,87.82 L113.93,87.42 L115.03,86.88 L116.13,86.42 L117.23,85.91 L118.34,85.57 L119.44,85.52 L120.54,85.55 L121.64,85.09 L122.75,84.70 L123.85,84.60 L124.95,84.51 L126.05,84.22 L127.15,84.20 L128.26,84.18 L129.36,83.97 L130.46,83.64 L131.56,83.44 L132.67,83.18 L133.77,82.81 L134.87,82.63 L135.97,82.40 L137.07,82.11 L138.18,81.89 L139.28,81.61 L140.38,81.34 L141.48,81.14 L142.59,80.88 L143.69,80.69 L144.79,80.55 L145.89,80.20 L146.99,80.02 L148.10,79.84 L149.20,79.57 L150.30,79.30 L151.40,79.18 L152.51,78.97 L153.61,78.91 L154.71,78.86 L155.81,78.90 L156.91,78.70 L158.02,78.65 L159.12,78.50 L160.22,78.26 L161.32,78.08 L162.43,77.94 L163.53,78.12 L164.63,77.95 L165.73,77.86 L166.83,77.95 L167.94,77.95 L169.04,77.82 L170.14,77.74 L171.24,77.58 L172.35,77.37 L173.45,77.21 L174.55,77.01 L175.65,76.82 L176.75,76.71 L177.86,76.52 L178.96,76.50 L180.06,76.47 L181.16,76.52 L182.27,76.42 L183.37,76.28 L184.47,76.26 L185.57,76.12 L186.67,75.95 L187.78,75.74 L188.88,75.54 L189.98,75.45 L191.08,75.29 L192.19,75.17 L193.29,75.05 L194.39,74.96 L195.49,74.85 L196.59,74.66 L197.70,74.51 L198.80,74.37 L199.90,74.22 L201.00,74.05 L202.11,73.94 L203.21,73.81 L204.31,73.77 L205.41,73.77 L206.51,73.70 L207.62,73.60 L208.72,73.53 L209.82,73.44 L210.92,73.37 L212.02,73.31 L213.13,73.28 L214.23,73.12 L215.33,73.03 L216.43,72.88 L217.54,72.76 L218.64,72.71 L219.74,72.59 L220.84,72.48 L221.94,73.62 L223.05,75.31 L224.15,77.03 L225.25,78.71 L226.35,80.37 L227.46,82.00 L228.56,83.56 L229.66,85.18 L230.76,86.79 L231.86,88.29 L232.97,89.80 L234.07,91.27 L235.17,92.58 L236.27,93.98 L237.38,95.39 L238.48,96.68 L239.58,97.82 L240.68,98.92 L241.78,99.96 L242.89,100.68 L243.99,101.27 L245.09,101.77 L246.19,102.14 L247.30,102.53 L248.40,102.65 L249.50,102.93 L250.60,102.95 L251.70,102.86 L252.81,102.96 L253.91,102.92 L255.01,102.84 L256.11,102.86 L257.22,102.83 L258.32,102.80 L259.42,102.72 L260.52,102.69 L261.62,102.61 L262.73,102.53 L263.83,102.43 L264.93,102.33 L266.03,102.37 L267.14,102.46 L268.24,102.39 L269.34,102.29 L270.44,102.19 L271.54,102.28 L272.65,102.21 L273.75,102.14 L274.85,102.02 L275.95,101.99 L277.06,101.79 L278.16,101.61 L279.26,101.52 L280.36,101.41 L281.46,101.32 L282.57,101.23 L283.67,101.06 L284.77,100.88 L285.87,100.78 L286.98,100.78 L288.08,100.66 L289.18,100.57 L290.28,100.51 L291.38,100.43 L292.49,100.33 L293.59,100.27 L294.69,100.13 L295.79,100.08 L296.90,100.04 L298.00,100.03 L299.10,99.83 L300.20,99.79 L301.30,99.72 L302.41,99.63 L303.51,99.53 L304.61,99.52 L305.71,99.41 L306.82,99.36 L307.92,99.23 L309.02,99.10 L310.12,99.03 L311.22,98.86 L312.33,98.74 L313.43,98.67 L314.53,98.59 L315.63,98.46 L316.74,98.40 L317.84,98.30 L318.94,98.18 L320.04,98.02 L321.14,97.88 L322.25,97.73 L323.35,97.59 L324.45,97.51 L325.55,97.44 L326.65,97.36 L327.76,97.17 L328.86,97.02 L329.96,96.95 L331.06,96.89 L332.17,96.78 L333.27,96.73 L334.37,96.69 L335.47,96.73 L336.57,96.59 L337.68,96.55 L338.78,96.54 L339.88,96.54 L340.98,96.42 L342.09,96.35 L343.19,96.28 L344.29,96.23 L345.39,96.13 L346.49,95.99 L347.60,95.91 L348.70,95.81 L349.80,95.71 L350.90,95.63 L352.01,95.56 L353.11,95.47 L354.21,95.35 L355.31,95.26 L356.41,95.18 L357.52,95.07 L358.62,94.92 L359.72,94.83 L360.82,94.74 L361.93,94.58 L363.03,94.52 L364.13,94.40 L365.23,94.29 L366.33,94.22 L367.44,94.09 L368.54,93.95 L369.64,93.85 L370.74,93.76 L371.85,93.64 L372.95,93.57 L374.05,93.46 L375.15,93.41 L376.25,93.34 L377.36,93.23 L378.46,93.11 L379.56,93.00 L380.66,92.87 L381.77,92.73 L382.87,92.67 L383.97,92.56 L385.07,92.48 L386.17,92.36 L387.28,92.25 L388.38,92.19 L389.48,92.11 L390.58,91.99 L391.69,91.89 L392.79,91.83 L393.89,92.01 L394.99,92.56 L396.09,93.14 L397.20,93.67 L398.30,94.24 L399.40,94.77 L400.50,95.26 L401.61,95.70 L402.71,96.32 L403.81,96.89 L404.91,97.38 L406.01,97.79 L407.12,98.26 L408.22,98.72 L409.32,99.14 L410.42,99.53 L411.53,99.92 L412.63,100.31 L413.73,100.77 L414.83,101.24 L415.93,101.58 L417.04,101.89 L418.14,102.15 L419.24,102.32 L420.34,102.51 L421.45,102.78 L422.55,102.96 L423.65,103.16 L424.75,103.42 L425.85,103.66 L426.96,103.79 L428.06,103.92 L429.16,104.13 L430.26,104.33 L431.36,104.45 L432.47,104.55 L433.57,104.48 L434.67,104.39 L435.77,104.39 L436.88,104.39 L437.98,104.35 L439.08,104.28 L440.18,104.22 L441.28,104.21 L442.39,104.18 L443.49,104.10 L444.59,104.12 L445.69,104.08 L446.80,104.11 L447.90,104.09 L449.00,104.09 L450.10,104.11 L451.20,104.18 L452.31,104.14 L453.41,104.16 L454.51,104.17 L455.61,104.10 L456.72,104.08 L457.82,104.03 L458.92,104.02 L460.02,104.01 L461.12,103.99 L462.23,103.95 L463.33,103.92 L464.43,103.89 L465.53,103.87 L466.64,103.90 L467.74,103.89 L468.84,103.97 L469.94,103.98 L471.04,103.96 L472.15,104.02 L473.25,104.07 L474.35,104.05 L475.45,104.13 L476.56,104.11 L477.66,104.12 L478.76,104.10 L479.86,104.12 L480.96,104.13 L482.07,104.10 L483.17,104.10 L484.27,104.05 L485.37,104.10 L486.48,104.02 L487.58,104.02 L488.68,104.02 L489.78,103.96 L490.88,103.91 L491.99,103.87 L493.09,103.91 L494.19,103.95 L495.29,103.88 L496.40,103.85 L497.50,103.83 L498.60,103.80 L499.70,103.83 L500.80,103.86 L501.91,103.88 L503.01,103.85 L504.11,103.86 L505.21,103.83 L506.32,103.86 L507.42,103.83 L508.52,103.83 L509.62,103.82 L510.72,103.81 L511.83,103.76 L512.93,103.78 L514.03,103.74 L515.13,103.72 L516.24,103.80 L517.34,103.78 L518.44,103.83 L519.54,103.83 L520.64,103.84 L521.75,103.87 L522.85,103.82 L523.95,103.84 L525.05,103.83 L526.16,103.81 L527.26,103.82 L528.36,103.83 L529.46,103.82 L530.56,103.77 L531.67,103.78 L532.77,103.79 L533.87,103.78 L534.97,103.77 L536.07,103.74 L537.18,103.71 L538.28,103.68 L539.38,103.66 L540.48,103.65 L541.59,103.70 L542.69,103.64 L543.79,103.62 L544.89,103.60 L545.99,103.59 L547.10,103.58 L548.20,103.62 L549.30,103.61 L550.40,103.59 L551.51,103.60 L552.61,103.55 L553.71,103.54 L554.81,103.56 L555.91,103.55 L557.02,103.54 L558.12,103.54 L559.22,103.52 L560.32,103.44 L561.43,103.44 L562.53,103.42 L563.63,103.39 L564.73,103.36 L565.83,103.44 L566.94,103.87 L568.04,104.28 L569.14,104.70 L570.24,105.16 L571.35,105.57 L572.45,105.98 L573.55,106.42 L574.65,106.86 L575.75,107.28 L576.86,107.71 L577.96,108.12 L579.06,108.52 L580.16,108.95 L581.27,109.33 L582.37,109.71 L583.47,110.07 L584.57,110.45 L585.67,110.81 L586.78,111.14 L587.88,111.49 L588.98,111.83 L590.08,112.12 L591.19,112.40 L592.29,112.66 L593.39,112.84 L594.49,112.97 L595.59,113.22 L596.70,113.41 L597.80,113.54 L598.90,113.62 L600.00,113.78 L601.11,113.93 L602.21,114.07 L603.31,114.22 L604.41,114.36 L605.51,114.45 L606.62,114.67 L607.72,114.82 L608.82,114.97 L609.92,115.04 L611.03,115.11 L612.13,115.18 L613.23,115.30 L614.33,115.36 L615.43,115.49 L616.54,115.60 L617.64,115.62 L618.74,115.72 L619.84,115.85 L620.95,115.91 L622.05,116.04 L623.15,116.14 L624.25,116.26 L625.35,116.30 L626.46,116.44 L627.56,116.54 L628.66,116.58 L629.76,116.66 L630.87,116.72 L631.97,116.79 L633.07,116.88 L634.17,116.91 L635.27,116.93 L636.38,117.02 L637.48,117.05 L638.58,117.09 L639.68,117.16 L640.79,117.22 L641.89,117.25 L642.99,117.33 L644.09,117.37 L645.19,117.44 L646.30,117.51 L647.40,117.55 L648.50,117.56 L649.60,117.60 L650.70,117.68 L651.81,117.72 L652.91,117.75 L654.01,117.75 L655.11,117.76 L656.22,117.76 L657.32,117.79 L658.42,117.80 L659.52,117.88 L660.62,117.88 L661.73,117.91 L662.83,117.95 L663.93,117.99 L665.03,118.01 L666.14,117.99 L667.24,117.95 L668.34,117.93 L669.44,117.97 L670.54,117.95 L671.65,117.98 L672.75,117.99 L673.85,117.94 L674.95,117.95 L676.06,117.92 L677.16,117.93 L678.26,117.89 L679.36,117.87 L680.46,117.87 L681.57,117.87 L682.67,117.86 L683.77,117.80 L684.87,117.82 L685.98,117.79 L687.08,117.78 L688.18,117.79 L689.28,117.80 L690.38,117.82 L691.49,117.80 L692.59,117.81 L693.69,117.79 L694.79,117.78 L695.90,117.81 L697.00,117.79 L698.10,117.77 L699.20,117.75 L700.30,117.77 L701.41,117.78 L702.51,117.77 L703.61,117.79 L704.71,117.78 L705.82,117.72 L706.92,117.73 L708.02,117.67 L709.12,117.68 L710.22,117.65 L711.33,117.62 L712.43,117.59 L713.53,117.56 L714.63,117.50 L715.74,117.46 L716.84,117.42 L717.94,117.39 L719.04,117.44 L720.14,117.40 L721.25,117.36 L722.35,117.39 L723.45,117.36 L724.55,117.33 L725.66,117.29 L726.76,117.24 L727.86,117.23 L728.96,117.24 L730.06,117.27 L731.17,117.27 L732.27,117.24 L733.37,117.20 L734.47,117.18 L735.58,117.16 L736.68,117.19 L737.78,117.16 L738.88,117.44 L739.98,117.75 L741.09,118.05 L742.19,118.36 L743.29,118.66 L744.39,118.94 L745.50,119.23 L746.60,119.53 L747.70,119.82 L748.80,120.14 L749.90,120.46 L751.01,120.70 L752.11,120.99 L753.21,121.30 L754.31,121.56 L755.41,121.86 L756.52,122.13 L757.62,122.40 L758.72,122.66 L759.82,122.95 L760.93,123.19 L762.03,123.48 L763.13,123.75 L764.23,123.96 L765.33,124.18 L766.44,124.28 L767.54,124.42 L768.64,124.55 L769.74,124.66 L770.85,124.74 L771.95,124.82 L773.05,124.92 L774.15,125.06 L775.25,125.12 L776.36,125.24 L777.46,125.29 L778.56,125.42 L779.66,125.51 L780.77,125.68 L781.87,125.80 L782.97,125.87 L784.07,125.96 L785.17,126.07 L786.28,126.21 L787.38,126.26 L788.48,126.35 L789.58,126.43 L790.69,126.48 L791.79,126.54 L792.89,126.56 L793.99,126.58 L795.09,126.60 L796.20,126.58 L797.30,126.58 L798.40,126.59 L799.50,126.59 L800.61,126.57 L801.71,126.59 L802.81,126.62 L803.91,126.60 L805.01,126.59 L806.12,126.60 L807.22,126.58 L808.32,126.55 L809.42,126.53 L810.53,126.53 L811.63,126.52 L812.73,126.54 L813.83,126.57 L814.93,126.61 L816.04,126.64 L817.14,126.65 L818.24,126.70 L819.34,126.76 L820.45,126.79 L821.55,126.87 L822.65,126.96 L823.75,127.06 L824.85,127.14 L825.96,127.17 L827.06,127.24 L828.16,127.28 L829.26,127.36 L830.37,127.43 L831.47,127.48 L832.57,127.48 L833.67,127.50 L834.77,127.47 L835.88,127.43 L836.98,127.41 L838.08,127.42 L839.18,127.37 L840.29,127.32 L841.39,127.26 L842.49,127.20 L843.59,127.13 L844.69,127.04 L845.80,127.00 L846.90,126.93 L848.00,126.87 L849.10,126.81 L850.21,126.74 L851.31,126.67 L852.41,126.61 L853.51,126.54 L854.61,126.47 L855.72,126.38 L856.82,126.29 L857.92,126.19 L859.02,126.10 L860.12,126.03 L861.23,125.97 L862.33,125.92 L863.43,125.85 L864.53,125.78 L865.64,125.73 L866.74,125.66 L867.84,125.57 L868.94,125.50 L870.04,125.43 L871.15,125.35 L872.25,125.29 L873.35,125.19 L874.45,125.13 L875.56,125.06 L876.66,124.98 L877.76,124.89 L878.86,124.83 L879.96,124.75 L881.07,124.66 L882.17,124.58 L883.27,124.50 L884.37,124.45 L885.48,124.38 L886.58,124.31 L887.68,124.25 L888.78,124.16 L889.88,124.07 L890.99,123.98 L892.09,123.90 L893.19,123.83 L894.29,123.77 L895.40,123.68 L896.50,123.60 L897.60,123.54 L898.70,123.46 L899.80,123.40 L900.91,123.32 L902.01,123.24 L903.11,123.16 L904.21,123.08 L905.32,123.00 L906.42,122.93 L907.52,122.85 L908.62,122.76 L909.72,122.68 L910.00,122.66" fill="none" stroke="#2ca02c" stroke-width="2"/>
<text x="915" y="90" font-size="12" fill="#2ca02c">ts_drift_adapt</text>
</svg>