<svg width="960" height="400" xmlns="http://www.w3.org/2000/svg">
<rect x="0" y="0" width="960" height="400" fill="#ffffff" stroke="#dddddd"/>
<line x1="50" y1="50" x2="50" y2="350" stroke="#444444"/>
<line x1="50" y1="350" x2="910" y2="350" stroke="#444444"/>
<text x="480.0" y="30" text-anchor="middle" font-size="18">stagger_abrupt3 Accuracy</text>
<path d="M50.00,260.94 L51.08,218.75 L52.15,192.19 L53.23,164.84 L54.31,145.62 L55.38,136.72 L56.46,129.69 L57.53,124.41 L58.61,118.75 L59.69,114.22 L60.76,110.51 L61.84,108.59 L62.92,104.45 L63.99,102.90 L65.07,101.25 L66.15,99.51 L67.22,98.53 L68.30,97.40 L69.37,96.38 L70.45,95.00 L71.53,93.97 L72.60,92.83 L73.68,91.17 L74.76,90.82 L75.83,89.94 L76.91,89.30 L77.98,88.54 L79.06,87.83 L80.14,86.69 L81.21,86.09 L82.29,86.29 L83.37,85.74 L84.44,85.37 L85.52,84.74 L86.60,84.55 L87.67,83.98 L88.75,83.57 L89.82,83.55 L90.90,82.93 L91.98,82.34 L93.05,81.78 L94.13,81.03 L95.21,80.31 L96.28,79.62 L97.36,78.96 L98.44,78.33 L99.51,77.73 L100.59,77.25 L101.66,76.69 L102.74,76.16 L103.82,75.74 L104.89,75.33 L105.97,74.94 L107.05,74.48 L108.12,74.03 L109.20,73.69 L110.28,73.27 L111.35,73.03 L112.43,72.72 L113.50,72.34 L114.58,71.98 L115.66,71.62 L116.73,71.28 L117.81,70.95 L118.89,70.62 L119.96,70.31 L121.04,70.01 L122.12,69.78 L123.19,69.50 L124.27,69.22 L125.34,68.95 L126.42,68.68 L127.50,68.43 L128.57,68.18 L129.65,67.94 L130.73,67.70 L131.80,67.47 L132.88,67.25 L133.95,67.03 L135.03,66.82 L136.11,66.61 L137.18,66.41 L138.26,66.21 L139.34,66.02 L140.41,65.88 L141.49,65.70 L142.57,65.52 L143.64,65.39 L144.72,65.22 L145.79,65.05 L146.87,64.89 L147.95,64.72 L149.02,64.57 L150.10,64.41 L151.18,64.26 L152.25,64.11 L153.33,64.06 L154.41,63.97 L155.48,63.83 L156.56,63.69 L157.63,63.60 L158.71,63.47 L159.79,63.38 L160.86,63.25 L161.94,63.12 L163.02,63.00 L164.09,62.88 L165.17,62.76 L166.25,62.64 L167.32,62.53 L168.40,62.42 L169.47,62.35 L170.55,62.24 L171.63,62.13 L172.70,62.02 L173.78,61.96 L174.86,61.86 L175.93,61.76 L177.01,61.66 L178.09,61.56 L179.16,61.47 L180.24,61.37 L181.31,61.36 L182.39,61.27 L183.47,61.18 L184.54,61.09 L185.62,61.04 L186.70,60.95 L187.77,60.86 L188.85,60.78 L189.92,60.70 L191.00,60.62 L192.08,60.54 L193.15,60.46 L194.23,60.38 L195.31,60.31 L196.38,60.23 L197.46,60.16 L198.54,60.08 L199.61,60.01 L200.69,59.94 L201.76,59.87 L202.84,59.80 L203.92,59.73 L204.99,59.67 L206.07,59.60 L207.15,59.53 L208.22,59.47 L209.30,59.41 L210.38,59.34 L211.45,59.28 L212.53,59.22 L213.60,59.16 L214.68,59.10 L215.76,59.04 L216.83,58.98 L217.91,58.93 L218.99,58.87 L220.06,58.81 L221.14,58.76 L222.22,58.71 L223.29,58.65 L224.37,58.60 L225.44,58.55 L226.52,58.49 L227.60,58.44 L228.67,58.39 L229.75,58.34 L230.83,58.29 L231.90,58.24 L232.98,58.20 L234.06,58.15 L235.13,58.10 L236.21,58.05 L237.28,58.01 L238.36,57.96 L239.44,57.92 L240.51,57.87 L241.59,57.83 L242.67,57.79 L243.74,57.74 L244.82,57.70 L245.89,57.66 L246.97,57.62 L248.05,57.58 L249.12,57.54 L250.20,57.49 L251.28,57.46 L252.35,57.42 L253.43,57.38 L254.51,57.34 L255.58,57.30 L256.66,57.26 L257.73,57.22 L258.81,57.19 L259.89,57.15 L260.96,57.11 L262.04,57.08 L263.12,57.04 L264.19,57.01 L265.27,56.97 L266.35,56.94 L267.42,56.90 L268.50,56.87 L269.57,56.84 L270.65,56.80 L271.73,56.77 L272.80,56.74 L273.88,56.71 L274.96,56.67 L276.03,56.64 L277.11,56.61 L278.19,56.58 L279.26,56.55 L280.34,56.52 L281.41,56.49 L282.49,56.46 L283.57,56.43 L284.64,56.40 L285.72,56.37 L286.80,56.34 L287.87,56.31 L288.95,56.29 L290.03,56.26 L291.10,56.23 L292.18,56.20 L293.25,56.17 L294.33,56.15 L295.41,56.12 L296.48,56.09 L297.56,56.07 L298.64,56.04 L299.71,56.02 L300.79,55.99 L301.86,55.96 L302.94,55.94 L304.02,55.91 L305.09,55.89 L306.17,55.86 L307.25,55.84 L308.32,55.82 L309.40,55.79 L310.48,55.77 L311.55,55.74 L312.63,55.72 L313.70,55.70 L314.78,55.67 L315.86,55.65 L316.93,55.63 L318.01,55.61 L319.09,55.58 L320.16,55.56 L321.24,55.54 L322.32,55.52 L323.39,55.50 L324.47,55.47 L325.54,55.45 L326.62,55.43 L327.70,55.41 L328.77,55.39 L329.85,55.37 L330.93,55.35 L332.00,55.33 L333.08,55.31 L334.16,55.29 L335.23,55.27 L336.31,55.25 L337.38,55.23 L338.46,55.21 L339.54,55.19 L340.61,55.17 L341.69,55.15 L342.77,55.13 L343.84,55.12 L344.92,55.10 L345.99,55.08 L347.07,55.06 L348.15,55.04 L349.22,55.02 L350.30,55.01 L351.38,54.99 L352.45,54.97 L353.53,54.95 L354.61,54.94 L355.68,54.92 L356.76,54.92 L357.83,54.90 L358.91,54.88 L359.99,54.87 L361.06,54.85 L362.14,54.83 L363.22,54.82 L364.29,54.80 L365.37,54.78 L366.45,54.77 L367.52,54.75 L368.60,54.73 L369.67,54.72 L370.75,54.70 L371.83,54.69 L372.90,54.67 L373.98,54.66 L375.06,54.64 L376.13,54.63 L377.21,54.61 L378.29,54.60 L379.36,54.58 L380.44,54.57 L381.51,54.55 L382.59,54.54 L383.67,54.52 L384.74,54.51 L385.82,54.79 L386.90,55.33 L387.97,55.85 L389.05,56.50 L390.13,56.95 L391.20,57.44 L392.28,57.99 L393.35,58.42 L394.43,58.98 L395.51,59.56 L396.58,60.01 L397.66,60.53 L398.74,61.00 L399.81,61.49 L400.89,61.98 L401.96,62.39 L403.04,62.79 L404.12,63.14 L405.19,63.44 L406.27,63.77 L407.35,64.25 L408.42,64.76 L409.50,65.11 L410.58,65.44 L411.65,65.77 L412.73,66.25 L413.80,66.70 L414.88,67.03 L415.96,67.36 L417.03,67.74 L418.11,67.98 L419.19,68.23 L420.26,68.48 L421.34,68.74 L422.42,68.91 L423.49,69.13 L424.57,69.30 L425.64,69.45 L426.72,69.60 L427.80,69.94 L428.87,70.25 L429.95,70.42 L431.03,70.68 L432.10,70.88 L433.18,71.14 L434.26,71.30 L435.33,71.44 L436.41,71.60 L437.48,71.70 L438.56,71.87 L439.64,71.98 L440.71,72.11 L441.79,72.20 L442.87,72.31 L443.94,72.48 L445.02,72.58 L446.10,72.74 L447.17,72.74 L448.25,72.81 L449.32,72.83 L450.40,72.92 L451.48,72.95 L452.55,72.97 L453.63,73.01 L454.71,73.10 L455.78,73.14 L456.86,73.14 L457.93,73.17 L459.01,73.22 L460.09,73.23 L461.16,73.20 L462.24,73.25 L463.32,73.33 L464.39,73.38 L465.47,73.40 L466.55,73.39 L467.62,73.40 L468.70,73.43 L469.77,73.44 L470.85,73.44 L471.93,73.41 L473.00,73.35 L474.08,73.39 L475.16,73.38 L476.23,73.33 L477.31,73.30 L478.39,73.27 L479.46,73.27 L480.54,73.27 L481.61,73.31 L482.69,73.27 L483.77,73.28 L484.84,73.26 L485.92,73.22 L487.00,73.20 L488.07,73.15 L489.15,73.14 L490.23,73.15 L491.30,73.11 L492.38,73.10 L493.45,73.09 L494.53,73.08 L495.61,73.03 L496.68,73.05 L497.76,73.03 L498.84,73.00 L499.91,73.01 L500.99,72.99 L502.07,72.99 L503.14,72.95 L504.22,72.92 L505.29,72.91 L506.37,72.90 L507.45,72.88 L508.52,72.84 L509.60,72.80 L510.68,72.78 L511.75,72.75 L512.83,72.73 L513.90,72.68 L514.98,72.65 L516.06,72.61 L517.13,72.56 L518.21,72.53 L519.29,72.53 L520.36,72.49 L521.44,72.44 L522.52,72.40 L523.59,72.37 L524.67,72.36 L525.74,72.36 L526.82,72.36 L527.90,72.33 L528.97,72.33 L530.05,72.34 L531.13,72.32 L532.20,72.33 L533.28,72.29 L534.36,72.25 L535.43,72.21 L536.51,72.18 L537.58,72.16 L538.66,72.12 L539.74,72.10 L540.81,72.06 L541.89,72.03 L542.97,72.00 L544.04,71.99 L545.12,72.00 L546.20,71.97 L547.27,71.93 L548.35,71.89 L549.42,71.84 L550.50,71.80 L551.58,71.77 L552.65,71.74 L553.73,71.71 L554.81,71.67 L555.88,71.64 L556.96,71.60 L558.04,71.55 L559.11,71.53 L560.19,71.48 L561.26,71.44 L562.34,71.39 L563.42,71.37 L564.49,71.33 L565.57,71.29 L566.65,71.24 L567.72,71.20 L568.80,71.16 L569.87,71.11 L570.95,71.07 L572.03,71.04 L573.10,71.00 L574.18,70.97 L575.26,70.94 L576.33,70.89 L577.41,70.85 L578.49,70.81 L579.56,70.77 L580.64,70.72 L581.71,70.68 L582.79,70.65 L583.87,70.61 L584.94,70.57 L586.02,70.53 L587.10,70.50 L588.17,70.47 L589.25,70.46 L590.33,70.42 L591.40,70.38 L592.48,70.35 L593.55,70.31 L594.63,70.28 L595.71,70.24 L596.78,70.20 L597.86,70.16 L598.94,70.12 L600.01,70.09 L601.09,70.06 L602.17,70.02 L603.24,69.98 L604.32,69.94 L605.39,69.90 L606.47,69.86 L607.55,69.82 L608.62,69.79 L609.70,69.75 L610.78,69.72 L611.85,69.69 L612.93,69.65 L614.01,69.62 L615.08,69.58 L616.16,69.55 L617.23,69.51 L618.31,69.48 L619.39,69.44 L620.46,69.40 L621.54,69.37 L622.62,69.33 L623.69,69.29 L624.77,69.26 L625.84,69.22 L626.92,69.19 L628.00,69.15 L629.07,69.12 L630.15,69.08 L631.23,69.05 L632.30,69.02 L633.38,68.98 L634.46,68.96 L635.53,68.92 L636.61,68.89 L637.68,68.85 L638.76,68.82 L639.84,68.78 L640.91,68.75 L641.99,68.72 L643.07,68.68 L644.14,68.65 L645.22,68.61 L646.30,68.58 L647.37,68.55 L648.45,68.51 L649.52,68.48 L650.60,68.45 L651.68,68.42 L652.75,68.38 L653.83,68.35 L654.91,68.33 L655.98,68.29 L657.06,68.26 L658.14,68.23 L659.21,68.20 L660.29,68.16 L661.36,68.13 L662.44,68.10 L663.52,68.07 L664.59,68.04 L665.67,68.02 L666.75,67.99 L667.82,67.97 L668.90,67.94 L669.97,67.91 L671.05,67.88 L672.13,67.85 L673.20,67.82 L674.28,67.79 L675.36,67.76 L676.43,67.73 L677.51,67.70 L678.59,67.67 L679.66,67.64 L680.74,67.61 L681.81,67.58 L682.89,67.55 L683.97,67.52 L685.04,67.49 L686.12,67.46 L687.20,67.43 L688.27,67.40 L689.35,67.38 L690.43,67.35 L691.50,67.32 L692.58,67.29 L693.65,67.26 L694.73,67.23 L695.81,67.21 L696.88,67.18 L697.96,67.16 L699.04,67.13 L700.11,67.10 L701.19,67.07 L702.27,67.04 L703.34,67.02 L704.42,66.99 L705.49,66.96 L706.57,66.93 L707.65,66.90 L708.72,66.88 L709.80,66.85 L710.88,66.82 L711.95,66.80 L713.03,66.77 L714.11,66.76 L715.18,66.73 L716.26,66.70 L717.33,66.67 L718.41,66.65 L719.49,66.62 L720.56,66.59 L721.64,66.57 L722.72,66.77 L723.79,66.96 L724.87,67.17 L725.94,67.36 L727.02,67.51 L728.10,67.71 L729.17,67.89 L730.25,68.06 L731.33,68.29 L732.40,68.43 L733.48,68.58 L734.56,68.77 L735.63,68.99 L736.71,69.16 L737.78,69.31 L738.86,69.44 L739.94,69.65 L741.01,69.78 L742.09,69.96 L743.17,70.09 L744.24,70.17 L745.32,70.28 L746.40,70.34 L747.47,70.40 L748.55,70.47 L749.62,70.55 L750.70,70.60 L751.78,70.68 L752.85,70.75 L753.93,70.87 L755.01,70.92 L756.08,70.98 L757.16,71.09 L758.24,71.20 L759.31,71.29 L760.39,71.38 L761.46,71.47 L762.54,71.57 L763.62,71.64 L764.69,71.75 L765.77,71.83 L766.85,71.88 L767.92,71.96 L769.00,72.02 L770.08,72.14 L771.15,72.22 L772.23,72.29 L773.30,72.37 L774.38,72.44 L775.46,72.45 L776.53,72.48 L777.61,72.54 L778.69,72.58 L779.76,72.63 L780.84,72.67 L781.91,72.68 L782.99,72.70 L784.07,72.72 L785.14,72.78 L786.22,72.79 L787.30,72.79 L788.37,72.82 L789.45,72.82 L790.53,72.82 L791.60,72.83 L792.68,72.81 L793.75,72.79 L794.83,72.77 L795.91,72.77 L796.98,72.76 L798.06,72.78 L799.14,72.79 L800.21,72.76 L801.29,72.74 L802.37,72.74 L803.44,72.74 L804.52,72.72 L805.59,72.70 L806.67,72.68 L807.75,72.67 L808.82,72.64 L809.90,72.61 L810.98,72.58 L812.05,72.55 L813.13,72.52 L814.21,72.49 L815.28,72.46 L816.36,72.43 L817.43,72.39 L818.51,72.36 L819.59,72.33 L820.66,72.30 L821.74,72.27 L822.82,72.24 L823.89,72.21 L824.97,72.18 L826.05,72.15 L827.12,72.11 L828.20,72.08 L829.27,72.05 L830.35,72.02 L831.43,71.99 L832.50,71.96 L833.58,71.93 L834.66,71.90 L835.73,71.87 L836.81,71.84 L837.88,71.81 L838.96,71.78 L840.04,71.75 L841.11,71.72 L842.19,71.69 L843.27,71.67 L844.34,71.64 L845.42,71.61 L846.50,71.58 L847.57,71.55 L848.65,71.53 L849.72,71.50 L850.80,71.47 L851.88,71.45 L852.95,71.42 L854.03,71.39 L855.11,71.36 L856.18,71.33 L857.26,71.30 L858.34,71.27 L859.41,71.25 L860.49,71.22 L861.56,71.19 L862.64,71.16 L863.72,71.13 L864.79,71.11 L865.87,71.08 L866.95,71.05 L868.02,71.02 L869.10,71.00 L870.18,70.97 L871.25,70.94 L872.33,70.91 L873.40,70.89 L874.48,70.86 L875.56,70.83 L876.63,70.80 L877.71,70.78 L878.79,70.75 L879.86,70.72 L880.94,70.70 L882.02,70.67 L883.09,70.64 L884.17,70.62 L885.24,70.59 L886.32,70.56 L887.40,70.54 L888.47,70.52 L889.55,70.49 L890.63,70.46 L891.70,70.44 L892.78,70.41 L893.85,70.39 L894.93,70.36 L896.01,70.33 L897.08,70.31 L898.16,70.28 L899.24,70.26 L900.31,70.23 L901.39,70.21 L902.47,70.18 L903.54,70.16 L904.62,70.13 L905.69,70.10 L906.77,70.08 L907.85,70.05 L908.92,70.03 L910.00,70.00" fill="none" stroke="#1f77b4" stroke-width="2"/>
<text x="915" y="50" font-size="12" fill="#1f77b4">baseline_student</text>
<path d="M50.00,176.56 L51.08,127.34 L52.15,115.62 L53.23,103.91 L54.31,96.88 L55.38,96.09 L56.46,94.87 L57.53,93.95 L58.61,91.67 L59.69,89.84 L60.76,88.35 L61.84,88.28 L62.92,85.70 L63.99,85.16 L65.07,84.06 L66.15,83.40 L67.22,82.26 L68.30,81.51 L69.37,81.09 L70.45,80.23 L71.53,79.02 L72.60,78.12 L73.68,76.90 L74.76,76.76 L75.83,75.88 L76.91,75.24 L77.98,74.31 L79.06,73.60 L80.14,72.79 L81.21,72.03 L82.29,71.32 L83.37,70.65 L84.44,70.03 L85.52,69.44 L86.60,68.88 L87.67,68.36 L88.75,67.86 L89.82,67.39 L90.90,66.95 L91.98,66.52 L93.05,66.12 L94.13,65.74 L95.21,65.37 L96.28,65.02 L97.36,64.69 L98.44,64.37 L99.51,64.06 L100.59,63.87 L101.66,63.58 L102.74,63.41 L103.82,63.14 L104.89,62.89 L105.97,62.65 L107.05,62.41 L108.12,62.19 L109.20,61.97 L110.28,61.76 L111.35,61.56 L112.43,61.36 L113.50,61.17 L114.58,60.99 L115.66,60.81 L116.73,60.64 L117.81,60.47 L118.89,60.31 L119.96,60.16 L121.04,60.00 L122.12,59.86 L123.19,59.71 L124.27,59.58 L125.34,59.44 L126.42,59.31 L127.50,59.18 L128.57,59.06 L129.65,58.94 L130.73,58.82 L131.80,58.71 L132.88,58.59 L133.95,58.48 L135.03,58.38 L136.11,58.28 L137.18,58.17 L138.26,58.08 L139.34,57.98 L140.41,57.89 L141.49,57.79 L142.57,57.70 L143.64,57.62 L144.72,57.53 L145.79,57.45 L146.87,57.37 L147.95,57.29 L149.02,57.21 L150.10,57.13 L151.18,57.06 L152.25,56.98 L153.33,56.91 L154.41,56.84 L155.48,56.77 L156.56,56.70 L157.63,56.64 L158.71,56.57 L159.79,56.51 L160.86,56.45 L161.94,56.38 L163.02,56.32 L164.09,56.26 L165.17,56.21 L166.25,56.15 L167.32,56.09 L168.40,56.04 L169.47,55.98 L170.55,55.93 L171.63,55.88 L172.70,55.83 L173.78,55.78 L174.86,55.73 L175.93,55.68 L177.01,55.63 L178.09,55.59 L179.16,55.54 L180.24,55.49 L181.31,55.45 L182.39,55.41 L183.47,55.36 L184.54,55.32 L185.62,55.28 L186.70,55.24 L187.77,55.20 L188.85,55.16 L189.92,55.12 L191.00,55.08 L192.08,55.04 L193.15,55.00 L194.23,54.97 L195.31,54.93 L196.38,54.89 L197.46,54.86 L198.54,54.82 L199.61,54.79 L200.69,54.75 L201.76,54.72 L202.84,54.69 L203.92,54.65 L204.99,54.62 L206.07,54.59 L207.15,54.56 L208.22,54.53 L209.30,54.50 L210.38,54.47 L211.45,54.44 L212.53,54.41 L213.60,54.38 L214.68,54.35 L215.76,54.32 L216.83,54.30 L217.91,54.27 L218.99,54.24 L220.06,54.22 L221.14,54.19 L222.22,54.16 L223.29,54.14 L224.37,54.11 L225.44,54.09 L226.52,54.06 L227.60,54.04 L228.67,54.01 L229.75,53.99 L230.83,53.97 L231.90,53.94 L232.98,53.92 L234.06,53.90 L235.13,53.87 L236.21,53.85 L237.28,53.83 L238.36,53.81 L239.44,53.79 L240.51,53.77 L241.59,53.74 L242.67,53.72 L243.74,53.70 L244.82,53.68 L245.89,53.66 L246.97,53.64 L248.05,53.62 L249.12,53.60 L250.20,53.58 L251.28,53.57 L252.35,53.55 L253.43,53.53 L254.51,53.51 L255.58,53.49 L256.66,53.47 L257.73,53.46 L258.81,53.44 L259.89,53.42 L260.96,53.40 L262.04,53.39 L263.12,53.37 L264.19,53.35 L265.27,53.33 L266.35,53.32 L267.42,53.30 L268.50,53.29 L269.57,53.27 L270.65,53.25 L271.73,53.24 L272.80,53.22 L273.88,53.21 L274.96,53.19 L276.03,53.18 L277.11,53.16 L278.19,53.15 L279.26,53.13 L280.34,53.12 L281.41,53.10 L282.49,53.09 L283.57,53.07 L284.64,53.06 L285.72,53.05 L286.80,53.03 L287.87,53.02 L288.95,53.01 L290.03,52.99 L291.10,52.98 L292.18,52.97 L293.25,52.95 L294.33,52.94 L295.41,52.93 L296.48,52.91 L297.56,52.90 L298.64,52.89 L299.71,52.88 L300.79,52.86 L301.86,52.85 L302.94,52.84 L304.02,52.83 L305.09,52.82 L306.17,52.80 L307.25,52.79 L308.32,52.78 L309.40,52.77 L310.48,52.76 L311.55,52.75 L312.63,52.74 L313.70,52.72 L314.78,52.71 L315.86,52.70 L316.93,52.69 L318.01,52.68 L319.09,52.67 L320.16,52.66 L321.24,52.65 L322.32,52.64 L323.39,52.63 L324.47,52.62 L325.54,52.61 L326.62,52.60 L327.70,52.59 L328.77,52.58 L329.85,52.57 L330.93,52.56 L332.00,52.55 L333.08,52.54 L334.16,52.53 L335.23,52.52 L336.31,52.51 L337.38,52.50 L338.46,52.49 L339.54,52.48 L340.61,52.47 L341.69,52.46 L342.77,52.46 L343.84,52.45 L344.92,52.44 L345.99,52.43 L347.07,52.42 L348.15,52.41 L349.22,52.40 L350.30,52.39 L351.38,52.39 L352.45,52.38 L353.53,52.37 L354.61,52.36 L355.68,52.35 L356.76,52.34 L357.83,52.34 L358.91,52.33 L359.99,52.32 L361.06,52.31 L362.14,52.30 L363.22,52.30 L364.29,52.29 L365.37,52.28 L366.45,52.27 L367.52,52.26 L368.60,52.26 L369.67,52.25 L370.75,52.24 L371.83,52.23 L372.90,52.23 L373.98,52.22 L375.06,52.21 L376.13,52.20 L377.21,52.20 L378.29,52.19 L379.36,52.18 L380.44,52.18 L381.51,52.17 L382.59,52.16 L383.67,52.16 L384.74,52.15 L385.82,52.44 L386.90,52.99 L387.97,53.51 L389.05,54.17 L390.13,54.63 L391.20,55.13 L392.28,55.69 L393.35,56.12 L394.43,56.72 L395.51,57.31 L396.58,57.76 L397.66,58.33 L398.74,58.81 L399.81,59.33 L400.89,59.88 L401.96,60.32 L403.04,60.77 L404.12,61.16 L405.19,61.53 L406.27,61.90 L407.35,62.44 L408.42,62.97 L409.50,63.32 L410.58,63.69 L411.65,64.03 L412.73,64.52 L413.80,65.00 L414.88,65.36 L415.96,65.75 L417.03,66.16 L418.11,66.50 L419.19,66.80 L420.26,67.15 L421.34,67.56 L422.42,67.84 L423.49,68.14 L424.57,68.45 L425.64,68.75 L426.72,69.00 L427.80,69.38 L428.87,69.75 L429.95,70.02 L431.03,70.33 L432.10,70.59 L433.18,70.86 L434.26,71.05 L435.33,71.23 L436.41,71.43 L437.48,71.59 L438.56,71.83 L439.64,71.98 L440.71,72.20 L441.79,72.31 L442.87,72.40 L443.94,72.56 L445.02,72.66 L446.10,72.73 L447.17,72.75 L448.25,72.82 L449.32,72.95 L450.40,73.02 L451.48,73.02 L452.55,73.09 L453.63,73.15 L454.71,73.28 L455.78,73.36 L456.86,73.38 L457.93,73.41 L459.01,73.44 L460.09,73.46 L461.16,73.51 L462.24,73.58 L463.32,73.69 L464.39,73.70 L465.47,73.74 L466.55,73.76 L467.62,73.77 L468.70,73.77 L469.77,73.76 L470.85,73.77 L471.93,73.77 L473.00,73.72 L474.08,73.72 L475.16,73.72 L476.23,73.72 L477.31,73.70 L478.39,73.66 L479.46,73.68 L480.54,73.69 L481.61,73.69 L482.69,73.66 L483.77,73.70 L484.84,73.74 L485.92,73.71 L487.00,73.69 L488.07,73.68 L489.15,73.70 L490.23,73.71 L491.30,73.70 L492.38,73.69 L493.45,73.68 L494.53,73.70 L495.61,73.67 L496.68,73.66 L497.76,73.65 L498.84,73.65 L499.91,73.65 L500.99,73.63 L502.07,73.62 L503.14,73.62 L504.22,73.58 L505.29,73.60 L506.37,73.59 L507.45,73.61 L508.52,73.60 L509.60,73.62 L510.68,73.63 L511.75,73.68 L512.83,73.68 L513.90,73.67 L514.98,73.65 L516.06,73.61 L517.13,73.61 L518.21,73.59 L519.29,73.61 L520.36,73.59 L521.44,73.57 L522.52,73.53 L523.59,73.53 L524.67,73.52 L525.74,73.51 L526.82,73.50 L527.90,73.48 L528.97,73.48 L530.05,73.48 L531.13,73.46 L532.20,73.49 L533.28,73.48 L534.36,73.47 L535.43,73.48 L536.51,73.43 L537.58,73.39 L538.66,73.36 L539.74,73.33 L540.81,73.31 L541.89,73.28 L542.97,73.27 L544.04,73.24 L545.12,73.24 L546.20,73.20 L547.27,73.19 L548.35,73.16 L549.42,73.14 L550.50,73.10 L551.58,73.06 L552.65,73.01 L553.73,72.96 L554.81,72.91 L555.88,72.87 L556.96,72.83 L558.04,72.79 L559.11,72.77 L560.19,72.73 L561.26,72.68 L562.34,72.63 L563.42,72.63 L564.49,72.59 L565.57,72.55 L566.65,72.52 L567.72,72.47 L568.80,72.44 L569.87,72.40 L570.95,72.36 L572.03,72.34 L573.10,72.34 L574.18,72.30 L575.26,72.26 L576.33,72.21 L577.41,72.18 L578.49,72.14 L579.56,72.12 L580.64,72.07 L581.71,72.03 L582.79,71.98 L583.87,71.95 L584.94,71.90 L586.02,71.87 L587.10,71.84 L588.17,71.82 L589.25,71.80 L590.33,71.79 L591.40,71.74 L592.48,71.71 L593.55,71.68 L594.63,71.63 L595.71,71.61 L596.78,71.58 L597.86,71.54 L598.94,71.50 L600.01,71.46 L601.09,71.42 L602.17,71.39 L603.24,71.34 L604.32,71.31 L605.39,71.27 L606.47,71.25 L607.55,71.21 L608.62,71.17 L609.70,71.13 L610.78,71.09 L611.85,71.06 L612.93,71.02 L614.01,70.98 L615.08,70.94 L616.16,70.90 L617.23,70.86 L618.31,70.82 L619.39,70.78 L620.46,70.76 L621.54,70.73 L622.62,70.69 L623.69,70.65 L624.77,70.62 L625.84,70.58 L626.92,70.54 L628.00,70.51 L629.07,70.47 L630.15,70.44 L631.23,70.42 L632.30,70.38 L633.38,70.35 L634.46,70.31 L635.53,70.27 L636.61,70.24 L637.68,70.21 L638.76,70.18 L639.84,70.14 L640.91,70.11 L641.99,70.07 L643.07,70.03 L644.14,70.00 L645.22,69.97 L646.30,69.93 L647.37,69.91 L648.45,69.87 L649.52,69.83 L650.60,69.80 L651.68,69.76 L652.75,69.73 L653.83,69.69 L654.91,69.66 L655.98,69.62 L657.06,69.60 L658.14,69.56 L659.21,69.53 L660.29,69.50 L661.36,69.47 L662.44,69.43 L663.52,69.40 L664.59,69.38 L665.67,69.35 L666.75,69.31 L667.82,69.29 L668.90,69.26 L669.97,69.23 L671.05,69.20 L672.13,69.16 L673.20,69.13 L674.28,69.10 L675.36,69.06 L676.43,69.03 L677.51,69.00 L678.59,68.97 L679.66,68.93 L680.74,68.90 L681.81,68.87 L682.89,68.84 L683.97,68.81 L685.04,68.77 L686.12,68.74 L687.20,68.72 L688.27,68.69 L689.35,68.66 L690.43,68.62 L691.50,68.59 L692.58,68.56 L693.65,68.53 L694.73,68.51 L695.81,68.48 L696.88,68.45 L697.96,68.42 L699.04,68.39 L700.11,68.36 L701.19,68.33 L702.27,68.30 L703.34,68.27 L704.42,68.24 L705.49,68.21 L706.57,68.18 L707.65,68.15 L708.72,68.12 L709.80,68.09 L710.88,68.06 L711.95,68.03 L713.03,68.01 L714.11,67.98 L715.18,67.95 L716.26,67.92 L717.33,67.89 L718.41,67.86 L719.49,67.83 L720.56,67.80 L721.64,67.78 L722.72,67.98 L723.79,68.17 L724.87,68.37 L725.94,68.56 L727.02,68.72 L728.10,68.91 L729.17,69.08 L730.25,69.25 L731.33,69.47 L732.40,69.61 L733.48,69.74 L734.56,69.91 L735.63,70.11 L736.71,70.28 L737.78,70.42 L738.86,70.57 L739.94,70.77 L741.01,70.92 L742.09,71.12 L743.17,71.26 L744.24,71.39 L745.32,71.54 L746.40,71.65 L747.47,71.77 L748.55,71.89 L749.62,71.96 L750.70,72.06 L751.78,72.15 L752.85,72.21 L753.93,72.34 L755.01,72.42 L756.08,72.50 L757.16,72.61 L758.24,72.68 L759.31,72.80 L760.39,72.92 L761.46,72.98 L762.54,73.08 L763.62,73.16 L764.69,73.25 L765.77,73.32 L766.85,73.40 L767.92,73.49 L769.00,73.56 L770.08,73.68 L771.15,73.79 L772.23,73.88 L773.30,73.97 L774.38,74.04 L775.46,74.08 L776.53,74.11 L777.61,74.18 L778.69,74.25 L779.76,74.32 L780.84,74.39 L781.91,74.39 L782.99,74.44 L784.07,74.49 L785.14,74.60 L786.22,74.62 L787.30,74.65 L788.37,74.71 L789.45,74.74 L790.53,74.74 L791.60,74.77 L792.68,74.78 L793.75,74.76 L794.83,74.78 L795.91,74.82 L796.98,74.83 L798.06,74.86 L799.14,74.88 L800.21,74.87 L801.29,74.88 L802.37,74.89 L803.44,74.88 L804.52,74.85 L805.59,74.84 L806.67,74.82 L807.75,74.83 L808.82,74.82 L809.90,74.80 L810.98,74.77 L812.05,74.75 L813.13,74.72 L814.21,74.71 L815.28,74.68 L816.36,74.66 L817.43,74.63 L818.51,74.61 L819.59,74.58 L820.66,74.55 L821.74,74.51 L822.82,74.48 L823.89,74.46 L824.97,74.43 L826.05,74.40 L827.12,74.36 L828.20,74.33 L829.27,74.30 L830.35,74.26 L831.43,74.23 L832.50,74.20 L833.58,74.16 L834.66,74.13 L835.73,74.10 L836.81,74.08 L837.88,74.05 L838.96,74.02 L840.04,73.99 L841.11,73.96 L842.19,73.93 L843.27,73.90 L844.34,73.88 L845.42,73.84 L846.50,73.81 L847.57,73.78 L848.65,73.75 L849.72,73.72 L850.80,73.69 L851.88,73.66 L852.95,73.63 L854.03,73.60 L855.11,73.57 L856.18,73.54 L857.26,73.51 L858.34,73.48 L859.41,73.45 L860.49,73.42 L861.56,73.39 L862.64,73.36 L863.72,73.33 L864.79,73.30 L865.87,73.27 L866.95,73.24 L868.02,73.21 L869.10,73.18 L870.18,73.15 L871.25,73.12 L872.33,73.09 L873.40,73.06 L874.48,73.03 L875.56,73.00 L876.63,72.97 L877.71,72.94 L878.79,72.91 L879.86,72.88 L880.94,72.86 L882.02,72.83 L883.09,72.80 L884.17,72.77 L885.24,72.74 L886.32,72.71 L887.40,72.68 L888.47,72.65 L889.55,72.62 L890.63,72.59 L891.70,72.56 L892.78,72.53 L893.85,72.51 L894.93,72.48 L896.01,72.45 L897.08,72.42 L898.16,72.39 L899.24,72.36 L900.31,72.34 L901.39,72.31 L902.47,72.28 L903.54,72.25 L904.62,72.22 L905.69,72.19 L906.77,72.17 L907.85,72.14 L908.92,72.11 L910.00,72.08" fill="none" stroke="#ff7f0e" stroke-width="2"/>
<text x="915" y="70" font-size="12" fill="#ff7f0e">mean_teacher</text>
<path d="M50.00,312.50 L51.08,293.75 L52.15,248.44 L53.23,208.20 L54.31,179.38 L55.38,164.06 L56.46,153.12 L57.53,144.34 L58.61,136.46 L59.69,129.69 L60.76,123.72 L61.84,119.14 L62.92,113.82 L63.99,110.27 L65.07,106.56 L66.15,103.61 L67.22,100.46 L68.30,98.18 L69.37,96.38 L70.45,94.30 L71.53,92.41 L72.60,90.70 L73.68,88.93 L74.76,88.09 L75.83,86.75 L76.91,85.70 L77.98,84.72 L79.06,83.48 L80.14,82.33 L81.21,81.41 L82.29,80.54 L83.37,79.74 L84.44,78.84 L85.52,77.99 L86.60,77.46 L87.67,76.82 L88.75,76.10 L89.82,75.53 L90.90,74.88 L91.98,74.26 L93.05,73.67 L94.13,73.10 L95.21,72.57 L96.28,72.16 L97.36,71.67 L98.44,71.20 L99.51,70.74 L100.59,70.31 L101.66,69.90 L102.74,69.50 L103.82,69.12 L104.89,68.84 L105.97,68.48 L107.05,68.32 L108.12,67.98 L109.20,67.66 L110.28,67.35 L111.35,67.05 L112.43,66.76 L113.50,66.48 L114.58,66.21 L115.66,65.95 L116.73,65.70 L117.81,65.45 L118.89,65.22 L119.96,64.99 L121.04,64.76 L122.12,64.55 L123.19,64.33 L124.27,64.13 L125.34,63.93 L126.42,63.74 L127.50,63.55 L128.57,63.37 L129.65,63.19 L130.73,63.01 L131.80,62.84 L132.88,62.68 L133.95,62.52 L135.03,62.36 L136.11,62.21 L137.18,62.12 L138.26,61.97 L139.34,61.83 L140.41,61.69 L141.49,61.56 L142.57,61.42 L143.64,61.29 L144.72,61.17 L145.79,61.04 L146.87,60.92 L147.95,60.80 L149.02,60.69 L150.10,60.57 L151.18,60.46 L152.25,60.35 L153.33,60.24 L154.41,60.14 L155.48,60.04 L156.56,59.94 L157.63,59.84 L158.71,59.74 L159.79,59.65 L160.86,59.56 L161.94,59.46 L163.02,59.38 L164.09,59.29 L165.17,59.20 L166.25,59.12 L167.32,59.03 L168.40,58.95 L169.47,58.87 L170.55,58.79 L171.63,58.72 L172.70,58.64 L173.78,58.57 L174.86,58.49 L175.93,58.42 L177.01,58.35 L178.09,58.28 L179.16,58.25 L180.24,58.18 L181.31,58.12 L182.39,58.05 L183.47,57.99 L184.54,57.92 L185.62,57.86 L186.70,57.80 L187.77,57.74 L188.85,57.68 L189.92,57.62 L191.00,57.56 L192.08,57.51 L193.15,57.45 L194.23,57.40 L195.31,57.34 L196.38,57.29 L197.46,57.24 L198.54,57.18 L199.61,57.13 L200.69,57.08 L201.76,57.03 L202.84,56.98 L203.92,56.93 L204.99,56.89 L206.07,56.87 L207.15,56.82 L208.22,56.78 L209.30,56.73 L210.38,56.69 L211.45,56.64 L212.53,56.60 L213.60,56.56 L214.68,56.51 L215.76,56.47 L216.83,56.43 L217.91,56.39 L218.99,56.35 L220.06,56.31 L221.14,56.27 L222.22,56.23 L223.29,56.19 L224.37,56.15 L225.44,56.15 L226.52,56.11 L227.60,56.10 L228.67,56.06 L229.75,56.03 L230.83,55.99 L231.90,55.96 L232.98,55.92 L234.06,55.89 L235.13,55.85 L236.21,55.82 L237.28,55.79 L238.36,55.75 L239.44,55.72 L240.51,55.69 L241.59,55.66 L242.67,55.62 L243.74,55.59 L244.82,55.56 L245.89,55.53 L246.97,55.50 L248.05,55.47 L249.12,55.44 L250.20,55.41 L251.28,55.39 L252.35,55.36 L253.43,55.33 L254.51,55.30 L255.58,55.27 L256.66,55.25 L257.73,55.22 L258.81,55.19 L259.89,55.17 L260.96,55.16 L262.04,55.14 L263.12,55.11 L264.19,55.09 L265.27,55.06 L266.35,55.04 L267.42,55.01 L268.50,54.99 L269.57,54.96 L270.65,54.94 L271.73,54.91 L272.80,54.89 L273.88,54.87 L274.96,54.84 L276.03,54.82 L277.11,54.80 L278.19,54.78 L279.26,54.75 L280.34,54.73 L281.41,54.71 L282.49,54.69 L283.57,54.67 L284.64,54.64 L285.72,54.62 L286.80,54.60 L287.87,54.58 L288.95,54.56 L290.03,54.54 L291.10,54.52 L292.18,54.50 L293.25,54.48 L294.33,54.46 L295.41,54.44 L296.48,54.42 L297.56,54.40 L298.64,54.38 L299.71,54.37 L300.79,54.35 L301.86,54.33 L302.94,54.31 L304.02,54.29 L305.09,54.27 L306.17,54.26 L307.25,54.24 L308.32,54.22 L309.40,54.20 L310.48,54.19 L311.55,54.17 L312.63,54.15 L313.70,54.13 L314.78,54.12 L315.86,54.10 L316.93,54.09 L318.01,54.07 L319.09,54.05 L320.16,54.04 L321.24,54.02 L322.32,54.00 L323.39,53.99 L324.47,53.97 L325.54,53.96 L326.62,53.94 L327.70,53.93 L328.77,53.91 L329.85,53.90 L330.93,53.88 L332.00,53.87 L333.08,53.85 L334.16,53.84 L335.23,53.82 L336.31,53.81 L337.38,53.80 L338.46,53.78 L339.54,53.77 L340.61,53.75 L341.69,53.74 L342.77,53.73 L343.84,53.71 L344.92,53.70 L345.99,53.69 L347.07,53.67 L348.15,53.66 L349.22,53.65 L350.30,53.63 L351.38,53.62 L352.45,53.61 L353.53,53.59 L354.61,53.58 L355.68,53.57 L356.76,53.56 L357.83,53.54 L358.91,53.53 L359.99,53.52 L361.06,53.51 L362.14,53.50 L363.22,53.48 L364.29,53.47 L365.37,53.46 L366.45,53.45 L367.52,53.44 L368.60,53.42 L369.67,53.41 L370.75,53.40 L371.83,53.39 L372.90,53.38 L373.98,53.37 L375.06,53.36 L376.13,53.35 L377.21,53.34 L378.29,53.32 L379.36,53.31 L380.44,53.30 L381.51,53.29 L382.59,53.28 L383.67,53.27 L384.74,53.26 L385.82,53.55 L386.90,54.09 L387.97,54.61 L389.05,55.27 L390.13,55.72 L391.20,56.22 L392.28,56.77 L393.35,57.21 L394.43,57.80 L395.51,58.39 L396.58,58.82 L397.66,59.38 L398.74,59.82 L399.81,60.27 L400.89,60.79 L401.96,61.20 L403.04,61.61 L404.12,61.99 L405.19,62.29 L406.27,62.66 L407.35,63.15 L408.42,63.66 L409.50,64.01 L410.58,64.36 L411.65,64.70 L412.73,65.20 L413.80,65.67 L414.88,66.02 L415.96,66.43 L417.03,66.83 L418.11,67.15 L419.19,67.44 L420.26,67.77 L421.34,68.14 L422.42,68.36 L423.49,68.63 L424.57,68.95 L425.64,69.19 L426.72,69.35 L427.80,69.70 L428.87,70.05 L429.95,70.27 L431.03,70.55 L432.10,70.80 L433.18,71.07 L434.26,71.28 L435.33,71.45 L436.41,71.64 L437.48,71.78 L438.56,71.96 L439.64,72.11 L440.71,72.32 L441.79,72.44 L442.87,72.57 L443.94,72.75 L445.02,72.86 L446.10,73.02 L447.17,73.06 L448.25,73.15 L449.32,73.25 L450.40,73.34 L451.48,73.34 L452.55,73.39 L453.63,73.43 L454.71,73.52 L455.78,73.57 L456.86,73.59 L457.93,73.62 L459.01,73.67 L460.09,73.68 L461.16,73.68 L462.24,73.75 L463.32,73.85 L464.39,73.92 L465.47,73.97 L466.55,74.01 L467.62,74.05 L468.70,74.06 L469.77,74.07 L470.85,74.06 L471.93,74.05 L473.00,74.00 L474.08,73.96 L475.16,73.93 L476.23,73.95 L477.31,73.91 L478.39,73.90 L479.46,73.92 L480.54,73.95 L481.61,73.93 L482.69,73.87 L483.77,73.87 L484.84,73.87 L485.92,73.81 L487.00,73.78 L488.07,73.76 L489.15,73.77 L490.23,73.78 L491.30,73.76 L492.38,73.76 L493.45,73.73 L494.53,73.74 L495.61,73.73 L496.68,73.70 L497.76,73.66 L498.84,73.64 L499.91,73.65 L500.99,73.60 L502.07,73.58 L503.14,73.54 L504.22,73.55 L505.29,73.54 L506.37,73.54 L507.45,73.51 L508.52,73.51 L509.60,73.54 L510.68,73.52 L511.75,73.50 L512.83,73.47 L513.90,73.44 L514.98,73.43 L516.06,73.39 L517.13,73.35 L518.21,73.35 L519.29,73.33 L520.36,73.29 L521.44,73.26 L522.52,73.20 L523.59,73.17 L524.67,73.16 L525.74,73.14 L526.82,73.13 L527.90,73.09 L528.97,73.06 L530.05,73.02 L531.13,72.99 L532.20,72.98 L533.28,72.95 L534.36,72.93 L535.43,72.93 L536.51,72.89 L537.58,72.85 L538.66,72.80 L539.74,72.77 L540.81,72.73 L541.89,72.69 L542.97,72.64 L544.04,72.60 L545.12,72.56 L546.20,72.51 L547.27,72.47 L548.35,72.42 L549.42,72.38 L550.50,72.35 L551.58,72.31 L552.65,72.27 L553.73,72.23 L554.81,72.18 L555.88,72.13 L556.96,72.10 L558.04,72.05 L559.11,72.03 L560.19,72.01 L561.26,71.96 L562.34,71.92 L563.42,71.92 L564.49,71.90 L565.57,71.86 L566.65,71.82 L567.72,71.79 L568.80,71.75 L569.87,71.70 L570.95,71.67 L572.03,71.63 L573.10,71.59 L574.18,71.55 L575.26,71.52 L576.33,71.48 L577.41,71.43 L578.49,71.40 L579.56,71.36 L580.64,71.33 L581.71,71.30 L582.79,71.27 L583.87,71.24 L584.94,71.20 L586.02,71.16 L587.10,71.13 L588.17,71.10 L589.25,71.08 L590.33,71.07 L591.40,71.03 L592.48,71.01 L593.55,70.97 L594.63,70.93 L595.71,70.89 L596.78,70.85 L597.86,70.81 L598.94,70.77 L600.01,70.73 L601.09,70.69 L602.17,70.65 L603.24,70.61 L604.32,70.57 L605.39,70.53 L606.47,70.49 L607.55,70.46 L608.62,70.42 L609.70,70.38 L610.78,70.34 L611.85,70.30 L612.93,70.26 L614.01,70.23 L615.08,70.19 L616.16,70.16 L617.23,70.12 L618.31,70.08 L619.39,70.04 L620.46,70.00 L621.54,69.97 L622.62,69.94 L623.69,69.91 L624.77,69.88 L625.84,69.85 L626.92,69.82 L628.00,69.79 L629.07,69.75 L630.15,69.72 L631.23,69.69 L632.30,69.66 L633.38,69.62 L634.46,69.59 L635.53,69.55 L636.61,69.51 L637.68,69.48 L638.76,69.44 L639.84,69.41 L640.91,69.37 L641.99,69.34 L643.07,69.30 L644.14,69.27 L645.22,69.23 L646.30,69.20 L647.37,69.16 L648.45,69.13 L649.52,69.09 L650.60,69.06 L651.68,69.03 L652.75,69.00 L653.83,68.97 L654.91,68.93 L655.98,68.90 L657.06,68.87 L658.14,68.84 L659.21,68.82 L660.29,68.78 L661.36,68.75 L662.44,68.72 L663.52,68.68 L664.59,68.65 L665.67,68.62 L666.75,68.59 L667.82,68.56 L668.90,68.53 L669.97,68.50 L671.05,68.47 L672.13,68.44 L673.20,68.41 L674.28,68.38 L675.36,68.35 L676.43,68.32 L677.51,68.28 L678.59,68.25 L679.66,68.22 L680.74,68.19 L681.81,68.16 L682.89,68.13 L683.97,68.10 L685.04,68.07 L686.12,68.04 L687.20,68.01 L688.27,67.98 L689.35,67.95 L690.43,67.92 L691.50,67.89 L692.58,67.86 L693.65,67.83 L694.73,67.81 L695.81,67.78 L696.88,67.76 L697.96,67.73 L699.04,67.70 L700.11,67.67 L701.19,67.64 L702.27,67.61 L703.34,67.59 L704.42,67.56 L705.49,67.53 L706.57,67.50 L707.65,67.47 L708.72,67.45 L709.80,67.42 L710.88,67.40 L711.95,67.37 L713.03,67.34 L714.11,67.32 L715.18,67.30 L716.26,67.27 L717.33,67.24 L718.41,67.21 L719.49,67.18 L720.56,67.16 L721.64,67.13 L722.72,67.33 L723.79,67.52 L724.87,67.73 L725.94,67.92 L727.02,68.08 L728.10,68.28 L729.17,68.45 L730.25,68.62 L731.33,68.84 L732.40,68.97 L733.48,69.11 L734.56,69.27 L735.63,69.47 L736.71,69.64 L737.78,69.80 L738.86,69.93 L739.94,70.14 L741.01,70.30 L742.09,70.50 L743.17,70.63 L744.24,70.75 L745.32,70.88 L746.40,70.96 L747.47,71.05 L748.55,71.15 L749.62,71.24 L750.70,71.30 L751.78,71.39 L752.85,71.45 L753.93,71.55 L755.01,71.65 L756.08,71.74 L757.16,71.85 L758.24,71.94 L759.31,72.05 L760.39,72.17 L761.46,72.23 L762.54,72.34 L763.62,72.44 L764.69,72.56 L765.77,72.66 L766.85,72.73 L767.92,72.81 L769.00,72.89 L770.08,73.00 L771.15,73.13 L772.23,73.22 L773.30,73.33 L774.38,73.38 L775.46,73.44 L776.53,73.49 L777.61,73.53 L778.69,73.62 L779.76,73.69 L780.84,73.80 L781.91,73.82 L782.99,73.85 L784.07,73.90 L785.14,74.03 L786.22,74.07 L787.30,74.10 L788.37,74.17 L789.45,74.19 L790.53,74.20 L791.60,74.23 L792.68,74.24 L793.75,74.22 L794.83,74.22 L795.91,74.21 L796.98,74.23 L798.06,74.28 L799.14,74.31 L800.21,74.32 L801.29,74.33 L802.37,74.33 L803.44,74.35 L804.52,74.35 L805.59,74.34 L806.67,74.32 L807.75,74.31 L808.82,74.29 L809.90,74.27 L810.98,74.25 L812.05,74.21 L813.13,74.18 L814.21,74.16 L815.28,74.13 L816.36,74.09 L817.43,74.06 L818.51,74.03 L819.59,73.99 L820.66,73.96 L821.74,73.93 L822.82,73.89 L823.89,73.86 L824.97,73.83 L826.05,73.79 L827.12,73.77 L828.20,73.74 L829.27,73.70 L830.35,73.67 L831.43,73.64 L832.50,73.61 L833.58,73.58 L834.66,73.55 L835.73,73.51 L836.81,73.48 L837.88,73.45 L838.96,73.42 L840.04,73.39 L841.11,73.36 L842.19,73.33 L843.27,73.30 L844.34,73.27 L845.42,73.24 L846.50,73.21 L847.57,73.19 L848.65,73.16 L849.72,73.14 L850.80,73.10 L851.88,73.07 L852.95,73.05 L854.03,73.02 L855.11,72.99 L856.18,72.97 L857.26,72.94 L858.34,72.91 L859.41,72.88 L860.49,72.85 L861.56,72.82 L862.64,72.79 L863.72,72.76 L864.79,72.73 L865.87,72.71 L866.95,72.68 L868.02,72.65 L869.10,72.62 L870.18,72.59 L871.25,72.56 L872.33,72.53 L873.40,72.50 L874.48,72.47 L875.56,72.44 L876.63,72.41 L877.71,72.38 L878.79,72.36 L879.86,72.33 L880.94,72.30 L882.02,72.27 L883.09,72.24 L884.17,72.21 L885.24,72.18 L886.32,72.15 L887.40,72.13 L888.47,72.10 L889.55,72.07 L890.63,72.04 L891.70,72.01 L892.78,71.98 L893.85,71.96 L894.93,71.93 L896.01,71.90 L897.08,71.87 L898.16,71.85 L899.24,71.82 L900.31,71.79 L901.39,71.76 L902.47,71.74 L903.54,71.71 L904.62,71.69 L905.69,71.66 L906.77,71.63 L907.85,71.60 L908.92,71.58 L910.00,71.55" fill="none" stroke="#2ca02c" stroke-width="2"/>
<text x="915" y="90" font-size="12" fill="#2ca02c">ts_drift_adapt</text>
</svg>