<svg width="960" height="400" xmlns="http://www.w3.org/2000/svg">
<rect x="0" y="0" width="960" height="400" fill="#ffffff" stroke="#dddddd"/>
<line x1="50" y1="50" x2="50" y2="350" stroke="#444444"/>
<line x1="50" y1="350" x2="910" y2="350" stroke="#444444"/>
<text x="480.0" y="30" text-anchor="middle" font-size="18">stagger_abrupt3 Accuracy</text>
<path d="M50.00,134.38 L50.92,113.28 L51.84,106.25 L52.75,96.88 L53.67,90.31 L54.59,90.62 L55.51,90.18 L56.43,88.67 L57.35,84.90 L58.26,82.81 L59.18,81.11 L60.10,79.30 L61.02,77.76 L61.94,76.79 L62.86,75.00 L63.77,73.73 L64.69,72.61 L65.61,71.61 L66.53,70.72 L67.45,69.69 L68.37,68.97 L69.28,68.11 L70.20,67.32 L71.12,66.60 L72.04,66.12 L72.96,65.69 L73.88,65.28 L74.79,64.90 L75.71,64.39 L76.63,64.06 L77.55,63.61 L78.47,63.18 L79.39,62.78 L80.30,62.41 L81.22,62.05 L82.14,61.72 L83.06,61.40 L83.98,61.10 L84.90,60.82 L85.81,60.55 L86.73,60.29 L87.65,60.04 L88.57,59.81 L89.49,59.59 L90.41,59.48 L91.32,59.27 L92.24,59.08 L93.16,58.89 L94.08,58.71 L95.00,58.53 L95.92,58.36 L96.83,58.20 L97.75,58.05 L98.67,57.90 L99.59,57.76 L100.51,57.70 L101.43,57.73 L102.34,57.68 L103.26,57.55 L104.18,57.50 L105.10,57.38 L106.02,57.26 L106.94,57.14 L107.85,57.03 L108.77,56.92 L109.69,56.82 L110.61,56.72 L111.53,56.62 L112.45,56.52 L113.36,56.43 L114.28,56.34 L115.20,56.25 L116.12,56.16 L117.04,56.08 L117.96,56.00 L118.87,55.92 L119.79,55.84 L120.71,55.77 L121.63,55.70 L122.55,55.62 L123.47,55.56 L124.38,55.49 L125.30,55.42 L126.22,55.36 L127.14,55.29 L128.06,55.23 L128.97,55.17 L129.89,55.11 L130.81,55.06 L131.73,55.05 L132.65,55.00 L133.57,54.94 L134.48,54.89 L135.40,54.84 L136.32,54.79 L137.24,54.74 L138.16,54.69 L139.08,54.64 L139.99,54.59 L140.91,54.55 L141.83,54.55 L142.75,54.50 L143.67,54.46 L144.59,54.42 L145.50,54.37 L146.42,54.33 L147.34,54.29 L148.26,54.25 L149.18,54.21 L150.10,54.22 L151.01,54.18 L151.93,54.14 L152.85,54.11 L153.77,54.11 L154.69,54.16 L155.61,54.12 L156.52,54.09 L157.44,54.05 L158.36,54.02 L159.28,53.98 L160.20,53.95 L161.12,53.92 L162.03,53.89 L162.95,53.89 L163.87,53.86 L164.79,53.83 L165.71,53.80 L166.63,53.77 L167.54,53.74 L168.46,53.71 L169.38,53.69 L170.30,53.66 L171.22,53.63 L172.14,53.60 L173.05,53.58 L173.97,53.55 L174.89,53.52 L175.81,53.50 L176.73,53.47 L177.65,53.45 L178.56,53.42 L179.48,53.40 L180.40,53.38 L181.32,53.35 L182.24,53.33 L183.16,53.31 L184.07,53.28 L184.99,53.26 L185.91,53.24 L186.83,53.22 L187.75,53.20 L188.67,53.18 L189.58,53.16 L190.50,53.14 L191.42,53.11 L192.34,53.09 L193.26,53.08 L194.18,53.06 L195.09,53.04 L196.01,53.02 L196.93,53.00 L197.85,52.98 L198.77,52.96 L199.68,52.94 L200.60,52.93 L201.52,52.94 L202.44,52.92 L203.36,52.90 L204.28,52.88 L205.19,52.87 L206.11,52.85 L207.03,52.83 L207.95,52.82 L208.87,52.80 L209.79,52.79 L210.70,52.77 L211.62,52.75 L212.54,52.74 L213.46,52.72 L214.38,52.71 L215.30,52.69 L216.21,52.68 L217.13,52.66 L218.05,52.65 L218.97,52.64 L219.89,52.62 L220.81,52.61 L221.72,52.59 L222.64,52.58 L223.56,52.57 L224.48,52.55 L225.40,52.54 L226.32,52.53 L227.23,52.51 L228.15,52.50 L229.07,52.49 L229.99,52.47 L230.91,52.46 L231.83,52.45 L232.74,52.44 L233.66,52.43 L234.58,52.41 L235.50,52.40 L236.42,52.39 L237.34,52.38 L238.25,52.37 L239.17,52.36 L240.09,52.34 L241.01,52.33 L241.93,52.32 L242.85,52.31 L243.76,52.30 L244.68,52.29 L245.60,52.28 L246.52,52.27 L247.44,52.26 L248.36,52.25 L249.27,52.24 L250.19,52.23 L251.11,52.22 L252.03,52.21 L252.95,52.20 L253.87,52.19 L254.78,52.18 L255.70,52.17 L256.62,52.16 L257.54,52.15 L258.46,52.14 L259.38,52.13 L260.29,52.12 L261.21,52.11 L262.13,52.10 L263.05,52.09 L263.97,52.08 L264.89,52.07 L265.80,52.07 L266.72,52.06 L267.64,52.05 L268.56,52.04 L269.48,52.03 L270.40,52.02 L271.31,52.01 L272.23,52.01 L273.15,52.00 L274.07,51.99 L274.99,51.98 L275.90,51.97 L276.82,51.97 L277.74,51.96 L278.66,51.95 L279.58,51.94 L280.50,51.93 L281.41,51.93 L282.33,51.92 L283.25,51.91 L284.17,51.90 L285.09,51.90 L286.01,51.89 L286.92,51.88 L287.84,51.88 L288.76,51.87 L289.68,51.86 L290.60,51.85 L291.52,51.85 L292.43,51.84 L293.35,51.83 L294.27,51.83 L295.19,51.82 L296.11,51.81 L297.03,51.81 L297.94,51.80 L298.86,51.79 L299.78,51.79 L300.70,51.78 L301.62,51.77 L302.54,51.77 L303.45,51.76 L304.37,51.75 L305.29,51.75 L306.21,51.74 L307.13,51.73 L308.05,51.73 L308.96,51.72 L309.88,51.72 L310.80,51.71 L311.72,51.70 L312.64,51.70 L313.56,51.69 L314.47,51.69 L315.39,51.68 L316.31,51.68 L317.23,51.67 L318.15,51.66 L319.07,51.66 L319.98,51.65 L320.90,51.65 L321.82,51.64 L322.74,51.64 L323.66,51.63 L324.58,51.62 L325.49,51.62 L326.41,51.61 L327.33,51.61 L328.25,51.60 L329.17,51.60 L330.09,51.59 L331.00,51.59 L331.92,51.58 L332.84,51.58 L333.76,51.57 L334.68,51.57 L335.60,51.56 L336.51,51.84 L337.43,52.30 L338.35,52.87 L339.27,53.44 L340.19,54.01 L341.11,54.55 L342.02,54.97 L342.94,55.55 L343.86,56.18 L344.78,56.75 L345.70,57.23 L346.62,57.78 L347.53,58.32 L348.45,58.79 L349.37,59.26 L350.29,59.75 L351.21,60.23 L352.12,60.67 L353.04,61.10 L353.96,61.52 L354.88,61.95 L355.80,62.41 L356.72,62.86 L357.63,63.41 L358.55,63.85 L359.47,64.28 L360.39,64.68 L361.31,65.12 L362.23,65.63 L363.14,66.10 L364.06,66.50 L364.98,66.91 L365.90,67.32 L366.82,67.73 L367.74,68.13 L368.65,68.45 L369.57,68.92 L370.49,69.33 L371.41,69.74 L372.33,70.11 L373.25,70.58 L374.16,70.99 L375.08,71.35 L376.00,71.75 L376.92,72.15 L377.84,72.47 L378.76,72.81 L379.67,73.16 L380.59,73.45 L381.51,73.88 L382.43,74.17 L383.35,74.49 L384.27,74.84 L385.18,75.22 L386.10,75.49 L387.02,75.86 L387.94,76.17 L388.86,76.50 L389.78,76.76 L390.69,76.99 L391.61,77.27 L392.53,77.55 L393.45,77.71 L394.37,77.89 L395.29,78.03 L396.20,78.12 L397.12,78.30 L398.04,78.40 L398.96,78.52 L399.88,78.54 L400.80,78.66 L401.71,78.77 L402.63,78.94 L403.55,79.07 L404.47,79.20 L405.39,79.38 L406.31,79.53 L407.22,79.81 L408.14,80.07 L409.06,80.22 L409.98,80.45 L410.90,80.68 L411.82,80.94 L412.73,81.19 L413.65,81.37 L414.57,81.56 L415.49,81.70 L416.41,81.90 L417.33,82.08 L418.24,82.26 L419.16,82.46 L420.08,82.55 L421.00,82.70 L421.92,82.88 L422.84,83.09 L423.75,83.12 L424.67,83.18 L425.59,83.32 L426.51,83.43 L427.43,83.50 L428.34,83.72 L429.26,83.85 L430.18,83.95 L431.10,83.98 L432.02,84.12 L432.94,84.20 L433.85,84.30 L434.77,84.36 L435.69,84.52 L436.61,84.56 L437.53,84.63 L438.45,84.68 L439.36,84.75 L440.28,84.85 L441.20,84.92 L442.12,85.01 L443.04,85.11 L443.96,85.19 L444.87,85.22 L445.79,85.31 L446.71,85.43 L447.63,85.51 L448.55,85.52 L449.47,85.48 L450.38,85.45 L451.30,85.43 L452.22,85.42 L453.14,85.38 L454.06,85.35 L454.98,85.33 L455.89,85.26 L456.81,85.24 L457.73,85.24 L458.65,85.22 L459.57,85.25 L460.49,85.31 L461.40,85.31 L462.32,85.30 L463.24,85.36 L464.16,85.38 L465.08,85.44 L466.00,85.50 L466.91,85.52 L467.83,85.58 L468.75,85.61 L469.67,85.63 L470.59,85.66 L471.51,85.67 L472.42,85.69 L473.34,85.69 L474.26,85.71 L475.18,85.71 L476.10,85.74 L477.02,85.72 L477.93,85.69 L478.85,85.67 L479.77,85.64 L480.69,85.64 L481.61,85.61 L482.53,85.64 L483.44,85.62 L484.36,85.61 L485.28,85.63 L486.20,85.61 L487.12,85.60 L488.04,85.59 L488.95,85.58 L489.87,85.59 L490.79,85.53 L491.71,85.53 L492.63,85.53 L493.55,85.50 L494.46,85.46 L495.38,85.42 L496.30,85.39 L497.22,85.38 L498.14,85.36 L499.05,85.38 L499.97,85.37 L500.89,85.38 L501.81,85.37 L502.73,85.32 L503.65,85.29 L504.56,85.27 L505.48,85.22 L506.40,85.21 L507.32,85.21 L508.24,85.21 L509.16,85.18 L510.07,85.14 L510.99,85.10 L511.91,85.09 L512.83,85.08 L513.75,85.04 L514.67,85.01 L515.58,84.98 L516.50,84.98 L517.42,84.97 L518.34,84.92 L519.26,84.89 L520.18,84.84 L521.09,84.79 L522.01,84.76 L522.93,84.73 L523.85,84.68 L524.77,84.62 L525.69,84.56 L526.60,84.53 L527.52,84.46 L528.44,84.42 L529.36,84.37 L530.28,84.36 L531.20,84.32 L532.11,84.29 L533.03,84.24 L533.95,84.22 L534.87,84.19 L535.79,84.16 L536.71,84.12 L537.62,84.05 L538.54,84.01 L539.46,83.96 L540.38,83.96 L541.30,83.94 L542.22,83.89 L543.13,83.86 L544.05,83.85 L544.97,83.84 L545.89,83.80 L546.81,83.79 L547.73,83.77 L548.64,83.74 L549.56,83.73 L550.48,83.71 L551.40,83.70 L552.32,83.67 L553.24,83.62 L554.15,83.56 L555.07,83.53 L555.99,83.48 L556.91,83.43 L557.83,83.37 L558.75,83.32 L559.66,83.28 L560.58,83.22 L561.50,83.17 L562.42,83.14 L563.34,83.12 L564.26,83.10 L565.17,83.07 L566.09,83.05 L567.01,83.03 L567.93,82.99 L568.85,82.97 L569.77,82.99 L570.68,82.95 L571.60,82.93 L572.52,82.90 L573.44,82.85 L574.36,82.81 L575.27,82.80 L576.19,82.77 L577.11,82.72 L578.03,82.70 L578.95,82.64 L579.87,82.59 L580.78,82.55 L581.70,82.52 L582.62,82.47 L583.54,82.45 L584.46,82.39 L585.38,82.34 L586.29,82.29 L587.21,82.24 L588.13,82.19 L589.05,82.13 L589.97,82.08 L590.89,82.03 L591.80,81.98 L592.72,81.93 L593.64,81.88 L594.56,81.83 L595.48,81.80 L596.40,81.75 L597.31,81.70 L598.23,81.65 L599.15,81.62 L600.07,81.57 L600.99,81.52 L601.91,81.48 L602.82,81.44 L603.74,81.39 L604.66,81.36 L605.58,81.31 L606.50,81.27 L607.42,81.22 L608.33,81.20 L609.25,81.16 L610.17,81.15 L611.09,81.12 L612.01,81.07 L612.93,81.03 L613.84,81.00 L614.76,80.96 L615.68,80.91 L616.60,80.87 L617.52,80.84 L618.44,80.79 L619.35,80.74 L620.27,80.69 L621.19,80.65 L622.11,80.60 L623.03,80.55 L623.95,80.79 L624.86,80.96 L625.78,81.16 L626.70,81.34 L627.62,81.49 L628.54,81.71 L629.46,81.86 L630.37,82.03 L631.29,82.18 L632.21,82.41 L633.13,82.61 L634.05,82.72 L634.97,82.83 L635.88,82.96 L636.80,83.13 L637.72,83.27 L638.64,83.40 L639.56,83.56 L640.48,83.68 L641.39,83.79 L642.31,83.89 L643.23,84.00 L644.15,84.10 L645.07,84.24 L645.99,84.36 L646.90,84.48 L647.82,84.54 L648.74,84.68 L649.66,84.77 L650.58,84.91 L651.49,84.98 L652.41,85.09 L653.33,85.18 L654.25,85.31 L655.17,85.44 L656.09,85.52 L657.00,85.66 L657.92,85.78 L658.84,85.85 L659.76,85.95 L660.68,86.03 L661.60,86.11 L662.51,86.22 L663.43,86.32 L664.35,86.43 L665.27,86.53 L666.19,86.59 L667.11,86.67 L668.02,86.77 L668.94,86.88 L669.86,86.97 L670.78,87.13 L671.70,87.20 L672.62,87.38 L673.53,87.49 L674.45,87.60 L675.37,87.72 L676.29,87.81 L677.21,87.90 L678.13,88.02 L679.04,88.12 L679.96,88.26 L680.88,88.33 L681.80,88.43 L682.72,88.46 L683.64,88.55 L684.55,88.68 L685.47,88.82 L686.39,88.90 L687.31,88.94 L688.23,89.02 L689.15,89.10 L690.06,89.15 L690.98,89.22 L691.90,89.31 L692.82,89.37 L693.74,89.47 L694.66,89.51 L695.57,89.64 L696.49,89.71 L697.41,89.78 L698.33,89.87 L699.25,89.89 L700.17,89.91 L701.08,90.00 L702.00,90.05 L702.92,90.11 L703.84,90.12 L704.76,90.17 L705.68,90.21 L706.59,90.20 L707.51,90.25 L708.43,90.29 L709.35,90.38 L710.27,90.44 L711.19,90.48 L712.10,90.54 L713.02,90.62 L713.94,90.65 L714.86,90.68 L715.78,90.72 L716.70,90.80 L717.61,90.83 L718.53,90.88 L719.45,90.93 L720.37,90.95 L721.29,91.03 L722.21,91.04 L723.12,91.06 L724.04,91.08 L724.96,91.17 L725.88,91.21 L726.80,91.25 L727.71,91.29 L728.63,91.33 L729.55,91.37 L730.47,91.42 L731.39,91.46 L732.31,91.50 L733.22,91.50 L734.14,91.52 L735.06,91.51 L735.98,91.55 L736.90,91.54 L737.82,91.54 L738.73,91.55 L739.65,91.57 L740.57,91.56 L741.49,91.60 L742.41,91.60 L743.33,91.60 L744.24,91.63 L745.16,91.67 L746.08,91.67 L747.00,91.64 L747.92,91.66 L748.84,91.65 L749.75,91.67 L750.67,91.67 L751.59,91.67 L752.51,91.69 L753.43,91.67 L754.35,91.67 L755.26,91.67 L756.18,91.65 L757.10,91.63 L758.02,91.64 L758.94,91.64 L759.86,91.62 L760.77,91.61 L761.69,91.61 L762.61,91.60 L763.53,91.58 L764.45,91.57 L765.37,91.59 L766.28,91.58 L767.20,91.56 L768.12,91.58 L769.04,91.57 L769.96,91.54 L770.88,91.54 L771.79,91.51 L772.71,91.48 L773.63,91.44 L774.55,91.40 L775.47,91.36 L776.39,91.34 L777.30,91.29 L778.22,91.25 L779.14,91.22 L780.06,91.18 L780.98,91.14 L781.90,91.11 L782.81,91.06 L783.73,91.03 L784.65,91.02 L785.57,91.00 L786.49,90.97 L787.41,90.93 L788.32,90.88 L789.24,90.85 L790.16,90.83 L791.08,90.82 L792.00,90.79 L792.92,90.82 L793.83,90.78 L794.75,90.78 L795.67,90.78 L796.59,90.74 L797.51,90.73 L798.42,90.68 L799.34,90.67 L800.26,90.63 L801.18,90.60 L802.10,90.55 L803.02,90.52 L803.93,90.49 L804.85,90.45 L805.77,90.40 L806.69,90.36 L807.61,90.31 L808.53,90.28 L809.44,90.23 L810.36,90.19 L811.28,90.14 L812.20,90.09 L813.12,90.05 L814.04,90.01 L814.95,89.97 L815.87,89.93 L816.79,89.89 L817.71,89.85 L818.63,89.80 L819.55,89.77 L820.46,89.74 L821.38,89.69 L822.30,89.65 L823.22,89.61 L824.14,89.57 L825.06,89.52 L825.97,89.48 L826.89,89.43 L827.81,89.39 L828.73,89.34 L829.65,89.30 L830.57,89.26 L831.48,89.22 L832.40,89.17 L833.32,89.12 L834.24,89.08 L835.16,89.03 L836.08,88.99 L836.99,88.95 L837.91,88.90 L838.83,88.86 L839.75,88.82 L840.67,88.78 L841.59,88.73 L842.50,88.69 L843.42,88.65 L844.34,88.60 L845.26,88.57 L846.18,88.52 L847.10,88.48 L848.01,88.43 L848.93,88.39 L849.85,88.34 L850.77,88.30 L851.69,88.26 L852.61,88.21 L853.52,88.17 L854.44,88.13 L855.36,88.09 L856.28,88.05 L857.20,88.01 L858.12,87.97 L859.03,87.94 L859.95,87.89 L860.87,87.85 L861.79,87.81 L862.71,87.76 L863.63,87.72 L864.54,87.68 L865.46,87.64 L866.38,87.60 L867.30,87.56 L868.22,87.52 L869.14,87.47 L870.05,87.43 L870.97,87.39 L871.89,87.35 L872.81,87.31 L873.73,87.27 L874.64,87.22 L875.56,87.18 L876.48,87.14 L877.40,87.10 L878.32,87.06 L879.24,87.02 L880.15,86.98 L881.07,86.94 L881.99,86.90 L882.91,86.85 L883.83,86.81 L884.75,86.77 L885.66,86.73 L886.58,86.69 L887.50,86.65 L888.42,86.61 L889.34,86.57 L890.26,86.53 L891.17,86.50 L892.09,86.46 L893.01,86.42 L893.93,86.38 L894.85,86.34 L895.77,86.30 L896.68,86.26 L897.60,86.22 L898.52,86.18 L899.44,86.14 L900.36,86.10 L901.28,86.07 L902.19,86.03 L903.11,85.99 L904.03,85.95 L904.95,85.91 L905.87,85.87 L906.79,85.83 L907.70,85.80 L908.62,85.76 L909.54,85.72 L910.00,85.70" fill="none" stroke="#1f77b4" stroke-width="2"/>
<text x="915" y="50" font-size="12" fill="#1f77b4">baseline_student</text>
<path d="M50.00,78.12 L50.92,78.12 L51.84,82.81 L52.75,79.30 L53.67,77.19 L54.59,79.69 L55.51,80.80 L56.43,81.64 L57.35,79.69 L58.26,79.06 L59.18,78.12 L60.10,78.52 L61.02,76.68 L61.94,77.12 L62.86,76.56 L63.77,76.07 L64.69,76.19 L65.61,75.78 L66.53,75.41 L67.45,75.31 L68.37,75.22 L69.28,74.72 L70.20,73.64 L71.12,73.63 L72.04,73.44 L72.96,73.26 L73.88,72.92 L74.79,72.43 L75.71,71.82 L76.63,71.25 L77.55,71.02 L78.47,70.51 L79.39,70.17 L80.30,69.58 L81.22,69.02 L82.14,68.62 L83.06,68.12 L83.98,67.76 L84.90,67.31 L85.81,66.88 L86.73,66.46 L87.65,66.07 L88.57,65.70 L89.49,65.34 L90.41,65.00 L91.32,64.67 L92.24,64.36 L93.16,64.16 L94.08,63.87 L95.00,63.59 L95.92,63.33 L96.83,63.07 L97.75,62.82 L98.67,62.59 L99.59,62.36 L100.51,62.14 L101.43,61.92 L102.34,61.96 L103.26,61.76 L104.18,61.56 L105.10,61.37 L106.02,61.19 L106.94,61.01 L107.85,60.84 L108.77,60.75 L109.69,60.58 L110.61,60.42 L111.53,60.27 L112.45,60.12 L113.36,59.98 L114.28,59.84 L115.20,59.70 L116.12,59.57 L117.04,59.44 L117.96,59.31 L118.87,59.19 L119.79,59.07 L120.71,58.95 L121.63,58.90 L122.55,58.79 L123.47,58.68 L124.38,58.57 L125.30,58.47 L126.22,58.37 L127.14,58.27 L128.06,58.18 L128.97,58.08 L129.89,58.04 L130.81,57.95 L131.73,57.92 L132.65,57.83 L133.57,57.80 L134.48,57.71 L135.40,57.63 L136.32,57.65 L137.24,57.62 L138.16,57.54 L139.08,57.56 L139.99,57.53 L140.91,57.50 L141.83,57.47 L142.75,57.44 L143.67,57.37 L144.59,57.30 L145.50,57.23 L146.42,57.21 L147.34,57.14 L148.26,57.12 L149.18,57.10 L150.10,57.03 L151.01,57.01 L151.93,56.95 L152.85,56.89 L153.77,56.87 L154.69,56.81 L155.61,56.75 L156.52,56.69 L157.44,56.63 L158.36,56.58 L159.28,56.56 L160.20,56.51 L161.12,56.45 L162.03,56.40 L162.95,56.35 L163.87,56.30 L164.79,56.25 L165.71,56.20 L166.63,56.15 L167.54,56.10 L168.46,56.06 L169.38,56.01 L170.30,55.97 L171.22,55.92 L172.14,55.88 L173.05,55.83 L173.97,55.79 L174.89,55.75 L175.81,55.71 L176.73,55.67 L177.65,55.62 L178.56,55.59 L179.48,55.55 L180.40,55.51 L181.32,55.47 L182.24,55.46 L183.16,55.43 L184.07,55.39 L184.99,55.35 L185.91,55.32 L186.83,55.28 L187.75,55.25 L188.67,55.21 L189.58,55.18 L190.50,55.14 L191.42,55.11 L192.34,55.08 L193.26,55.05 L194.18,55.01 L195.09,54.98 L196.01,54.95 L196.93,54.92 L197.85,54.89 L198.77,54.86 L199.68,54.83 L200.60,54.80 L201.52,54.77 L202.44,54.74 L203.36,54.72 L204.28,54.69 L205.19,54.66 L206.11,54.63 L207.03,54.61 L207.95,54.58 L208.87,54.55 L209.79,54.53 L210.70,54.50 L211.62,54.48 L212.54,54.45 L213.46,54.43 L214.38,54.40 L215.30,54.38 L216.21,54.35 L217.13,54.33 L218.05,54.31 L218.97,54.28 L219.89,54.26 L220.81,54.24 L221.72,54.21 L222.64,54.19 L223.56,54.17 L224.48,54.15 L225.40,54.13 L226.32,54.10 L227.23,54.08 L228.15,54.06 L229.07,54.04 L229.99,54.02 L230.91,54.00 L231.83,53.98 L232.74,53.96 L233.66,53.94 L234.58,53.92 L235.50,53.90 L236.42,53.88 L237.34,53.86 L238.25,53.85 L239.17,53.83 L240.09,53.81 L241.01,53.79 L241.93,53.77 L242.85,53.75 L243.76,53.74 L244.68,53.72 L245.60,53.70 L246.52,53.68 L247.44,53.67 L248.36,53.65 L249.27,53.63 L250.19,53.62 L251.11,53.60 L252.03,53.58 L252.95,53.57 L253.87,53.55 L254.78,53.54 L255.70,53.52 L256.62,53.51 L257.54,53.49 L258.46,53.47 L259.38,53.46 L260.29,53.44 L261.21,53.43 L262.13,53.41 L263.05,53.40 L263.97,53.39 L264.89,53.37 L265.80,53.36 L266.72,53.34 L267.64,53.33 L268.56,53.31 L269.48,53.30 L270.40,53.29 L271.31,53.27 L272.23,53.26 L273.15,53.25 L274.07,53.23 L274.99,53.22 L275.90,53.21 L276.82,53.19 L277.74,53.18 L278.66,53.17 L279.58,53.16 L280.50,53.14 L281.41,53.13 L282.33,53.12 L283.25,53.11 L284.17,53.09 L285.09,53.08 L286.01,53.07 L286.92,53.06 L287.84,53.05 L288.76,53.04 L289.68,53.02 L290.60,53.01 L291.52,53.00 L292.43,52.99 L293.35,52.98 L294.27,52.97 L295.19,52.96 L296.11,52.94 L297.03,52.93 L297.94,52.92 L298.86,52.91 L299.78,52.90 L300.70,52.89 L301.62,52.88 L302.54,52.87 L303.45,52.86 L304.37,52.85 L305.29,52.84 L306.21,52.83 L307.13,52.82 L308.05,52.81 L308.96,52.80 L309.88,52.79 L310.80,52.78 L311.72,52.77 L312.64,52.76 L313.56,52.75 L314.47,52.74 L315.39,52.73 L316.31,52.72 L317.23,52.71 L318.15,52.70 L319.07,52.69 L319.98,52.69 L320.90,52.68 L321.82,52.67 L322.74,52.66 L323.66,52.65 L324.58,52.64 L325.49,52.63 L326.41,52.62 L327.33,52.61 L328.25,52.61 L329.17,52.60 L330.09,52.59 L331.00,52.58 L331.92,52.57 L332.84,52.56 L333.76,52.56 L334.68,52.55 L335.60,52.54 L336.51,52.82 L337.43,53.27 L338.35,53.84 L339.27,54.41 L340.19,54.97 L341.11,55.51 L342.02,55.92 L342.94,56.50 L343.86,57.13 L344.78,57.70 L345.70,58.17 L346.62,58.72 L347.53,59.26 L348.45,59.71 L349.37,60.16 L350.29,60.63 L351.21,61.16 L352.12,61.59 L353.04,62.02 L353.96,62.44 L354.88,62.87 L355.80,63.32 L356.72,63.77 L357.63,64.31 L358.55,64.76 L359.47,65.17 L360.39,65.56 L361.31,65.97 L362.23,66.47 L363.14,66.94 L364.06,67.33 L364.98,67.74 L365.90,68.15 L366.82,68.56 L367.74,68.97 L368.65,69.29 L369.57,69.76 L370.49,70.14 L371.41,70.55 L372.33,70.92 L373.25,71.39 L374.16,71.81 L375.08,72.17 L376.00,72.57 L376.92,72.96 L377.84,73.28 L378.76,73.62 L379.67,73.97 L380.59,74.26 L381.51,74.68 L382.43,74.97 L383.35,75.29 L384.27,75.65 L385.18,76.05 L386.10,76.32 L387.02,76.71 L387.94,77.02 L388.86,77.40 L389.78,77.68 L390.69,77.96 L391.61,78.38 L392.53,78.73 L393.45,79.02 L394.37,79.35 L395.29,79.54 L396.20,79.85 L397.12,80.14 L398.04,80.38 L398.96,80.66 L399.88,80.89 L400.80,81.23 L401.71,81.45 L402.63,81.70 L403.55,81.97 L404.47,82.23 L405.39,82.52 L406.31,82.74 L407.22,83.09 L408.14,83.39 L409.06,83.60 L409.98,83.83 L410.90,84.10 L411.82,84.40 L412.73,84.66 L413.65,84.94 L414.57,85.14 L415.49,85.40 L416.41,85.60 L417.33,85.85 L418.24,86.07 L419.16,86.33 L420.08,86.46 L421.00,86.64 L421.92,86.91 L422.84,87.20 L423.75,87.34 L424.67,87.47 L425.59,87.72 L426.51,87.84 L427.43,88.00 L428.34,88.28 L429.26,88.52 L430.18,88.69 L431.10,88.75 L432.02,88.96 L432.94,89.08 L433.85,89.20 L434.77,89.30 L435.69,89.48 L436.61,89.53 L437.53,89.61 L438.45,89.66 L439.36,89.76 L440.28,89.88 L441.20,89.95 L442.12,90.00 L443.04,90.05 L443.96,90.13 L444.87,90.20 L445.79,90.30 L446.71,90.40 L447.63,90.50 L448.55,90.52 L449.47,90.48 L450.38,90.45 L451.30,90.45 L452.22,90.45 L453.14,90.43 L454.06,90.41 L454.98,90.37 L455.89,90.35 L456.81,90.36 L457.73,90.38 L458.65,90.37 L459.57,90.44 L460.49,90.50 L461.40,90.51 L462.32,90.50 L463.24,90.55 L464.16,90.60 L465.08,90.67 L466.00,90.71 L466.91,90.78 L467.83,90.83 L468.75,90.86 L469.67,90.91 L470.59,90.97 L471.51,90.99 L472.42,91.06 L473.34,91.08 L474.26,91.08 L475.18,91.12 L476.10,91.15 L477.02,91.16 L477.93,91.13 L478.85,91.13 L479.77,91.12 L480.69,91.14 L481.61,91.13 L482.53,91.18 L483.44,91.16 L484.36,91.16 L485.28,91.19 L486.20,91.18 L487.12,91.16 L488.04,91.13 L488.95,91.10 L489.87,91.11 L490.79,91.05 L491.71,90.99 L492.63,91.00 L493.55,90.99 L494.46,90.95 L495.38,90.97 L496.30,90.96 L497.22,90.98 L498.14,90.96 L499.05,90.98 L499.97,90.98 L500.89,90.96 L501.81,90.98 L502.73,90.93 L503.65,90.92 L504.56,90.89 L505.48,90.85 L506.40,90.85 L507.32,90.87 L508.24,90.88 L509.16,90.88 L510.07,90.83 L510.99,90.78 L511.91,90.75 L512.83,90.69 L513.75,90.63 L514.67,90.58 L515.58,90.52 L516.50,90.48 L517.42,90.47 L518.34,90.42 L519.26,90.38 L520.18,90.33 L521.09,90.26 L522.01,90.22 L522.93,90.19 L523.85,90.11 L524.77,90.07 L525.69,90.02 L526.60,89.96 L527.52,89.91 L528.44,89.86 L529.36,89.79 L530.28,89.78 L531.20,89.74 L532.11,89.71 L533.03,89.67 L533.95,89.60 L534.87,89.57 L535.79,89.52 L536.71,89.46 L537.62,89.40 L538.54,89.38 L539.46,89.32 L540.38,89.29 L541.30,89.24 L542.22,89.18 L543.13,89.15 L544.05,89.10 L544.97,89.06 L545.89,89.01 L546.81,88.95 L547.73,88.91 L548.64,88.85 L549.56,88.82 L550.48,88.79 L551.40,88.73 L552.32,88.70 L553.24,88.65 L554.15,88.59 L555.07,88.55 L555.99,88.49 L556.91,88.44 L557.83,88.38 L558.75,88.33 L559.66,88.28 L560.58,88.24 L561.50,88.18 L562.42,88.15 L563.34,88.11 L564.26,88.05 L565.17,88.01 L566.09,87.99 L567.01,87.97 L567.93,87.93 L568.85,87.89 L569.77,87.85 L570.68,87.80 L571.60,87.74 L572.52,87.67 L573.44,87.62 L574.36,87.57 L575.27,87.52 L576.19,87.49 L577.11,87.43 L578.03,87.38 L578.95,87.31 L579.87,87.26 L580.78,87.21 L581.70,87.15 L582.62,87.10 L583.54,87.03 L584.46,86.97 L585.38,86.91 L586.29,86.86 L587.21,86.80 L588.13,86.75 L589.05,86.70 L589.97,86.66 L590.89,86.61 L591.80,86.56 L592.72,86.51 L593.64,86.46 L594.56,86.41 L595.48,86.36 L596.40,86.30 L597.31,86.25 L598.23,86.19 L599.15,86.13 L600.07,86.07 L600.99,86.01 L601.91,85.95 L602.82,85.89 L603.74,85.83 L604.66,85.78 L605.58,85.73 L606.50,85.69 L607.42,85.63 L608.33,85.58 L609.25,85.53 L610.17,85.48 L611.09,85.48 L612.01,85.46 L612.93,85.42 L613.84,85.40 L614.76,85.37 L615.68,85.31 L616.60,85.28 L617.52,85.23 L618.44,85.19 L619.35,85.13 L620.27,85.07 L621.19,85.02 L622.11,84.96 L623.03,84.90 L623.95,85.14 L624.86,85.29 L625.78,85.49 L626.70,85.64 L627.62,85.78 L628.54,85.99 L629.46,86.14 L630.37,86.30 L631.29,86.44 L632.21,86.64 L633.13,86.84 L634.05,86.97 L634.97,87.08 L635.88,87.23 L636.80,87.38 L637.72,87.54 L638.64,87.68 L639.56,87.81 L640.48,87.96 L641.39,88.10 L642.31,88.22 L643.23,88.34 L644.15,88.46 L645.07,88.63 L645.99,88.76 L646.90,88.88 L647.82,88.96 L648.74,89.12 L649.66,89.26 L650.58,89.43 L651.49,89.53 L652.41,89.65 L653.33,89.75 L654.25,89.89 L655.17,90.04 L656.09,90.12 L657.00,90.27 L657.92,90.36 L658.84,90.44 L659.76,90.50 L660.68,90.58 L661.60,90.64 L662.51,90.73 L663.43,90.81 L664.35,90.90 L665.27,91.00 L666.19,91.04 L667.11,91.10 L668.02,91.19 L668.94,91.28 L669.86,91.36 L670.78,91.51 L671.70,91.61 L672.62,91.75 L673.53,91.84 L674.45,91.93 L675.37,92.04 L676.29,92.11 L677.21,92.21 L678.13,92.30 L679.04,92.37 L679.96,92.47 L680.88,92.50 L681.80,92.57 L682.72,92.61 L683.64,92.69 L684.55,92.81 L685.47,92.93 L686.39,93.00 L687.31,93.03 L688.23,93.10 L689.15,93.16 L690.06,93.21 L690.98,93.25 L691.90,93.32 L692.82,93.35 L693.74,93.46 L694.66,93.50 L695.57,93.61 L696.49,93.67 L697.41,93.70 L698.33,93.77 L699.25,93.78 L700.17,93.81 L701.08,93.88 L702.00,93.90 L702.92,93.91 L703.84,93.90 L704.76,93.92 L705.68,93.92 L706.59,93.88 L707.51,93.91 L708.43,93.90 L709.35,93.97 L710.27,94.00 L711.19,94.02 L712.10,94.04 L713.02,94.07 L713.94,94.09 L714.86,94.09 L715.78,94.10 L716.70,94.15 L717.61,94.16 L718.53,94.16 L719.45,94.16 L720.37,94.14 L721.29,94.17 L722.21,94.16 L723.12,94.16 L724.04,94.16 L724.96,94.20 L725.88,94.21 L726.80,94.23 L727.71,94.25 L728.63,94.28 L729.55,94.29 L730.47,94.31 L731.39,94.33 L732.31,94.35 L733.22,94.34 L734.14,94.33 L735.06,94.31 L735.98,94.34 L736.90,94.33 L737.82,94.30 L738.73,94.30 L739.65,94.31 L740.57,94.29 L741.49,94.31 L742.41,94.29 L743.33,94.28 L744.24,94.30 L745.16,94.32 L746.08,94.32 L747.00,94.29 L747.92,94.30 L748.84,94.29 L749.75,94.30 L750.67,94.30 L751.59,94.30 L752.51,94.30 L753.43,94.28 L754.35,94.30 L755.26,94.29 L756.18,94.26 L757.10,94.25 L758.02,94.26 L758.94,94.25 L759.86,94.26 L760.77,94.26 L761.69,94.27 L762.61,94.29 L763.53,94.30 L764.45,94.30 L765.37,94.33 L766.28,94.35 L767.20,94.33 L768.12,94.32 L769.04,94.32 L769.96,94.32 L770.88,94.32 L771.79,94.30 L772.71,94.29 L773.63,94.29 L774.55,94.24 L775.47,94.22 L776.39,94.18 L777.30,94.18 L778.22,94.16 L779.14,94.13 L780.06,94.10 L780.98,94.06 L781.90,94.03 L782.81,93.99 L783.73,93.95 L784.65,93.94 L785.57,93.92 L786.49,93.89 L787.41,93.84 L788.32,93.80 L789.24,93.76 L790.16,93.74 L791.08,93.70 L792.00,93.67 L792.92,93.65 L793.83,93.62 L794.75,93.60 L795.67,93.57 L796.59,93.54 L797.51,93.52 L798.42,93.50 L799.34,93.46 L800.26,93.44 L801.18,93.42 L802.10,93.40 L803.02,93.37 L803.93,93.34 L804.85,93.29 L805.77,93.25 L806.69,93.23 L807.61,93.18 L808.53,93.16 L809.44,93.12 L810.36,93.08 L811.28,93.04 L812.20,92.99 L813.12,92.97 L814.04,92.94 L814.95,92.91 L815.87,92.87 L816.79,92.84 L817.71,92.81 L818.63,92.78 L819.55,92.75 L820.46,92.73 L821.38,92.69 L822.30,92.67 L823.22,92.63 L824.14,92.61 L825.06,92.56 L825.97,92.52 L826.89,92.48 L827.81,92.45 L828.73,92.40 L829.65,92.36 L830.57,92.33 L831.48,92.30 L832.40,92.25 L833.32,92.20 L834.24,92.17 L835.16,92.13 L836.08,92.08 L836.99,92.05 L837.91,92.01 L838.83,91.97 L839.75,91.95 L840.67,91.92 L841.59,91.87 L842.50,91.82 L843.42,91.79 L844.34,91.74 L845.26,91.71 L846.18,91.67 L847.10,91.64 L848.01,91.60 L848.93,91.56 L849.85,91.52 L850.77,91.47 L851.69,91.44 L852.61,91.39 L853.52,91.34 L854.44,91.29 L855.36,91.26 L856.28,91.22 L857.20,91.18 L858.12,91.14 L859.03,91.10 L859.95,91.06 L860.87,91.02 L861.79,90.98 L862.71,90.95 L863.63,90.91 L864.54,90.88 L865.46,90.84 L866.38,90.80 L867.30,90.76 L868.22,90.72 L869.14,90.67 L870.05,90.62 L870.97,90.58 L871.89,90.54 L872.81,90.50 L873.73,90.46 L874.64,90.41 L875.56,90.37 L876.48,90.33 L877.40,90.29 L878.32,90.24 L879.24,90.20 L880.15,90.15 L881.07,90.11 L881.99,90.06 L882.91,90.02 L883.83,89.98 L884.75,89.94 L885.66,89.90 L886.58,89.86 L887.50,89.82 L888.42,89.78 L889.34,89.74 L890.26,89.71 L891.17,89.67 L892.09,89.62 L893.01,89.58 L893.93,89.54 L894.85,89.50 L895.77,89.46 L896.68,89.41 L897.60,89.38 L898.52,89.34 L899.44,89.30 L900.36,89.25 L901.28,89.21 L902.19,89.18 L903.11,89.14 L904.03,89.11 L904.95,89.06 L905.87,89.02 L906.79,88.99 L907.70,88.95 L908.62,88.91 L909.54,88.88 L910.00,88.85" fill="none" stroke="#ff7f0e" stroke-width="2"/>
<text x="915" y="70" font-size="12" fill="#ff7f0e">mean_teacher</text>
<path d="M50.00,153.12 L50.92,134.38 L51.84,128.12 L52.75,113.28 L53.67,104.38 L54.59,100.00 L55.51,98.21 L56.43,96.88 L57.35,93.75 L58.26,90.78 L59.18,88.78 L60.10,88.28 L61.02,85.70 L61.94,85.16 L62.86,83.44 L63.77,82.52 L64.69,81.43 L65.61,80.47 L66.53,80.10 L67.45,79.06 L68.37,78.12 L69.28,77.06 L70.20,75.88 L71.12,75.39 L72.04,74.38 L72.96,73.62 L73.88,72.92 L74.79,72.27 L75.71,71.50 L76.63,70.94 L77.55,70.41 L78.47,69.78 L79.39,69.18 L80.30,68.61 L81.22,68.08 L82.14,67.58 L83.06,67.10 L83.98,67.02 L84.90,66.59 L85.81,66.17 L86.73,65.78 L87.65,65.40 L88.57,65.04 L89.49,64.70 L90.41,64.38 L91.32,64.06 L92.24,63.76 L93.16,63.48 L94.08,63.30 L95.00,63.12 L95.92,63.14 L96.83,62.89 L97.75,62.65 L98.67,62.50 L99.59,62.53 L100.51,62.30 L101.43,62.09 L102.34,61.88 L103.26,61.68 L104.18,61.48 L105.10,61.37 L106.02,61.19 L106.94,61.01 L107.85,60.84 L108.77,60.67 L109.69,60.51 L110.61,60.35 L111.53,60.27 L112.45,60.12 L113.36,59.98 L114.28,59.84 L115.20,59.70 L116.12,59.57 L117.04,59.44 L117.96,59.31 L118.87,59.19 L119.79,59.13 L120.71,59.07 L121.63,58.96 L122.55,58.96 L123.47,58.85 L124.38,58.75 L125.30,58.70 L126.22,58.59 L127.14,58.49 L128.06,58.39 L128.97,58.30 L129.89,58.26 L130.81,58.16 L131.73,58.12 L132.65,58.04 L133.57,57.95 L134.48,57.86 L135.40,57.78 L136.32,57.70 L137.24,57.62 L138.16,57.59 L139.08,57.61 L139.99,57.58 L140.91,57.50 L141.83,57.43 L142.75,57.44 L143.67,57.37 L144.59,57.35 L145.50,57.28 L146.42,57.21 L147.34,57.14 L148.26,57.12 L149.18,57.05 L150.10,57.03 L151.01,56.97 L151.93,56.91 L152.85,56.84 L153.77,56.83 L154.69,56.81 L155.61,56.75 L156.52,56.69 L157.44,56.63 L158.36,56.62 L159.28,56.60 L160.20,56.59 L161.12,56.53 L162.03,56.48 L162.95,56.43 L163.87,56.38 L164.79,56.36 L165.71,56.31 L166.63,56.26 L167.54,56.21 L168.46,56.17 L169.38,56.12 L170.30,56.07 L171.22,56.03 L172.14,55.98 L173.05,55.94 L173.97,55.89 L174.89,55.85 L175.81,55.81 L176.73,55.77 L177.65,55.73 L178.56,55.68 L179.48,55.64 L180.40,55.61 L181.32,55.57 L182.24,55.53 L183.16,55.49 L184.07,55.45 L184.99,55.42 L185.91,55.38 L186.83,55.34 L187.75,55.31 L188.67,55.27 L189.58,55.24 L190.50,55.20 L191.42,55.17 L192.34,55.14 L193.26,55.11 L194.18,55.07 L195.09,55.04 L196.01,55.01 L196.93,54.98 L197.85,54.95 L198.77,54.92 L199.68,54.89 L200.60,54.86 L201.52,54.83 L202.44,54.80 L203.36,54.77 L204.28,54.74 L205.19,54.72 L206.11,54.69 L207.03,54.66 L207.95,54.63 L208.87,54.61 L209.79,54.58 L210.70,54.55 L211.62,54.53 L212.54,54.50 L213.46,54.48 L214.38,54.45 L215.30,54.43 L216.21,54.40 L217.13,54.38 L218.05,54.36 L218.97,54.33 L219.89,54.31 L220.81,54.29 L221.72,54.26 L222.64,54.24 L223.56,54.22 L224.48,54.20 L225.40,54.17 L226.32,54.15 L227.23,54.13 L228.15,54.11 L229.07,54.09 L229.99,54.07 L230.91,54.05 L231.83,54.03 L232.74,54.01 L233.66,53.99 L234.58,53.97 L235.50,53.95 L236.42,53.93 L237.34,53.91 L238.25,53.89 L239.17,53.87 L240.09,53.85 L241.01,53.84 L241.93,53.82 L242.85,53.80 L243.76,53.78 L244.68,53.76 L245.60,53.75 L246.52,53.73 L247.44,53.71 L248.36,53.69 L249.27,53.68 L250.19,53.66 L251.11,53.64 L252.03,53.63 L252.95,53.61 L253.87,53.59 L254.78,53.58 L255.70,53.56 L256.62,53.55 L257.54,53.53 L258.46,53.52 L259.38,53.50 L260.29,53.49 L261.21,53.47 L262.13,53.46 L263.05,53.44 L263.97,53.43 L264.89,53.41 L265.80,53.40 L266.72,53.38 L267.64,53.37 L268.56,53.35 L269.48,53.34 L270.40,53.33 L271.31,53.31 L272.23,53.30 L273.15,53.29 L274.07,53.27 L274.99,53.26 L275.90,53.25 L276.82,53.23 L277.74,53.22 L278.66,53.21 L279.58,53.19 L280.50,53.18 L281.41,53.17 L282.33,53.16 L283.25,53.14 L284.17,53.13 L285.09,53.12 L286.01,53.11 L286.92,53.09 L287.84,53.08 L288.76,53.07 L289.68,53.06 L290.60,53.05 L291.52,53.04 L292.43,53.02 L293.35,53.01 L294.27,53.00 L295.19,52.99 L296.11,52.98 L297.03,52.97 L297.94,52.96 L298.86,52.95 L299.78,52.94 L300.70,52.93 L301.62,52.91 L302.54,52.90 L303.45,52.89 L304.37,52.90 L305.29,52.89 L306.21,52.88 L307.13,52.87 L308.05,52.86 L308.96,52.85 L309.88,52.84 L310.80,52.83 L311.72,52.82 L312.64,52.81 L313.56,52.80 L314.47,52.79 L315.39,52.78 L316.31,52.77 L317.23,52.76 L318.15,52.75 L319.07,52.74 L319.98,52.73 L320.90,52.72 L321.82,52.71 L322.74,52.71 L323.66,52.70 L324.58,52.69 L325.49,52.68 L326.41,52.67 L327.33,52.66 L328.25,52.65 L329.17,52.64 L330.09,52.63 L331.00,52.63 L331.92,52.62 L332.84,52.61 L333.76,52.60 L334.68,52.59 L335.60,52.58 L336.51,52.86 L337.43,53.31 L338.35,53.88 L339.27,54.45 L340.19,55.01 L341.11,55.56 L342.02,55.97 L342.94,56.55 L343.86,57.17 L344.78,57.74 L345.70,58.21 L346.62,58.77 L347.53,59.30 L348.45,59.73 L349.37,60.21 L350.29,60.68 L351.21,61.20 L352.12,61.63 L353.04,62.07 L353.96,62.48 L354.88,62.91 L355.80,63.36 L356.72,63.81 L357.63,64.37 L358.55,64.81 L359.47,65.27 L360.39,65.67 L361.31,66.08 L362.23,66.58 L363.14,67.05 L364.06,67.44 L364.98,67.85 L365.90,68.26 L366.82,68.67 L367.74,69.07 L368.65,69.40 L369.57,69.86 L370.49,70.26 L371.41,70.67 L372.33,71.04 L373.25,71.51 L374.16,71.93 L375.08,72.29 L376.00,72.67 L376.92,73.07 L377.84,73.39 L378.76,73.72 L379.67,74.08 L380.59,74.36 L381.51,74.78 L382.43,75.08 L383.35,75.39 L384.27,75.75 L385.18,76.14 L386.10,76.40 L387.02,76.76 L387.94,77.06 L388.86,77.40 L389.78,77.72 L390.69,77.97 L391.61,78.31 L392.53,78.65 L393.45,78.98 L394.37,79.30 L395.29,79.51 L396.20,79.82 L397.12,80.09 L398.04,80.27 L398.96,80.51 L399.88,80.68 L400.80,80.94 L401.71,81.12 L402.63,81.30 L403.55,81.45 L404.47,81.59 L405.39,81.82 L406.31,82.07 L407.22,82.28 L408.14,82.39 L409.06,82.51 L409.98,82.74 L410.90,82.94 L411.82,83.05 L412.73,83.26 L413.65,83.41 L414.57,83.59 L415.49,83.74 L416.41,83.90 L417.33,84.09 L418.24,84.25 L419.16,84.44 L420.08,84.55 L421.00,84.66 L421.92,84.88 L422.84,85.12 L423.75,85.24 L424.67,85.31 L425.59,85.52 L426.51,85.69 L427.43,85.80 L428.34,86.04 L429.26,86.21 L430.18,86.33 L431.10,86.37 L432.02,86.54 L432.94,86.67 L433.85,86.77 L434.77,86.86 L435.69,87.02 L436.61,87.07 L437.53,87.18 L438.45,87.21 L439.36,87.30 L440.28,87.40 L441.20,87.48 L442.12,87.55 L443.04,87.60 L443.96,87.64 L444.87,87.71 L445.79,87.75 L446.71,87.85 L447.63,87.87 L448.55,87.88 L449.47,87.88 L450.38,87.89 L451.30,87.87 L452.22,87.88 L453.14,87.85 L454.06,87.87 L454.98,87.88 L455.89,87.88 L456.81,87.89 L457.73,87.90 L458.65,87.90 L459.57,87.94 L460.49,88.02 L461.40,88.04 L462.32,88.01 L463.24,88.05 L464.16,88.10 L465.08,88.12 L466.00,88.18 L466.91,88.21 L467.83,88.29 L468.75,88.36 L469.67,88.40 L470.59,88.42 L471.51,88.43 L472.42,88.47 L473.34,88.45 L474.26,88.47 L475.18,88.50 L476.10,88.54 L477.02,88.56 L477.93,88.53 L478.85,88.51 L479.77,88.49 L480.69,88.51 L481.61,88.51 L482.53,88.55 L483.44,88.53 L484.36,88.53 L485.28,88.55 L486.20,88.53 L487.12,88.52 L488.04,88.51 L488.95,88.49 L489.87,88.48 L490.79,88.44 L491.71,88.41 L492.63,88.43 L493.55,88.39 L494.46,88.35 L495.38,88.33 L496.30,88.35 L497.22,88.34 L498.14,88.31 L499.05,88.32 L499.97,88.31 L500.89,88.31 L501.81,88.32 L502.73,88.27 L503.65,88.30 L504.56,88.28 L505.48,88.25 L506.40,88.24 L507.32,88.25 L508.24,88.27 L509.16,88.25 L510.07,88.23 L510.99,88.23 L511.91,88.20 L512.83,88.20 L513.75,88.19 L514.67,88.17 L515.58,88.15 L516.50,88.14 L517.42,88.13 L518.34,88.08 L519.26,88.06 L520.18,88.02 L521.09,87.98 L522.01,87.98 L522.93,88.00 L523.85,87.97 L524.77,87.95 L525.69,87.91 L526.60,87.87 L527.52,87.82 L528.44,87.76 L529.36,87.70 L530.28,87.68 L531.20,87.67 L532.11,87.63 L533.03,87.61 L533.95,87.58 L534.87,87.54 L535.79,87.51 L536.71,87.46 L537.62,87.39 L538.54,87.36 L539.46,87.31 L540.38,87.29 L541.30,87.26 L542.22,87.21 L543.13,87.20 L544.05,87.19 L544.97,87.14 L545.89,87.11 L546.81,87.10 L547.73,87.09 L548.64,87.05 L549.56,87.04 L550.48,87.03 L551.40,87.00 L552.32,86.99 L553.24,86.95 L554.15,86.90 L555.07,86.86 L555.99,86.82 L556.91,86.76 L557.83,86.73 L558.75,86.69 L559.66,86.66 L560.58,86.62 L561.50,86.57 L562.42,86.54 L563.34,86.50 L564.26,86.46 L565.17,86.42 L566.09,86.43 L567.01,86.41 L567.93,86.37 L568.85,86.34 L569.77,86.30 L570.68,86.27 L571.60,86.22 L572.52,86.22 L573.44,86.17 L574.36,86.15 L575.27,86.12 L576.19,86.10 L577.11,86.06 L578.03,86.00 L578.95,85.95 L579.87,85.90 L580.78,85.84 L581.70,85.79 L582.62,85.74 L583.54,85.70 L584.46,85.64 L585.38,85.58 L586.29,85.52 L587.21,85.47 L588.13,85.43 L589.05,85.39 L589.97,85.33 L590.89,85.28 L591.80,85.22 L592.72,85.18 L593.64,85.14 L594.56,85.09 L595.48,85.04 L596.40,85.00 L597.31,84.94 L598.23,84.89 L599.15,84.83 L600.07,84.78 L600.99,84.72 L601.91,84.67 L602.82,84.61 L603.74,84.56 L604.66,84.50 L605.58,84.44 L606.50,84.40 L607.42,84.35 L608.33,84.31 L609.25,84.27 L610.17,84.24 L611.09,84.19 L612.01,84.14 L612.93,84.10 L613.84,84.08 L614.76,84.03 L615.68,83.97 L616.60,83.93 L617.52,83.87 L618.44,83.84 L619.35,83.79 L620.27,83.74 L621.19,83.69 L622.11,83.63 L623.03,83.58 L623.95,83.81 L624.86,83.96 L625.78,84.16 L626.70,84.33 L627.62,84.48 L628.54,84.69 L629.46,84.84 L630.37,85.00 L631.29,85.14 L632.21,85.37 L633.13,85.55 L634.05,85.66 L634.97,85.75 L635.88,85.89 L636.80,86.04 L637.72,86.16 L638.64,86.30 L639.56,86.46 L640.48,86.58 L641.39,86.69 L642.31,86.82 L643.23,86.91 L644.15,87.02 L645.07,87.17 L645.99,87.31 L646.90,87.45 L647.82,87.56 L648.74,87.70 L649.66,87.79 L650.58,87.93 L651.49,88.02 L652.41,88.10 L653.33,88.19 L654.25,88.35 L655.17,88.48 L656.09,88.54 L657.00,88.69 L657.92,88.78 L658.84,88.84 L659.76,88.90 L660.68,88.98 L661.60,89.03 L662.51,89.12 L663.43,89.20 L664.35,89.30 L665.27,89.38 L666.19,89.41 L667.11,89.45 L668.02,89.52 L668.94,89.60 L669.86,89.67 L670.78,89.80 L671.70,89.87 L672.62,90.03 L673.53,90.14 L674.45,90.22 L675.37,90.33 L676.29,90.42 L677.21,90.47 L678.13,90.54 L679.04,90.60 L679.96,90.65 L680.88,90.69 L681.80,90.75 L682.72,90.80 L683.64,90.84 L684.55,90.95 L685.47,91.05 L686.39,91.07 L687.31,91.09 L688.23,91.10 L689.15,91.14 L690.06,91.15 L690.98,91.16 L691.90,91.17 L692.82,91.19 L693.74,91.26 L694.66,91.27 L695.57,91.36 L696.49,91.40 L697.41,91.42 L698.33,91.46 L699.25,91.46 L700.17,91.48 L701.08,91.52 L702.00,91.55 L702.92,91.59 L703.84,91.59 L704.76,91.61 L705.68,91.61 L706.59,91.59 L707.51,91.59 L708.43,91.59 L709.35,91.62 L710.27,91.65 L711.19,91.66 L712.10,91.67 L713.02,91.71 L713.94,91.70 L714.86,91.69 L715.78,91.68 L716.70,91.74 L717.61,91.74 L718.53,91.74 L719.45,91.74 L720.37,91.73 L721.29,91.74 L722.21,91.72 L723.12,91.70 L724.04,91.72 L724.96,91.73 L725.88,91.75 L726.80,91.76 L727.71,91.76 L728.63,91.79 L729.55,91.80 L730.47,91.80 L731.39,91.80 L732.31,91.82 L733.22,91.82 L734.14,91.82 L735.06,91.79 L735.98,91.81 L736.90,91.78 L737.82,91.74 L738.73,91.74 L739.65,91.73 L740.57,91.71 L741.49,91.73 L742.41,91.71 L743.33,91.68 L744.24,91.69 L745.16,91.69 L746.08,91.69 L747.00,91.65 L747.92,91.65 L748.84,91.63 L749.75,91.62 L750.67,91.59 L751.59,91.57 L752.51,91.58 L753.43,91.56 L754.35,91.57 L755.26,91.55 L756.18,91.54 L757.10,91.54 L758.02,91.53 L758.94,91.50 L759.86,91.49 L760.77,91.50 L761.69,91.50 L762.61,91.51 L763.53,91.51 L764.45,91.52 L765.37,91.54 L766.28,91.54 L767.20,91.52 L768.12,91.53 L769.04,91.52 L769.96,91.51 L770.88,91.50 L771.79,91.48 L772.71,91.48 L773.63,91.46 L774.55,91.42 L775.47,91.41 L776.39,91.37 L777.30,91.37 L778.22,91.36 L779.14,91.33 L780.06,91.35 L780.98,91.33 L781.90,91.29 L782.81,91.27 L783.73,91.25 L784.65,91.26 L785.57,91.23 L786.49,91.21 L787.41,91.18 L788.32,91.14 L789.24,91.11 L790.16,91.10 L791.08,91.10 L792.00,91.06 L792.92,91.05 L793.83,91.03 L794.75,91.03 L795.67,91.01 L796.59,91.00 L797.51,90.98 L798.42,90.97 L799.34,90.94 L800.26,90.92 L801.18,90.91 L802.10,90.88 L803.02,90.87 L803.93,90.85 L804.85,90.82 L805.77,90.78 L806.69,90.80 L807.61,90.75 L808.53,90.74 L809.44,90.73 L810.36,90.70 L811.28,90.68 L812.20,90.64 L813.12,90.64 L814.04,90.62 L814.95,90.62 L815.87,90.60 L816.79,90.60 L817.71,90.60 L818.63,90.58 L819.55,90.54 L820.46,90.55 L821.38,90.52 L822.30,90.50 L823.22,90.46 L824.14,90.45 L825.06,90.42 L825.97,90.38 L826.89,90.35 L827.81,90.33 L828.73,90.28 L829.65,90.28 L830.57,90.27 L831.48,90.28 L832.40,90.25 L833.32,90.21 L834.24,90.19 L835.16,90.18 L836.08,90.14 L836.99,90.12 L837.91,90.08 L838.83,90.06 L839.75,90.04 L840.67,90.03 L841.59,89.99 L842.50,89.97 L843.42,89.97 L844.34,89.94 L845.26,89.93 L846.18,89.92 L847.10,89.91 L848.01,89.90 L848.93,89.87 L849.85,89.84 L850.77,89.81 L851.69,89.81 L852.61,89.78 L853.52,89.77 L854.44,89.73 L855.36,89.72 L856.28,89.70 L857.20,89.67 L858.12,89.66 L859.03,89.65 L859.95,89.64 L860.87,89.63 L861.79,89.63 L862.71,89.61 L863.63,89.60 L864.54,89.59 L865.46,89.55 L866.38,89.55 L867.30,89.54 L868.22,89.52 L869.14,89.49 L870.05,89.46 L870.97,89.42 L871.89,89.40 L872.81,89.37 L873.73,89.35 L874.64,89.32 L875.56,89.30 L876.48,89.29 L877.40,89.26 L878.32,89.24 L879.24,89.21 L880.15,89.20 L881.07,89.17 L881.99,89.13 L882.91,89.10 L883.83,89.07 L884.75,89.04 L885.66,89.01 L886.58,88.98 L887.50,88.94 L888.42,88.92 L889.34,88.90 L890.26,88.87 L891.17,88.84 L892.09,88.82 L893.01,88.79 L893.93,88.75 L894.85,88.73 L895.77,88.68 L896.68,88.65 L897.60,88.64 L898.52,88.60 L899.44,88.57 L900.36,88.54 L901.28,88.50 L902.19,88.47 L903.11,88.46 L904.03,88.42 L904.95,88.39 L905.87,88.34 L906.79,88.31 L907.70,88.28 L908.62,88.24 L909.54,88.20 L910.00,88.18" fill="none" stroke="#2ca02c" stroke-width="2"/>
<text x="915" y="90" font-size="12" fill="#2ca02c">ts_drift_adapt</text>
</svg>