<svg width="960" height="200" xmlns="http://www.w3.org/2000/svg">
<rect x="0" y="0" width="960" height="200" fill="#ffffff" stroke="#dddddd"/>
<text x="480.0" y="25" text-anchor="middle" font-size="16">sea_abrupt4__ts_drift_adapt__seed1 Drift Timeline</text>
<text x="480.0" y="195" text-anchor="middle" font-size="12" fill="#333333">sample_idx</text>
<line x1="50" y1="100.0" x2="910" y2="100.0" stroke="#555555"/>
<line x1="50.00" y1="95.0" x2="50.00" y2="105.0" stroke="#888888"/>
<text x="50.00" y="118.0" text-anchor="middle" font-size="11" fill="#444444">63</text>
<line x1="265.00" y1="95.0" x2="265.00" y2="105.0" stroke="#888888"/>
<text x="265.00" y="118.0" text-anchor="middle" font-size="11" fill="#444444">13k</text>
<line x1="480.00" y1="95.0" x2="480.00" y2="105.0" stroke="#888888"/>
<text x="480.00" y="118.0" text-anchor="middle" font-size="11" fill="#444444">25k</text>
<line x1="695.00" y1="95.0" x2="695.00" y2="105.0" stroke="#888888"/>
<text x="695.00" y="118.0" text-anchor="middle" font-size="11" fill="#444444">38k</text>
<line x1="910.00" y1="95.0" x2="910.00" y2="105.0" stroke="#888888"/>
<text x="910.00" y="118.0" text-anchor="middle" font-size="11" fill="#444444">50k</text>
<rect x="770" y="35" width="140" height="50" fill="#ffffff" stroke="#cccccc"/>
<text x="840" y="50" text-anchor="middle" font-size="12" fill="#333333">legend</text>
<line x1="785" y1="65" x2="800" y2="65" stroke="#999999" stroke-width="2" stroke-dasharray="4,4"/>
<text x="805" y="69" font-size="12" fill="#555555">ground truth</text>
<line x1="785" y1="80" x2="800" y2="80" stroke="#d62728" stroke-width="2"/>
<text x="805" y="84" font-size="12" fill="#d62728">detections</text>
<line x1="221.14" y1="60" x2="221.14" y2="180" stroke="#999999" stroke-width="2" stroke-dasharray="4,4"/>
<line x1="393.36" y1="60" x2="393.36" y2="180" stroke="#999999" stroke-width="2" stroke-dasharray="4,4"/>
<line x1="565.58" y1="60" x2="565.58" y2="180" stroke="#999999" stroke-width="2" stroke-dasharray="4,4"/>
<line x1="737.80" y1="60" x2="737.80" y2="180" stroke="#999999" stroke-width="2" stroke-dasharray="4,4"/>
<line x1="76.45" y1="60" x2="76.45" y2="180" stroke="#d62728" stroke-width="2"/>
<line x1="104.01" y1="60" x2="104.01" y2="180" stroke="#d62728" stroke-width="2"/>
<line x1="131.56" y1="60" x2="131.56" y2="180" stroke="#d62728" stroke-width="2"/>
<line x1="159.12" y1="60" x2="159.12" y2="180" stroke="#d62728" stroke-width="2"/>
<line x1="186.67" y1="60" x2="186.67" y2="180" stroke="#d62728" stroke-width="2"/>
<line x1="214.23" y1="60" x2="214.23" y2="180" stroke="#d62728" stroke-width="2"/>
<line x1="241.78" y1="60" x2="241.78" y2="180" stroke="#d62728" stroke-width="2"/>
<line x1="269.34" y1="60" x2="269.34" y2="180" stroke="#d62728" stroke-width="2"/>
<line x1="296.90" y1="60" x2="296.90" y2="180" stroke="#d62728" stroke-width="2"/>
<line x1="324.45" y1="60" x2="324.45" y2="180" stroke="#d62728" stroke-width="2"/>
<line x1="352.01" y1="60" x2="352.01" y2="180" stroke="#d62728" stroke-width="2"/>
<line x1="379.56" y1="60" x2="379.56" y2="180" stroke="#d62728" stroke-width="2"/>
<line x1="407.12" y1="60" x2="407.12" y2="180" stroke="#d62728" stroke-width="2"/>
<line x1="435.77" y1="60" x2="435.77" y2="180" stroke="#d62728" stroke-width="2"/>
<line x1="463.33" y1="60" x2="463.33" y2="180" stroke="#d62728" stroke-width="2"/>
<line x1="490.88" y1="60" x2="490.88" y2="180" stroke="#d62728" stroke-width="2"/>
<line x1="518.44" y1="60" x2="518.44" y2="180" stroke="#d62728" stroke-width="2"/>
<line x1="547.10" y1="60" x2="547.10" y2="180" stroke="#d62728" stroke-width="2"/>
<line x1="573.55" y1="60" x2="573.55" y2="180" stroke="#d62728" stroke-width="2"/>
<line x1="574.65" y1="60" x2="574.65" y2="180" stroke="#d62728" stroke-width="2"/>
<line x1="602.21" y1="60" x2="602.21" y2="180" stroke="#d62728" stroke-width="2"/>
<line x1="629.76" y1="60" x2="629.76" y2="180" stroke="#d62728" stroke-width="2"/>
<line x1="657.32" y1="60" x2="657.32" y2="180" stroke="#d62728" stroke-width="2"/>
<line x1="684.87" y1="60" x2="684.87" y2="180" stroke="#d62728" stroke-width="2"/>
<line x1="713.53" y1="60" x2="713.53" y2="180" stroke="#d62728" stroke-width="2"/>
<line x1="741.09" y1="60" x2="741.09" y2="180" stroke="#d62728" stroke-width="2"/>
<line x1="747.70" y1="60" x2="747.70" y2="180" stroke="#d62728" stroke-width="2"/>
<line x1="768.64" y1="60" x2="768.64" y2="180" stroke="#d62728" stroke-width="2"/>
<line x1="796.20" y1="60" x2="796.20" y2="180" stroke="#d62728" stroke-width="2"/>
<line x1="823.75" y1="60" x2="823.75" y2="180" stroke="#d62728" stroke-width="2"/>
<line x1="851.31" y1="60" x2="851.31" y2="180" stroke="#d62728" stroke-width="2"/>
<line x1="878.86" y1="60" x2="878.86" y2="180" stroke="#d62728" stroke-width="2"/>
<line x1="906.42" y1="60" x2="906.42" y2="180" stroke="#d62728" stroke-width="2"/>
</svg>